<svg xmlns="http://www.w3.org/2000/svg" width="16" height="16" viewBox="0 0 16 16" fill="none">
    <g clip-path="url(#clip0_1_2472)">
        <path
            d="M3.57143 16.0005H0.25V5.32202H3.57143V16.0005ZM1.89286 3.89345C0.857143 3.89345 0 3.00059 0 1.92916C0 0.464876 1.57143 -0.463696 2.85714 0.286304C3.46429 0.607733 3.82143 1.25059 3.82143 1.92916C3.82143 3.00059 2.96429 3.89345 1.89286 3.89345ZM15.9643 16.0005H12.6786V10.822C12.6786 9.57202 12.6429 8.00059 10.9286 8.00059C9.21429 8.00059 8.96429 9.32202 8.96429 10.7149V16.0005H5.64286V5.32202H8.82143V6.7863H8.85714C9.32143 5.96488 10.3929 5.07202 12 5.07202C15.3571 5.07202 16 7.2863 16 10.1434V16.0005H15.9643Z"
            fill="white" />
    </g>
    <defs>
        <clipPath id="clip0_1_2472">
            <rect width="16" height="16" fill="white" />
        </clipPath>
    </defs>
</svg>