<svg xmlns="http://www.w3.org/2000/svg" width="1440" height="637" viewBox="0 0 1440 637" fill="none">
    <path
        d="M670 287.482C454.878 254.831 337.678 104.34 311 58.5919V-12H1467V535.006C830.5 610.803 964.5 332.181 670 287.482Z"
        fill="white" />
    <path
        d="M670 287.482C454.878 254.831 337.678 104.34 311 58.5919V-12H1467V535.006C830.5 610.803 964.5 332.181 670 287.482Z"
        fill="url(#paint0_linear_1_1156)" />
    <path
        d="M689.435 273.043C486.037 241.966 375.224 98.7307 350 55.1884V-12H1443V508.632C841.188 580.775 967.885 315.586 689.435 273.043Z"
        fill="#008345" fill-opacity="0.54" />


    <path
        d="M1154.8 609.611L1021.82 532.833C1020.65 532.159 1019.68 531.189 1019.01 530.02C1018.33 528.851 1017.98 527.525 1017.98 526.175C1017.98 524.825 1018.33 523.499 1019.01 522.33C1019.68 521.161 1020.65 520.191 1021.82 519.517L1034.94 511.245C1037.21 509.941 1039.77 509.254 1042.39 509.254C1045 509.254 1047.57 509.941 1049.83 511.245L1182.82 588.032C1183.99 588.706 1184.96 589.676 1185.64 590.845C1186.31 592.014 1186.67 593.34 1186.67 594.69C1186.67 596.04 1186.31 597.366 1185.64 598.535C1184.96 599.704 1183.99 600.674 1182.82 601.348L1169.7 609.611C1167.44 610.922 1164.87 611.612 1162.25 611.612C1159.63 611.612 1157.06 610.922 1154.8 609.611Z"
        fill="#E0E0E0" />
    <path
        d="M941.729 505.241C954.282 512.062 965.463 515.742 966.704 513.459C967.944 511.177 958.773 503.797 946.22 496.976C933.667 490.155 922.486 486.475 921.246 488.758C920.005 491.04 929.176 498.42 941.729 505.241Z"
        fill="#E6E6E6" />
    <path
        d="M1201.96 543.408L1214.62 550.686C1214.62 550.686 1208.15 530.373 1211.6 509.897C1212.9 502.158 1215.69 498.316 1216.67 496.246C1217.64 494.176 1225.21 481.384 1218.48 475.526C1211.74 469.668 1196.08 481.447 1196.92 512.97C1197.31 523.288 1199 533.516 1201.96 543.408Z"
        fill="white" />
    <path
        d="M1201.96 543.408L1214.62 550.686C1214.62 550.686 1208.15 530.373 1211.6 509.897C1212.9 502.158 1215.69 498.316 1216.67 496.246C1217.64 494.176 1225.21 481.384 1218.48 475.526C1211.74 469.668 1196.08 481.447 1196.92 512.97C1197.31 523.288 1199 533.516 1201.96 543.408Z"
        fill="url(#paint1_linear_1_1156)" />
    <path opacity="0.5"
        d="M1201.96 543.408L1214.62 550.686C1214.62 550.686 1208.15 530.373 1211.6 509.897C1212.9 502.158 1215.69 498.316 1216.67 496.246C1217.64 494.176 1225.21 481.384 1218.48 475.526C1211.74 469.668 1196.08 481.447 1196.92 512.97C1197.31 523.288 1199 533.516 1201.96 543.408Z"
        fill="#111111" />
    <path
        d="M1207.85 547.242C1207.75 547.244 1207.66 547.217 1207.59 547.165C1207.51 547.113 1207.45 547.039 1207.42 546.953C1207.38 546.817 1202.54 533.6 1202.69 512.356C1202.85 491.112 1214.01 479.576 1214.12 479.468C1214.16 479.425 1214.21 479.392 1214.27 479.369C1214.32 479.346 1214.38 479.334 1214.44 479.334C1214.5 479.334 1214.56 479.346 1214.62 479.369C1214.67 479.392 1214.72 479.425 1214.76 479.468C1214.8 479.51 1214.84 479.56 1214.86 479.615C1214.88 479.67 1214.9 479.729 1214.9 479.789C1214.9 479.848 1214.88 479.907 1214.86 479.963C1214.84 480.018 1214.8 480.068 1214.76 480.11C1214.65 480.218 1203.75 491.41 1203.6 512.365C1203.44 533.32 1208.22 546.519 1208.27 546.645C1208.31 546.758 1208.31 546.882 1208.26 546.991C1208.21 547.099 1208.11 547.183 1208 547.224C1207.95 547.239 1207.9 547.245 1207.85 547.242Z"
        fill="white" />
    <path
        d="M1207.24 546.519L1224.55 556.463C1226.35 557.529 1228.49 557.876 1230.53 557.435C1232.58 556.994 1234.39 555.798 1235.59 554.085C1236.74 552.303 1237.22 550.176 1236.96 548.074C1236.13 539.088 1232.22 537.018 1237 533.013C1241.79 529.008 1243.03 528.728 1242.76 524.877C1242.49 521.026 1239.86 519.344 1238.61 517.825C1237.36 516.307 1233.91 513.124 1236.26 508.424C1238.61 503.723 1241.82 499.175 1236.96 497.096C1234.06 495.849 1229.22 497.512 1226.04 500.965C1222.86 504.419 1220.23 506.905 1217.19 507.736C1214.14 508.568 1207.79 508.704 1208.07 513.956C1208.34 519.208 1209.73 521.007 1208.48 523.349C1206.13 527.724 1195.91 530.21 1207.24 546.519Z"
        fill="white" />
    <path
        d="M1207.24 546.519L1224.55 556.463C1226.35 557.529 1228.49 557.876 1230.53 557.435C1232.58 556.994 1234.39 555.798 1235.59 554.085C1236.74 552.303 1237.22 550.176 1236.96 548.074C1236.13 539.088 1232.22 537.018 1237 533.013C1241.79 529.008 1243.03 528.728 1242.76 524.877C1242.49 521.026 1239.86 519.344 1238.61 517.825C1237.36 516.307 1233.91 513.124 1236.26 508.424C1238.61 503.723 1241.82 499.175 1236.96 497.096C1234.06 495.849 1229.22 497.512 1226.04 500.965C1222.86 504.419 1220.23 506.905 1217.19 507.736C1214.14 508.568 1207.79 508.704 1208.07 513.956C1208.34 519.208 1209.73 521.007 1208.48 523.349C1206.13 527.724 1195.91 530.21 1207.24 546.519Z"
        fill="url(#paint2_linear_1_1156)" />
    <path
        d="M1215.79 551.869C1215.68 551.865 1215.57 551.821 1215.49 551.745C1215.4 551.669 1215.35 551.565 1215.34 551.453C1215.34 551.146 1212.68 520.12 1234.01 499.472C1234.1 499.399 1234.21 499.363 1234.33 499.369C1234.44 499.376 1234.55 499.426 1234.63 499.508C1234.71 499.59 1234.75 499.699 1234.75 499.813C1234.76 499.928 1234.71 500.038 1234.64 500.123C1213.61 520.472 1216.21 551.064 1216.24 551.372C1216.25 551.49 1216.21 551.608 1216.14 551.699C1216.06 551.791 1215.95 551.848 1215.83 551.86L1215.79 551.869Z"
        fill="white" />
    <path
        d="M1219.22 525.165C1219.1 525.166 1218.99 525.123 1218.91 525.046C1218.82 524.969 1218.77 524.863 1218.76 524.75C1218.57 522.345 1217.9 520.005 1216.77 517.871C1215.65 515.737 1214.1 513.854 1212.23 512.337C1212.18 512.303 1212.14 512.26 1212.11 512.209C1212.07 512.159 1212.05 512.102 1212.04 512.044C1212.03 511.985 1212.03 511.925 1212.05 511.866C1212.06 511.808 1212.08 511.753 1212.12 511.705C1212.15 511.656 1212.2 511.615 1212.25 511.583C1212.29 511.551 1212.35 511.529 1212.41 511.519C1212.47 511.509 1212.53 511.511 1212.58 511.524C1212.64 511.537 1212.7 511.562 1212.74 511.596C1214.74 513.181 1216.39 515.164 1217.58 517.419C1218.77 519.673 1219.48 522.151 1219.67 524.695C1219.68 524.816 1219.64 524.936 1219.56 525.029C1219.48 525.122 1219.37 525.181 1219.25 525.193L1219.22 525.165Z"
        fill="white" />
    <path
        d="M1217.74 530.49C1217.63 530.491 1217.53 530.452 1217.45 530.381C1217.36 530.301 1217.3 530.189 1217.29 530.069C1217.28 529.95 1217.32 529.831 1217.4 529.739C1217.62 529.486 1222.96 523.592 1235.48 525.156C1235.6 525.172 1235.71 525.234 1235.78 525.329C1235.85 525.424 1235.88 525.544 1235.87 525.662C1235.85 525.781 1235.79 525.89 1235.7 525.964C1235.6 526.038 1235.48 526.073 1235.36 526.06C1223.34 524.55 1218.12 530.282 1218.07 530.336C1218.03 530.382 1217.98 530.419 1217.92 530.446C1217.87 530.472 1217.81 530.487 1217.74 530.49Z"
        fill="white" />
    <path
        d="M1150.75 600.433L1033.81 532.912C1025.55 528.148 1018.86 515.366 1018.86 504.364V253.951C1018.86 242.95 1025.55 237.896 1033.81 242.66L1150.75 310.181C1159 314.945 1165.69 327.728 1165.69 338.73V589.142C1165.69 600.135 1159 605.197 1150.75 600.433Z"
        fill="#455A64" />
    <path
        d="M1164.22 302.308L1047.27 234.787C1043.74 232.753 1040.51 232.518 1037.95 233.765C1037.64 233.922 1037.33 234.1 1037.05 234.299L1023.94 241.919C1026.58 240.337 1030.03 240.455 1033.82 242.643L1150.76 310.164C1159.02 314.928 1165.71 327.71 1165.71 338.712V589.125C1165.71 594.946 1163.83 599.069 1160.85 601.021L1173.79 593.491C1177.09 591.737 1179.21 587.443 1179.21 581.287V330.875C1179.21 319.855 1172.48 307.072 1164.22 302.308Z"
        fill="#37474F" />
    <path
        d="M1165.69 338.712V589.124C1165.69 594.946 1163.82 599.068 1160.84 601.021L1173.78 593.491C1177.08 591.737 1179.21 587.443 1179.21 581.286V330.874L1165.74 338.694L1165.69 338.712Z"
        fill="#263238" />
    <path d="M1179.16 350.302L1165.69 358.077V364.152L1179.16 356.368V350.302Z" fill="#37474F" />
    <path
        d="M1173.26 390.702C1172.06 391.398 1171.08 390.657 1171.08 389.057V375.994C1171.09 375.177 1171.3 374.375 1171.68 373.651C1172.05 372.927 1172.6 372.302 1173.26 371.826C1174.46 371.13 1175.44 371.826 1175.44 373.472V386.535C1175.43 387.351 1175.22 388.154 1174.84 388.877C1174.47 389.601 1173.92 390.226 1173.26 390.702Z"
        fill="#37474F" />
    <path
        d="M1171.07 389.092V375.993C1171.09 375.176 1171.29 374.374 1171.67 373.65C1172.05 372.926 1172.59 372.301 1173.25 371.825C1173.45 371.687 1173.68 371.602 1173.92 371.58C1174.16 371.558 1174.41 371.599 1174.63 371.699L1172.99 370.858C1172.77 370.75 1172.52 370.704 1172.27 370.723C1172.02 370.742 1171.79 370.826 1171.58 370.966C1170.92 371.443 1170.37 372.067 1169.99 372.791C1169.61 373.515 1169.41 374.317 1169.39 375.134V388.188C1169.36 388.518 1169.41 388.851 1169.54 389.156C1169.67 389.461 1169.87 389.728 1170.13 389.933L1171.84 390.837C1171.57 390.641 1171.36 390.376 1171.22 390.069C1171.09 389.762 1171.04 389.425 1171.07 389.092Z"
        fill="#455A64" />
    <path
        d="M1173.26 422.316C1172.06 423.012 1171.08 422.316 1171.08 420.671V407.608C1171.09 406.791 1171.3 405.989 1171.68 405.265C1172.05 404.542 1172.6 403.917 1173.26 403.44C1174.46 402.744 1175.44 403.44 1175.44 405.094V418.148C1175.43 418.965 1175.22 419.768 1174.85 420.492C1174.47 421.216 1173.92 421.841 1173.26 422.316Z"
        fill="#37474F" />
    <path
        d="M1171.08 420.671V407.608C1171.09 406.791 1171.29 405.989 1171.67 405.266C1172.05 404.542 1172.59 403.917 1173.25 403.44C1173.45 403.304 1173.68 403.221 1173.92 403.199C1174.16 403.177 1174.41 403.216 1174.63 403.314L1172.99 402.464C1172.77 402.351 1172.52 402.302 1172.27 402.321C1172.02 402.34 1171.78 402.427 1171.58 402.572C1170.92 403.047 1170.37 403.671 1169.99 404.395C1169.61 405.119 1169.41 405.922 1169.39 406.74V419.83C1169.36 420.16 1169.41 420.493 1169.54 420.798C1169.67 421.104 1169.87 421.371 1170.13 421.575L1171.84 422.479C1171.56 422.278 1171.34 422.003 1171.2 421.684C1171.07 421.364 1171.02 421.014 1171.08 420.671Z"
        fill="#455A64" />
    <path
        d="M1146.66 317.206L1031.74 250.833C1031.26 250.557 1030.72 250.412 1030.17 250.411C1029.61 250.41 1029.07 250.553 1028.59 250.827C1028.11 251.102 1027.71 251.497 1027.43 251.973C1027.15 252.45 1027 252.992 1026.99 253.545V504.364C1026.99 512.736 1032.93 523.014 1040.18 527.2L1152.28 591.954C1152.81 592.26 1153.41 592.421 1154.02 592.421C1154.64 592.42 1155.24 592.258 1155.77 591.952C1156.3 591.645 1156.74 591.204 1157.05 590.673C1157.36 590.142 1157.52 589.539 1157.52 588.926V336.037C1157.57 329.13 1152.67 320.659 1146.66 317.206Z"
        fill="white" />
    <path
        d="M1146.66 317.206L1031.74 250.833C1031.26 250.557 1030.72 250.412 1030.17 250.411C1029.61 250.41 1029.07 250.553 1028.59 250.827C1028.11 251.102 1027.71 251.497 1027.43 251.973C1027.15 252.45 1027 252.992 1026.99 253.545V504.364C1026.99 512.736 1032.93 523.014 1040.18 527.2L1152.28 591.954C1152.81 592.26 1153.41 592.421 1154.02 592.421C1154.64 592.42 1155.24 592.258 1155.77 591.952C1156.3 591.645 1156.74 591.204 1157.05 590.673C1157.36 590.142 1157.52 589.539 1157.52 588.926V336.037C1157.57 329.13 1152.67 320.659 1146.66 317.206Z"
        fill="url(#paint3_linear_1_1156)" />
    <path opacity="0.9"
        d="M1146.66 317.206L1031.74 250.833C1031.26 250.557 1030.72 250.412 1030.17 250.411C1029.61 250.41 1029.07 250.553 1028.59 250.827C1028.11 251.102 1027.71 251.497 1027.43 251.973C1027.15 252.45 1027 252.992 1026.99 253.545V504.364C1026.99 512.736 1032.93 523.014 1040.18 527.2L1152.28 591.954C1152.81 592.26 1153.41 592.421 1154.02 592.421C1154.64 592.42 1155.24 592.258 1155.77 591.952C1156.3 591.645 1156.74 591.204 1157.05 590.673C1157.36 590.142 1157.52 589.539 1157.52 588.926V336.037C1157.57 329.13 1152.67 320.659 1146.66 317.206Z"
        fill="white" />
    <path d="M1066.12 268.163L1067.9 275.657L1105.99 297.624L1112.57 294.117L1066.12 268.163Z"
        fill="#455A64" />
    <path
        d="M1077.32 275.405C1077.32 276.653 1076.41 277.15 1075.37 276.535C1074.8 276.161 1074.33 275.661 1074 275.074C1073.67 274.486 1073.47 273.829 1073.44 273.154C1073.44 271.916 1074.34 271.409 1075.39 272.033C1075.95 272.405 1076.42 272.904 1076.76 273.49C1077.09 274.075 1077.28 274.731 1077.32 275.405Z"
        fill="#263238" />
    <path
        d="M1102.98 291.27C1102.78 291.268 1102.57 291.216 1102.39 291.116L1082.93 280.268C1082.66 280.107 1082.46 279.844 1082.37 279.537C1082.29 279.23 1082.33 278.902 1082.48 278.623C1082.64 278.345 1082.9 278.138 1083.2 278.047C1083.51 277.955 1083.83 277.987 1084.12 278.135L1103.58 288.983C1103.82 289.114 1104 289.321 1104.11 289.57C1104.22 289.819 1104.24 290.096 1104.17 290.358C1104.1 290.62 1103.95 290.851 1103.73 291.017C1103.52 291.182 1103.25 291.271 1102.98 291.27Z"
        fill="#263238" />
    <path
        d="M1051.09 303.031C1049.91 302.344 1049.05 302.941 1049.05 304.45C1049.05 305.205 1049.24 305.949 1049.59 306.614C1049.95 307.28 1050.46 307.847 1051.09 308.265C1051.43 308.47 1051.82 308.578 1052.21 308.578C1052.6 308.578 1052.99 308.47 1053.33 308.265L1055.21 311.683C1054.55 312.049 1053.8 312.224 1053.04 312.187C1052.28 312.151 1051.55 311.904 1050.92 311.475C1049.39 310.535 1048.11 309.232 1047.19 307.681C1046.28 306.129 1045.77 304.377 1045.7 302.579C1045.7 299.225 1047.95 298.059 1051.05 299.867C1052.8 300.995 1054.23 302.55 1055.21 304.387L1053.33 305.888C1052.86 304.747 1052.09 303.759 1051.09 303.031Z"
        fill="white" />
    <path
        d="M1051.09 303.031C1049.91 302.344 1049.05 302.941 1049.05 304.45C1049.05 305.205 1049.24 305.949 1049.59 306.614C1049.95 307.28 1050.46 307.847 1051.09 308.265C1051.43 308.47 1051.82 308.578 1052.21 308.578C1052.6 308.578 1052.99 308.47 1053.33 308.265L1055.21 311.683C1054.55 312.049 1053.8 312.224 1053.04 312.187C1052.28 312.151 1051.55 311.904 1050.92 311.475C1049.39 310.535 1048.11 309.232 1047.19 307.681C1046.28 306.129 1045.77 304.377 1045.7 302.579C1045.7 299.225 1047.95 298.059 1051.05 299.867C1052.8 300.995 1054.23 302.55 1055.21 304.387L1053.33 305.888C1052.86 304.747 1052.09 303.759 1051.09 303.031Z"
        fill="url(#paint4_linear_1_1156)" />
    <path
        d="M1066.09 314.359C1066.09 317.74 1063.8 318.879 1060.67 317.071C1059.09 316.128 1057.77 314.809 1056.82 313.231C1055.87 311.654 1055.33 309.868 1055.24 308.031C1055.24 304.65 1057.53 303.511 1060.67 305.319C1062.25 306.258 1063.57 307.576 1064.52 309.154C1065.47 310.732 1066.01 312.521 1066.09 314.359ZM1058.6 310.047C1058.61 310.823 1058.81 311.584 1059.18 312.268C1059.55 312.952 1060.07 313.538 1060.71 313.979C1061.83 314.63 1062.74 313.979 1062.74 312.442C1062.73 311.684 1062.55 310.937 1062.2 310.265C1061.84 309.593 1061.33 309.016 1060.71 308.582C1059.57 307.922 1058.6 308.483 1058.6 310.047Z"
        fill="white" />
    <path
        d="M1066.09 314.359C1066.09 317.74 1063.8 318.879 1060.67 317.071C1059.09 316.128 1057.77 314.809 1056.82 313.231C1055.87 311.654 1055.33 309.868 1055.24 308.031C1055.24 304.65 1057.53 303.511 1060.67 305.319C1062.25 306.258 1063.57 307.576 1064.52 309.154C1065.47 310.732 1066.01 312.521 1066.09 314.359ZM1058.6 310.047C1058.61 310.823 1058.81 311.584 1059.18 312.268C1059.55 312.952 1060.07 313.538 1060.71 313.979C1061.83 314.63 1062.74 313.979 1062.74 312.442C1062.73 311.684 1062.55 310.937 1062.2 310.265C1061.84 309.593 1061.33 309.016 1060.71 308.582C1059.57 307.922 1058.6 308.483 1058.6 310.047Z"
        fill="url(#paint5_linear_1_1156)" />
    <path
        d="M1069.73 310.769L1073.64 318.905V313.047L1076.6 314.756V326.155L1073.88 324.583L1070 316.519V322.341L1067.02 320.623V309.196L1069.73 310.769Z"
        fill="white" />
    <path
        d="M1069.73 310.769L1073.64 318.905V313.047L1076.6 314.756V326.155L1073.88 324.583L1070 316.519V322.341L1067.02 320.623V309.196L1069.73 310.769Z"
        fill="url(#paint6_linear_1_1156)" />
    <path
        d="M1086.26 320.307V323.29L1083.44 321.663V330.088L1080.17 328.199V319.773L1077.37 318.155V315.181L1086.26 320.307Z"
        fill="white" />
    <path
        d="M1086.26 320.307V323.29L1083.44 321.663V330.088L1080.17 328.199V319.773L1077.37 318.155V315.181L1086.26 320.307Z"
        fill="url(#paint7_linear_1_1156)" />
    <path
        d="M1092.62 333.777L1088.92 331.635L1088.41 332.954L1085.07 331.02L1089.23 322.025L1092.59 323.959L1096.6 337.682L1093.12 335.676L1092.62 333.777ZM1091.82 330.613L1090.81 326.717L1089.77 329.429L1091.82 330.613Z"
        fill="white" />
    <path
        d="M1092.62 333.777L1088.92 331.635L1088.41 332.954L1085.07 331.02L1089.23 322.025L1092.59 323.959L1096.6 337.682L1093.12 335.676L1092.62 333.777ZM1091.82 330.613L1090.81 326.717L1089.77 329.429L1091.82 330.613Z"
        fill="url(#paint8_linear_1_1156)" />
    <path
        d="M1101.78 332.294C1100.6 331.616 1099.74 332.204 1099.74 333.722C1099.74 334.477 1099.93 335.22 1100.28 335.885C1100.64 336.55 1101.15 337.118 1101.78 337.537C1102.12 337.739 1102.51 337.846 1102.9 337.846C1103.3 337.846 1103.68 337.739 1104.02 337.537L1105.91 340.954C1105.24 341.317 1104.49 341.489 1103.73 341.453C1102.97 341.416 1102.24 341.172 1101.61 340.746C1100.07 339.806 1098.79 338.502 1097.88 336.949C1096.97 335.396 1096.45 333.641 1096.38 331.842C1096.38 328.488 1098.64 327.322 1101.73 329.13C1103.48 330.263 1104.92 331.817 1105.91 333.65L1104.02 335.142C1103.55 334.007 1102.77 333.023 1101.78 332.294Z"
        fill="white" />
    <path
        d="M1101.78 332.294C1100.6 331.616 1099.74 332.204 1099.74 333.722C1099.74 334.477 1099.93 335.22 1100.28 335.885C1100.64 336.55 1101.15 337.118 1101.78 337.537C1102.12 337.739 1102.51 337.846 1102.9 337.846C1103.3 337.846 1103.68 337.739 1104.02 337.537L1105.91 340.954C1105.24 341.317 1104.49 341.489 1103.73 341.453C1102.97 341.416 1102.24 341.172 1101.61 340.746C1100.07 339.806 1098.79 338.502 1097.88 336.949C1096.97 335.396 1096.45 333.641 1096.38 331.842C1096.38 328.488 1098.64 327.322 1101.73 329.13C1103.48 330.263 1104.92 331.817 1105.91 333.65L1104.02 335.142C1103.55 334.007 1102.77 333.023 1101.78 332.294Z"
        fill="url(#paint9_linear_1_1156)" />
    <path
        d="M1114.83 336.805V339.779L1112.01 338.152V346.605L1108.74 344.715V336.29L1105.94 334.672V331.698L1114.83 336.805Z"
        fill="white" />
    <path
        d="M1114.83 336.805V339.779L1112.01 338.152V346.605L1108.74 344.715V336.29L1105.94 334.672V331.698L1114.83 336.805Z"
        fill="url(#paint10_linear_1_1156)" />
    <path
        d="M1124.47 350.799C1125.28 351.26 1125.89 350.898 1125.89 349.768V343.196L1129.17 345.076V351.649C1129.17 354.677 1127.36 355.581 1124.46 353.927C1123.07 353.153 1121.9 352.034 1121.06 350.677C1120.22 349.321 1119.75 347.772 1119.68 346.179V339.607L1122.96 341.497V348.069C1122.97 348.613 1123.11 349.146 1123.38 349.621C1123.64 350.097 1124.02 350.501 1124.47 350.799Z"
        fill="white" />
    <path
        d="M1124.47 350.799C1125.28 351.26 1125.89 350.898 1125.89 349.768V343.196L1129.17 345.076V351.649C1129.17 354.677 1127.36 355.581 1124.46 353.927C1123.07 353.153 1121.9 352.034 1121.06 350.677C1120.22 349.321 1119.75 347.772 1119.68 346.179V339.607L1122.96 341.497V348.069C1122.97 348.613 1123.11 349.146 1123.38 349.621C1123.64 350.097 1124.02 350.501 1124.47 350.799Z"
        fill="url(#paint11_linear_1_1156)" />
    <path
        d="M1134.43 350.836C1134.06 350.628 1133.82 350.619 1133.82 350.962C1133.82 352.39 1138.93 354.452 1138.93 358.583C1138.93 361.114 1137.01 361.123 1134.78 359.84C1132.83 358.642 1131.14 357.05 1129.84 355.166L1131.05 353.032C1132.04 354.571 1133.32 355.909 1134.81 356.974C1135.29 357.254 1135.6 357.254 1135.6 356.847C1135.6 355.365 1130.48 353.394 1130.48 349.389C1130.48 347.111 1132.14 346.677 1134.71 348.124C1136.36 349.124 1137.82 350.42 1139 351.948L1137.82 354.135C1136.84 352.889 1135.7 351.78 1134.43 350.836Z"
        fill="white" />
    <path
        d="M1134.43 350.836C1134.06 350.628 1133.82 350.619 1133.82 350.962C1133.82 352.39 1138.93 354.452 1138.93 358.583C1138.93 361.114 1137.01 361.123 1134.78 359.84C1132.83 358.642 1131.14 357.05 1129.84 355.166L1131.05 353.032C1132.04 354.571 1133.32 355.909 1134.81 356.974C1135.29 357.254 1135.6 357.254 1135.6 356.847C1135.6 355.365 1130.48 353.394 1130.48 349.389C1130.48 347.111 1132.14 346.677 1134.71 348.124C1136.36 349.124 1137.82 350.42 1139 351.948L1137.82 354.135C1136.84 352.889 1135.7 351.78 1134.43 350.836Z"
        fill="url(#paint12_linear_1_1156)" />
    <path
        d="M1034.65 359.206C1038.32 354.701 1040.16 348.985 1039.82 343.185C1039.48 337.386 1036.98 331.924 1032.81 327.878C1028.65 323.831 1023.11 321.494 1017.31 321.328C1011.5 321.161 1005.84 323.177 1001.45 326.978C997.052 330.778 994.242 336.087 993.571 341.858C992.899 347.628 994.415 353.441 997.818 358.149C1001.22 362.857 1006.27 366.118 1011.96 367.29C1017.65 368.461 1023.57 367.457 1028.56 364.476L1039.87 369.394L1034.65 359.206Z"
        fill="white" />
    <path
        d="M1034.65 359.206C1038.32 354.701 1040.16 348.985 1039.82 343.185C1039.48 337.386 1036.98 331.924 1032.81 327.878C1028.65 323.831 1023.11 321.494 1017.31 321.328C1011.5 321.161 1005.84 323.177 1001.45 326.978C997.052 330.778 994.242 336.087 993.571 341.858C992.899 347.628 994.415 353.441 997.818 358.149C1001.22 362.857 1006.27 366.118 1011.96 367.29C1017.65 368.461 1023.57 367.457 1028.56 364.476L1039.87 369.394L1034.65 359.206Z"
        fill="url(#paint13_linear_1_1156)" />
    <path opacity="0.4"
        d="M1034.65 359.206C1038.32 354.701 1040.16 348.985 1039.82 343.185C1039.48 337.386 1036.98 331.924 1032.81 327.878C1028.65 323.831 1023.11 321.494 1017.31 321.328C1011.5 321.161 1005.84 323.177 1001.45 326.978C997.052 330.778 994.242 336.087 993.571 341.858C992.899 347.628 994.415 353.441 997.818 358.149C1001.22 362.857 1006.27 366.118 1011.96 367.29C1017.65 368.461 1023.57 367.457 1028.56 364.476L1039.87 369.394L1034.65 359.206Z"
        fill="#111111" />
    <path
        d="M1008.04 343.296C1008.04 342.943 1007.78 342.745 1007.32 342.745C1006.25 342.885 1005.25 343.356 1004.47 344.092L1003.18 341.596C1004.53 340.58 1006.17 340.005 1007.86 339.951C1010.03 339.951 1011.67 341.09 1011.67 342.79C1011.67 344.001 1010.77 345.167 1009.61 346.334L1007.99 347.934H1011.81V350.591H1003.6V348.413L1007.26 344.625C1007.65 344.276 1007.93 343.811 1008.04 343.296Z"
        fill="white" />
    <path
        d="M1018.5 340.105L1016.01 346.09H1017.03V344.074H1020.17V346.09H1021.37V348.558H1020.17V350.592H1017.03V348.558H1012.55V346.316L1015.27 340.105H1018.5Z"
        fill="white" />
    <path
        d="M1031.08 345.375V350.591H1027.72V346.342C1027.74 346.203 1027.73 346.063 1027.69 345.929C1027.65 345.795 1027.58 345.671 1027.49 345.565C1027.39 345.46 1027.28 345.375 1027.15 345.318C1027.03 345.26 1026.89 345.23 1026.75 345.23C1026.09 345.23 1025.67 345.745 1025.67 346.541V350.591H1022.31V339.507H1025.67V343.585C1025.94 343.169 1026.3 342.828 1026.74 342.597C1027.17 342.366 1027.66 342.251 1028.15 342.265C1028.55 342.254 1028.95 342.329 1029.33 342.484C1029.7 342.639 1030.03 342.871 1030.31 343.165C1030.59 343.458 1030.8 343.807 1030.93 344.188C1031.06 344.568 1031.11 344.973 1031.08 345.375Z"
        fill="white" />
    <path
        d="M1140.74 429.374V541.698C1140.74 542.969 1140.41 544.217 1139.77 545.318C1139.14 546.419 1138.23 547.333 1137.13 547.969C1136.03 548.605 1134.78 548.941 1133.51 548.941C1132.24 548.942 1130.99 548.607 1129.89 547.972L1069.39 513.041L1058.67 506.857C1054.98 504.723 1051.91 501.656 1049.78 497.965C1047.64 494.273 1046.51 490.086 1046.5 485.821V373.488C1046.5 372.218 1046.83 370.969 1047.47 369.868C1048.1 368.767 1049.01 367.853 1050.11 367.217C1051.21 366.581 1052.46 366.246 1053.73 366.245C1055 366.245 1056.25 366.579 1057.35 367.214L1128.59 408.338C1132.28 410.469 1135.35 413.535 1137.48 417.228C1139.61 420.921 1140.74 425.11 1140.74 429.374Z"
        fill="white" />
    <path
        d="M1140.74 429.374V541.698C1140.74 542.969 1140.41 544.217 1139.77 545.318C1139.14 546.419 1138.23 547.333 1137.13 547.969C1136.03 548.605 1134.78 548.941 1133.51 548.941C1132.24 548.942 1130.99 548.607 1129.89 547.972L1069.39 513.041L1058.67 506.857C1054.98 504.723 1051.91 501.656 1049.78 497.965C1047.64 494.273 1046.51 490.086 1046.5 485.821V373.488C1046.5 372.218 1046.83 370.969 1047.47 369.868C1048.1 368.767 1049.01 367.853 1050.11 367.217C1051.21 366.581 1052.46 366.246 1053.73 366.245C1055 366.245 1056.25 366.579 1057.35 367.214L1128.59 408.338C1132.28 410.469 1135.35 413.535 1137.48 417.228C1139.61 420.921 1140.74 425.11 1140.74 429.374Z"
        fill="url(#paint14_linear_1_1156)" />
    <path opacity="0.5"
        d="M1140.74 429.374V541.698C1140.74 542.969 1140.41 544.217 1139.77 545.318C1139.14 546.419 1138.23 547.333 1137.13 547.969C1136.03 548.605 1134.78 548.941 1133.51 548.941C1132.24 548.942 1130.99 548.607 1129.89 547.972L1069.39 513.041L1058.67 506.857C1054.98 504.723 1051.91 501.656 1049.78 497.965C1047.64 494.273 1046.51 490.086 1046.5 485.821V373.488C1046.5 372.218 1046.83 370.969 1047.47 369.868C1048.1 368.767 1049.01 367.853 1050.11 367.217C1051.21 366.581 1052.46 366.246 1053.73 366.245C1055 366.245 1056.25 366.579 1057.35 367.214L1128.59 408.338C1132.28 410.469 1135.35 413.535 1137.48 417.228C1139.61 420.921 1140.74 425.11 1140.74 429.374Z"
        fill="white" />
    <path
        d="M1105.89 495.838C1105.89 495.838 1117.22 514.624 1109.04 535.805L1069.37 513.042L1105.89 495.838Z"
        fill="#263238" />
    <path
        d="M1123.95 411.438C1124.81 404.476 1119.86 398.137 1112.9 397.279C1105.94 396.422 1099.6 401.371 1098.74 408.333C1097.88 415.295 1102.83 421.634 1109.79 422.492C1116.76 423.349 1123.09 418.4 1123.95 411.438Z"
        fill="#263238" />
    <path
        d="M1111.41 374.257C1111.41 374.257 1115.3 367.929 1116.5 368.39C1117.69 368.851 1115.72 374.881 1115.72 374.881C1115.72 374.881 1121.61 376.11 1120.52 377.593C1119.43 379.075 1112.22 378.723 1112.22 378.723L1111.41 374.257Z"
        fill="#263238" />
    <path
        d="M1114.12 390.565C1111.41 410.942 1094.23 410.942 1094.23 410.942L1058.25 395.104C1058.25 395.104 1055.54 392.726 1054.71 387.266C1054.39 385.029 1054.39 382.758 1054.71 380.522C1054.71 380.522 1054.71 380.477 1054.71 380.458C1055.86 371.888 1062.27 362.676 1076.23 359.847C1079.29 359.229 1082.4 358.926 1085.52 358.943C1087.03 358.938 1088.54 359.013 1090.04 359.169C1100.89 360.236 1108.49 365.298 1112.12 373.172C1112.93 374.949 1113.54 376.815 1113.92 378.732C1114.66 382.637 1114.73 386.638 1114.12 390.565Z"
        fill="#263238" />
    <path
        d="M1027.75 429.982C1027.75 429.982 1014.98 429.539 1010.06 441.987C1010.06 441.987 1015.48 445.649 1022.6 441.987C1029.71 438.326 1027.75 429.982 1027.75 429.982Z"
        fill="white" />
    <path
        d="M1027.75 429.982C1027.75 429.982 1014.98 429.539 1010.06 441.987C1010.06 441.987 1015.48 445.649 1022.6 441.987C1029.71 438.326 1027.75 429.982 1027.75 429.982Z"
        fill="url(#paint15_linear_1_1156)" />
    <path opacity="0.5"
        d="M1027.75 429.982C1027.75 429.982 1014.98 429.539 1010.06 441.987C1010.06 441.987 1015.48 445.649 1022.6 441.987C1029.71 438.326 1027.75 429.982 1027.75 429.982Z"
        fill="#111111" />
    <path
        d="M1027.38 435.974C1027.38 435.974 1023.77 420.262 1021.86 420.073C1019.95 419.883 1019.58 424.864 1019.74 427.675L1015.22 417.948C1015.07 417.646 1014.87 417.376 1014.62 417.156C1014.37 416.935 1014.07 416.769 1013.75 416.666C1013.43 416.564 1013.1 416.527 1012.77 416.56C1012.43 416.592 1012.11 416.692 1011.82 416.854C1007.3 419.34 999.368 426.898 1016.08 445.584L1027.38 435.974Z"
        fill="#F7D3B9" />
    <path
        d="M1073.67 425.11L1070.96 424.757C1068.22 424.395 1065.44 424.766 1062.9 425.834C1060.36 426.902 1058.15 428.627 1056.49 430.832L1040.36 452.311L1027.7 429.982C1027.7 429.982 1026.18 445.17 1010.01 441.987L1027.37 471.214C1028.47 473.065 1030 474.622 1031.83 475.754C1033.66 476.886 1035.74 477.559 1037.89 477.716C1040.03 477.874 1042.18 477.51 1044.16 476.656C1046.14 475.803 1047.88 474.485 1049.23 472.814L1064.1 454.544L1073.67 425.11Z"
        fill="white" />
    <path
        d="M1073.67 425.11L1070.96 424.757C1068.22 424.395 1065.44 424.766 1062.9 425.834C1060.36 426.902 1058.15 428.627 1056.49 430.832L1040.36 452.311L1027.7 429.982C1027.7 429.982 1026.18 445.17 1010.01 441.987L1027.37 471.214C1028.47 473.065 1030 474.622 1031.83 475.754C1033.66 476.886 1035.74 477.559 1037.89 477.716C1040.03 477.874 1042.18 477.51 1044.16 476.656C1046.14 475.803 1047.88 474.485 1049.23 472.814L1064.1 454.544L1073.67 425.11Z"
        fill="url(#paint16_linear_1_1156)" />
    <path
        d="M1108.11 475.236C1104.5 484.403 1104.1 486.193 1106.3 490.776C1107.84 494.162 1109.05 497.685 1109.92 501.299C1109.92 501.299 1093.16 520.085 1069.3 513.051L1058.58 506.868C1056.35 505.582 1054.34 503.946 1052.63 502.022L1055.9 477.686C1056.06 476.405 1055.93 475.104 1055.52 473.88L1052.09 463.837C1050.42 458.931 1050.17 453.653 1051.37 448.612C1052.58 443.571 1055.18 438.973 1058.89 435.351L1070.41 424.096L1100.65 427.965L1105.17 429.258C1108.13 430.114 1110.68 432.009 1112.36 434.595C1114.03 437.181 1114.72 440.284 1114.29 443.334C1112.8 454.001 1110.38 469.478 1108.11 475.236Z"
        fill="white" />
    <path
        d="M1108.11 475.236C1104.5 484.403 1104.1 486.193 1106.3 490.776C1107.84 494.162 1109.05 497.685 1109.92 501.299C1109.92 501.299 1093.16 520.085 1069.3 513.051L1058.58 506.868C1056.35 505.582 1054.34 503.946 1052.63 502.022L1055.9 477.686C1056.06 476.405 1055.93 475.104 1055.52 473.88L1052.09 463.837C1050.42 458.931 1050.17 453.653 1051.37 448.612C1052.58 443.571 1055.18 438.973 1058.89 435.351L1070.41 424.096L1100.65 427.965L1105.17 429.258C1108.13 430.114 1110.68 432.009 1112.36 434.595C1114.03 437.181 1114.72 440.284 1114.29 443.334C1112.8 454.001 1110.38 469.478 1108.11 475.236Z"
        fill="url(#paint17_linear_1_1156)" />
    <path opacity="0.5"
        d="M1108.11 475.236C1104.5 484.403 1104.1 486.193 1106.3 490.776C1107.84 494.162 1109.05 497.685 1109.92 501.299C1109.92 501.299 1093.16 520.085 1069.3 513.051L1058.58 506.868C1056.35 505.582 1054.34 503.946 1052.63 502.022L1055.9 477.686C1056.06 476.405 1055.93 475.104 1055.52 473.88L1052.09 463.837C1050.42 458.931 1050.17 453.653 1051.37 448.612C1052.58 443.571 1055.18 438.973 1058.89 435.351L1070.41 424.096L1100.65 427.965L1105.17 429.258C1108.13 430.114 1110.68 432.009 1112.36 434.595C1114.03 437.181 1114.72 440.284 1114.29 443.334C1112.8 454.001 1110.38 469.478 1108.11 475.236Z"
        fill="#111111" />
    <path
        d="M1089.87 447.853L1083.82 442.691C1083.17 442.142 1082.4 441.77 1081.57 441.611C1080.74 441.453 1079.89 441.513 1079.09 441.787L1071.76 444.309L1070.78 440.205C1070.63 439.566 1070.34 438.965 1069.95 438.439C1069.56 437.912 1069.06 437.47 1068.5 437.14C1067.93 436.809 1067.3 436.597 1066.65 436.517C1066 436.436 1065.34 436.488 1064.7 436.67L1061.53 437.574L1066.9 427.286C1068.65 423.936 1071.36 421.175 1074.67 419.349L1076.77 418.192L1094.18 419.096C1094.18 419.096 1100.66 421.808 1100.66 427.91L1089.87 447.798"
        fill="white" />
    <path
        d="M1089.87 447.853L1083.82 442.691C1083.17 442.142 1082.4 441.77 1081.57 441.611C1080.74 441.453 1079.89 441.513 1079.09 441.787L1071.76 444.309L1070.78 440.205C1070.63 439.566 1070.34 438.965 1069.95 438.439C1069.56 437.912 1069.06 437.47 1068.5 437.14C1067.93 436.809 1067.3 436.597 1066.65 436.517C1066 436.436 1065.34 436.488 1064.7 436.67L1061.53 437.574L1066.9 427.286C1068.65 423.936 1071.36 421.175 1074.67 419.349L1076.77 418.192L1094.18 419.096C1094.18 419.096 1100.66 421.808 1100.66 427.91L1089.87 447.798"
        fill="url(#paint18_linear_1_1156)" />
    <path d="M1094.25 426.808L1076.8 440.404V397.111H1094.25V426.808Z" fill="#F7D3B9" />
    <path d="M1077.07 423.237L1071.76 444.346L1094.17 426.808L1077.07 423.237Z" fill="#F7D3B9" />
    <path
        d="M1076.8 420.1C1080.68 418.66 1084.22 416.446 1087.22 413.592C1090.22 410.739 1092.61 407.306 1094.24 403.503V397.111H1076.79L1076.8 420.1Z"
        fill="#DAAA87" />
    <path
        d="M1080.56 365.027C1073.94 365.027 1059.87 368.716 1058.25 386.037C1056.62 403.358 1058.19 416.773 1067.12 418.075C1076.06 419.377 1096.81 412.895 1099.6 390.475C1102.38 368.056 1087 365.027 1080.56 365.027Z"
        fill="#F7D3B9" />
    <path d="M1070.15 393.369V403.575L1064.16 401.74L1070.15 393.369Z" fill="#DAAA87" />
    <path
        d="M1076.8 397.21C1077.95 397.21 1078.88 396.279 1078.88 395.131C1078.88 393.983 1077.95 393.052 1076.8 393.052C1075.65 393.052 1074.72 393.983 1074.72 395.131C1074.72 396.279 1075.65 397.21 1076.8 397.21Z"
        fill="#263238" />
    <path
        d="M1065.19 393.684C1065.19 394.095 1065.06 394.496 1064.83 394.837C1064.6 395.178 1064.28 395.443 1063.9 395.599C1063.52 395.755 1063.1 395.795 1062.7 395.713C1062.29 395.632 1061.92 395.433 1061.64 395.142C1061.35 394.851 1061.15 394.481 1061.07 394.078C1060.99 393.675 1061.03 393.257 1061.19 392.878C1061.35 392.498 1061.61 392.174 1061.95 391.946C1062.3 391.718 1062.7 391.596 1063.11 391.596C1063.38 391.596 1063.65 391.65 1063.91 391.755C1064.16 391.86 1064.39 392.014 1064.58 392.208C1064.78 392.402 1064.93 392.633 1065.03 392.886C1065.14 393.139 1065.19 393.411 1065.19 393.684Z"
        fill="#263238" />
    <path
        d="M1060.57 389.346L1064.64 386.932C1064.64 386.932 1063.08 385.314 1061.53 386.281C1059.97 387.249 1060.57 389.346 1060.57 389.346Z"
        fill="#263238" />
    <path
        d="M1067.33 407.716C1069.32 407.861 1071.29 407.332 1072.93 406.215C1072.93 406.215 1073.32 409.171 1070.84 409.732C1068.36 410.292 1067.33 407.716 1067.33 407.716Z"
        fill="#DAAA87" />
    <path
        d="M1063.78 370.922C1063.78 370.922 1066.26 394.833 1098.78 395.584C1098.78 395.584 1108.61 371.817 1089.19 364.097C1069.77 356.376 1063.78 370.922 1063.78 370.922Z"
        fill="#263238" />
    <path
        d="M1108.35 392.003L1104.36 389.689C1102.84 388.785 1100.74 388.912 1098.42 390.25C1093.81 392.907 1090.07 399.389 1090.07 404.714C1090.07 407.381 1090.97 409.234 1092.52 410.138L1096.45 412.398L1096.67 412.525L1096.81 412.606C1098.29 413.329 1100.27 413.157 1102.45 411.901C1107.06 409.189 1110.8 402.761 1110.8 397.437C1110.78 394.743 1109.85 392.88 1108.35 392.003Z"
        fill="white" />
    <path
        d="M1108.35 392.003L1104.36 389.689C1102.84 388.785 1100.74 388.912 1098.42 390.25C1093.81 392.907 1090.07 399.389 1090.07 404.714C1090.07 407.381 1090.97 409.234 1092.52 410.138L1096.45 412.398L1096.67 412.525L1096.81 412.606C1098.29 413.329 1100.27 413.157 1102.45 411.901C1107.06 409.189 1110.8 402.761 1110.8 397.437C1110.78 394.743 1109.85 392.88 1108.35 392.003Z"
        fill="url(#paint19_linear_1_1156)" />
    <path
        d="M1108.32 405.62C1111.58 399.973 1111.58 393.869 1108.32 391.987C1105.06 390.105 1099.78 393.157 1096.52 398.804C1093.26 404.451 1093.26 410.554 1096.52 412.437C1099.78 414.319 1105.06 411.267 1108.32 405.62Z"
        fill="white" />
    <path
        d="M1108.32 405.62C1111.58 399.973 1111.58 393.869 1108.32 391.987C1105.06 390.105 1099.78 393.157 1096.52 398.804C1093.26 404.451 1093.26 410.554 1096.52 412.437C1099.78 414.319 1105.06 411.267 1108.32 405.62Z"
        fill="url(#paint20_linear_1_1156)" />
    <path opacity="0.5"
        d="M1108.32 405.62C1111.58 399.973 1111.58 393.869 1108.32 391.987C1105.06 390.105 1099.78 393.157 1096.52 398.804C1093.26 404.451 1093.26 410.554 1096.52 412.437C1099.78 414.319 1105.06 411.267 1108.32 405.62Z"
        fill="#111111" />
    <path
        d="M1109.95 397.021L1107.24 395.439C1106.21 394.824 1104.77 394.906 1103.18 395.819C1101.52 396.905 1100.14 398.367 1099.15 400.087C1098.15 401.806 1097.58 403.735 1097.47 405.718C1097.47 407.526 1098.11 408.819 1099.15 409.415L1101.86 410.961C1101.91 410.996 1101.96 411.026 1102.02 411.051L1102.11 411.106C1102.74 411.347 1103.43 411.428 1104.1 411.343C1104.78 411.258 1105.42 411.009 1105.98 410.618C1107.64 409.532 1109.02 408.072 1110.01 406.354C1111 404.636 1111.58 402.709 1111.69 400.728C1111.62 398.892 1110.98 397.618 1109.95 397.021Z"
        fill="white" />
    <path
        d="M1109.95 397.021L1107.24 395.439C1106.21 394.824 1104.77 394.906 1103.18 395.819C1101.52 396.905 1100.14 398.367 1099.15 400.087C1098.15 401.806 1097.58 403.735 1097.47 405.718C1097.47 407.526 1098.11 408.819 1099.15 409.415L1101.86 410.961C1101.91 410.996 1101.96 411.026 1102.02 411.051L1102.11 411.106C1102.74 411.347 1103.43 411.428 1104.1 411.343C1104.78 411.258 1105.42 411.009 1105.98 410.618C1107.64 409.532 1109.02 408.072 1110.01 406.354C1111 404.636 1111.58 402.709 1111.69 400.728C1111.62 398.892 1110.98 397.618 1109.95 397.021Z"
        fill="url(#paint21_linear_1_1156)" />
    <path
        d="M1111.62 400.71C1111.51 402.691 1110.93 404.618 1109.94 406.336C1108.95 408.054 1107.57 409.515 1105.91 410.6C1102.74 412.408 1100.18 410.944 1100.18 407.3C1100.29 405.318 1100.86 403.388 1101.86 401.67C1102.85 399.951 1104.24 398.491 1105.91 397.41C1109.06 395.584 1111.62 397.058 1111.62 400.71Z"
        fill="white" />
    <path
        d="M1111.62 400.71C1111.51 402.691 1110.93 404.618 1109.94 406.336C1108.95 408.054 1107.57 409.515 1105.91 410.6C1102.74 412.408 1100.18 410.944 1100.18 407.3C1100.29 405.318 1100.86 403.388 1101.86 401.67C1102.85 399.951 1104.24 398.491 1105.91 397.41C1109.06 395.584 1111.62 397.058 1111.62 400.71Z"
        fill="url(#paint22_linear_1_1156)" />
    <path opacity="0.3"
        d="M1111.62 400.71C1111.51 402.691 1110.93 404.618 1109.94 406.336C1108.95 408.054 1107.57 409.515 1105.91 410.6C1102.74 412.408 1100.18 410.944 1100.18 407.3C1100.29 405.318 1100.86 403.388 1101.86 401.67C1102.85 399.951 1104.24 398.491 1105.91 397.41C1109.06 395.584 1111.62 397.058 1111.62 400.71Z"
        fill="#111111" />
    <path
        d="M1095.95 360.363C1093.35 358.361 1090.18 357.26 1086.91 357.226H1086.1C1082.78 357.19 1079.47 357.493 1076.22 358.13C1076.82 358.13 1077.41 358.13 1078.03 358.13H1076.22V359.811H1077.9C1083.7 360.008 1089.19 362.451 1093.21 366.623C1097.24 370.795 1099.49 376.369 1099.48 382.168V389.282C1099.48 389.563 1099.54 389.842 1099.65 390.099C1099.77 390.356 1099.93 390.586 1100.14 390.774C1100.35 390.963 1100.6 391.105 1100.87 391.192C1101.13 391.279 1101.42 391.309 1101.69 391.28H1101.9L1103.71 390.72C1103.59 390.758 1103.47 390.782 1103.34 390.792C1103.88 390.719 1104.37 390.45 1104.73 390.036C1105.08 389.623 1105.27 389.094 1105.26 388.55V381.951C1105.24 370.009 1100.08 363.59 1095.95 360.363Z"
        fill="white" />
    <path
        d="M1095.95 360.363C1093.35 358.361 1090.18 357.26 1086.91 357.226H1086.1C1082.78 357.19 1079.47 357.493 1076.22 358.13C1076.82 358.13 1077.41 358.13 1078.03 358.13H1076.22V359.811H1077.9C1083.7 360.008 1089.19 362.451 1093.21 366.623C1097.24 370.795 1099.49 376.369 1099.48 382.168V389.282C1099.48 389.563 1099.54 389.842 1099.65 390.099C1099.77 390.356 1099.93 390.586 1100.14 390.774C1100.35 390.963 1100.6 391.105 1100.87 391.192C1101.13 391.279 1101.42 391.309 1101.69 391.28H1101.9L1103.71 390.72C1103.59 390.758 1103.47 390.782 1103.34 390.792C1103.88 390.719 1104.37 390.45 1104.73 390.036C1105.08 389.623 1105.27 389.094 1105.26 388.55V381.951C1105.24 370.009 1100.08 363.59 1095.95 360.363Z"
        fill="url(#paint23_linear_1_1156)" />
    <path
        d="M1084.56 417.578C1083.81 417.578 1083.08 417.418 1082.4 417.108L1076.75 414.496C1076.66 414.464 1076.58 414.415 1076.51 414.35C1076.44 414.286 1076.39 414.208 1076.35 414.121C1076.32 414.035 1076.3 413.942 1076.3 413.848C1076.3 413.754 1076.32 413.661 1076.36 413.576C1076.4 413.491 1076.46 413.414 1076.53 413.352C1076.6 413.289 1076.68 413.242 1076.77 413.213C1076.86 413.184 1076.95 413.173 1077.04 413.183C1077.14 413.192 1077.23 413.22 1077.31 413.266L1082.96 415.879C1083.68 416.214 1084.49 416.316 1085.27 416.17C1086.05 416.024 1086.77 415.638 1087.32 415.065L1092.74 409.46C1092.87 409.333 1093.04 409.262 1093.22 409.262C1093.4 409.262 1093.57 409.333 1093.7 409.46C1093.82 409.589 1093.89 409.761 1093.89 409.94C1093.89 410.118 1093.82 410.29 1093.7 410.419L1088.28 416.024C1087.79 416.519 1087.21 416.913 1086.58 417.18C1085.94 417.447 1085.25 417.583 1084.56 417.578Z"
        fill="white" />
    <path
        d="M1084.56 417.578C1083.81 417.578 1083.08 417.418 1082.4 417.108L1076.75 414.496C1076.66 414.464 1076.58 414.415 1076.51 414.35C1076.44 414.286 1076.39 414.208 1076.35 414.121C1076.32 414.035 1076.3 413.942 1076.3 413.848C1076.3 413.754 1076.32 413.661 1076.36 413.576C1076.4 413.491 1076.46 413.414 1076.53 413.352C1076.6 413.289 1076.68 413.242 1076.77 413.213C1076.86 413.184 1076.95 413.173 1077.04 413.183C1077.14 413.192 1077.23 413.22 1077.31 413.266L1082.96 415.879C1083.68 416.214 1084.49 416.316 1085.27 416.17C1086.05 416.024 1086.77 415.638 1087.32 415.065L1092.74 409.46C1092.87 409.333 1093.04 409.262 1093.22 409.262C1093.4 409.262 1093.57 409.333 1093.7 409.46C1093.82 409.589 1093.89 409.761 1093.89 409.94C1093.89 410.118 1093.82 410.29 1093.7 410.419L1088.28 416.024C1087.79 416.519 1087.21 416.913 1086.58 417.18C1085.94 417.447 1085.25 417.583 1084.56 417.578Z"
        fill="url(#paint24_linear_1_1156)" />
    <path opacity="0.5"
        d="M1084.56 417.578C1083.81 417.578 1083.08 417.418 1082.4 417.108L1076.75 414.496C1076.66 414.464 1076.58 414.415 1076.51 414.35C1076.44 414.286 1076.39 414.208 1076.35 414.121C1076.32 414.035 1076.3 413.942 1076.3 413.848C1076.3 413.754 1076.32 413.661 1076.36 413.576C1076.4 413.491 1076.46 413.414 1076.53 413.352C1076.6 413.289 1076.68 413.242 1076.77 413.213C1076.86 413.184 1076.95 413.173 1077.04 413.183C1077.14 413.192 1077.23 413.22 1077.31 413.266L1082.96 415.879C1083.68 416.214 1084.49 416.316 1085.27 416.17C1086.05 416.024 1086.77 415.638 1087.32 415.065L1092.74 409.46C1092.87 409.333 1093.04 409.262 1093.22 409.262C1093.4 409.262 1093.57 409.333 1093.7 409.46C1093.82 409.589 1093.89 409.761 1093.89 409.94C1093.89 410.118 1093.82 410.29 1093.7 410.419L1088.28 416.024C1087.79 416.519 1087.21 416.913 1086.58 417.18C1085.94 417.447 1085.25 417.583 1084.56 417.578Z"
        fill="#111111" />
    <path
        d="M1078.23 412.597C1078.23 413.119 1078.08 413.629 1077.79 414.064C1077.5 414.498 1077.08 414.836 1076.6 415.036C1076.12 415.236 1075.59 415.288 1075.08 415.186C1074.56 415.084 1074.09 414.833 1073.72 414.464C1073.36 414.094 1073.1 413.624 1073 413.112C1072.9 412.6 1072.95 412.069 1073.15 411.587C1073.35 411.104 1073.69 410.692 1074.12 410.402C1074.56 410.112 1075.07 409.957 1075.59 409.957C1076.29 409.957 1076.96 410.235 1077.46 410.73C1077.95 411.225 1078.23 411.897 1078.23 412.597Z"
        fill="white" />
    <path
        d="M1078.23 412.597C1078.23 413.119 1078.08 413.629 1077.79 414.064C1077.5 414.498 1077.08 414.836 1076.6 415.036C1076.12 415.236 1075.59 415.288 1075.08 415.186C1074.56 415.084 1074.09 414.833 1073.72 414.464C1073.36 414.094 1073.1 413.624 1073 413.112C1072.9 412.6 1072.95 412.069 1073.15 411.587C1073.35 411.104 1073.69 410.692 1074.12 410.402C1074.56 410.112 1075.07 409.957 1075.59 409.957C1076.29 409.957 1076.96 410.235 1077.46 410.73C1077.95 411.225 1078.23 411.897 1078.23 412.597Z"
        fill="url(#paint25_linear_1_1156)" />
    <path opacity="0.5"
        d="M1078.23 412.597C1078.23 413.119 1078.08 413.629 1077.79 414.064C1077.5 414.498 1077.08 414.836 1076.6 415.036C1076.12 415.236 1075.59 415.288 1075.08 415.186C1074.56 415.084 1074.09 414.833 1073.72 414.464C1073.36 414.094 1073.1 413.624 1073 413.112C1072.9 412.6 1072.95 412.069 1073.15 411.587C1073.35 411.104 1073.69 410.692 1074.12 410.402C1074.56 410.112 1075.07 409.957 1075.59 409.957C1076.29 409.957 1076.96 410.235 1077.46 410.73C1077.95 411.225 1078.23 411.897 1078.23 412.597Z"
        fill="#111111" />
    <path
        d="M1105.24 381.95V388.55C1105.25 389.094 1105.06 389.623 1104.71 390.036C1104.35 390.45 1103.86 390.719 1103.32 390.792C1103.02 390.823 1102.72 390.792 1102.44 390.7C1102.15 390.607 1101.89 390.456 1101.67 390.256C1101.45 390.055 1101.27 389.81 1101.15 389.537C1101.02 389.263 1100.96 388.967 1100.96 388.667V381.95C1100.97 378.745 1100.32 375.571 1099.07 372.621C1097.82 369.67 1095.98 367.004 1093.67 364.782C1091.36 362.56 1088.62 360.828 1085.63 359.691C1082.63 358.554 1079.43 358.035 1076.23 358.166C1079.48 357.529 1082.79 357.226 1086.11 357.262H1086.9C1090.17 357.296 1093.34 358.397 1095.94 360.399C1100.08 363.59 1105.24 370.008 1105.24 381.95Z"
        fill="white" />
    <path
        d="M1105.24 381.95V388.55C1105.25 389.094 1105.06 389.623 1104.71 390.036C1104.35 390.45 1103.86 390.719 1103.32 390.792C1103.02 390.823 1102.72 390.792 1102.44 390.7C1102.15 390.607 1101.89 390.456 1101.67 390.256C1101.45 390.055 1101.27 389.81 1101.15 389.537C1101.02 389.263 1100.96 388.967 1100.96 388.667V381.95C1100.97 378.745 1100.32 375.571 1099.07 372.621C1097.82 369.67 1095.98 367.004 1093.67 364.782C1091.36 362.56 1088.62 360.828 1085.63 359.691C1082.63 358.554 1079.43 358.035 1076.23 358.166C1079.48 357.529 1082.79 357.226 1086.11 357.262H1086.9C1090.17 357.296 1093.34 358.397 1095.94 360.399C1100.08 363.59 1105.24 370.008 1105.24 381.95Z"
        fill="url(#paint26_linear_1_1156)" />
    <path opacity="0.5"
        d="M1105.24 381.95V388.55C1105.25 389.094 1105.06 389.623 1104.71 390.036C1104.35 390.45 1103.86 390.719 1103.32 390.792C1103.02 390.823 1102.72 390.792 1102.44 390.7C1102.15 390.607 1101.89 390.456 1101.67 390.256C1101.45 390.055 1101.27 389.81 1101.15 389.537C1101.02 389.263 1100.96 388.967 1100.96 388.667V381.95C1100.97 378.745 1100.32 375.571 1099.07 372.621C1097.82 369.67 1095.98 367.004 1093.67 364.782C1091.36 362.56 1088.62 360.828 1085.63 359.691C1082.63 358.554 1079.43 358.035 1076.23 358.166C1079.48 357.529 1082.79 357.226 1086.11 357.262H1086.9C1090.17 357.296 1093.34 358.397 1095.94 360.399C1100.08 363.59 1105.24 370.008 1105.24 381.95Z"
        fill="#111111" />
    <path
        d="M1095.07 506.316C1095.07 506.316 1090.7 518.367 1106.34 523.791C1106.34 523.791 1111.44 516.288 1106.34 510.149C1101.23 504.011 1095.07 506.316 1095.07 506.316Z"
        fill="white" />
    <path
        d="M1095.07 506.316C1095.07 506.316 1090.7 518.367 1106.34 523.791C1106.34 523.791 1111.44 516.288 1106.34 510.149C1101.23 504.011 1095.07 506.316 1095.07 506.316Z"
        fill="url(#paint27_linear_1_1156)" />
    <path opacity="0.7"
        d="M1095.07 506.316C1095.07 506.316 1090.7 518.367 1106.34 523.791C1106.34 523.791 1111.44 516.288 1106.34 510.149C1101.23 504.011 1095.07 506.316 1095.07 506.316Z"
        fill="#111111" />
    <path
        d="M1100.56 506.867C1100.56 506.867 1085.28 512.463 1085.36 514.633C1085.44 516.803 1091.85 515.32 1091.85 515.32L1089.51 516.857C1087.05 518.466 1085.14 520.795 1084.04 523.528C1083.81 524.131 1083.8 524.801 1084.02 525.409C1084.24 526.018 1084.68 526.523 1085.25 526.828L1091.06 529.902C1091.39 530.076 1091.75 530.182 1092.12 530.215C1092.48 530.247 1092.86 530.205 1093.21 530.092C1093.56 529.978 1093.89 529.794 1094.17 529.552C1094.45 529.31 1094.68 529.014 1094.85 528.681C1095.17 528.042 1095.62 527.473 1096.16 527.008C1096.71 526.542 1097.34 526.189 1098.02 525.969C1101.17 524.921 1107.06 521.901 1109.42 513.638L1100.56 506.867Z"
        fill="#F7D3B9" />
    <path
        d="M1105.15 429.24C1105.15 429.24 1097.01 433.76 1101.33 447.483C1105.65 461.205 1113.76 482.495 1113.76 482.495L1095.08 506.316C1097.07 506.557 1099 507.216 1100.72 508.25C1102.45 509.284 1103.93 510.671 1105.08 512.318C1106.19 513.994 1106.88 515.908 1107.1 517.903C1107.32 519.898 1107.06 521.916 1106.34 523.79L1129.54 493.958C1131.68 491.201 1133.11 487.953 1133.68 484.507C1134.26 481.062 1133.96 477.527 1132.83 474.223L1122.88 445.186C1121.67 441.639 1119.65 438.422 1116.98 435.785C1114.32 433.149 1111.08 431.165 1107.52 429.99L1105.15 429.24Z"
        fill="white" />
    <path
        d="M1105.15 429.24C1105.15 429.24 1097.01 433.76 1101.33 447.483C1105.65 461.205 1113.76 482.495 1113.76 482.495L1095.08 506.316C1097.07 506.557 1099 507.216 1100.72 508.25C1102.45 509.284 1103.93 510.671 1105.08 512.318C1106.19 513.994 1106.88 515.908 1107.1 517.903C1107.32 519.898 1107.06 521.916 1106.34 523.79L1129.54 493.958C1131.68 491.201 1133.11 487.953 1133.68 484.507C1134.26 481.062 1133.96 477.527 1132.83 474.223L1122.88 445.186C1121.67 441.639 1119.65 438.422 1116.98 435.785C1114.32 433.149 1111.08 431.165 1107.52 429.99L1105.15 429.24Z"
        fill="url(#paint28_linear_1_1156)" />
    <path
        d="M967.812 348.176L931.859 327.384C931.446 327.097 930.967 326.918 930.467 326.863C929.966 326.807 929.46 326.878 928.994 327.067C928.895 327.113 928.802 327.167 928.714 327.23L920.894 331.813H920.948C919.963 332.374 919.339 333.676 919.339 335.538V375.531C919.339 378.913 921.391 382.845 923.931 384.309L959.884 405.102C960.34 405.432 960.883 405.62 961.446 405.645C962.008 405.669 962.565 405.527 963.048 405.237C963.024 405.247 963.002 405.263 962.985 405.283L970.75 400.763C971.763 400.22 972.405 398.9 972.405 397.011V356.954C972.405 353.573 970.389 349.641 967.812 348.176Z"
        fill="white" />
    <path
        d="M967.812 348.176L931.859 327.384C931.446 327.097 930.967 326.918 930.467 326.863C929.966 326.807 929.46 326.878 928.994 327.067C928.895 327.113 928.802 327.167 928.714 327.23L920.894 331.813H920.948C919.963 332.374 919.339 333.676 919.339 335.538V375.531C919.339 378.913 921.391 382.845 923.931 384.309L959.884 405.102C960.34 405.432 960.883 405.62 961.446 405.645C962.008 405.669 962.565 405.527 963.048 405.237C963.024 405.247 963.002 405.263 962.985 405.283L970.75 400.763C971.763 400.22 972.405 398.9 972.405 397.011V356.954C972.405 353.573 970.389 349.641 967.812 348.176Z"
        fill="url(#paint29_linear_1_1156)" />
    <path
        d="M971.118 351.963C970.39 350.417 969.244 349.104 967.809 348.176L931.856 327.383C931.443 327.097 930.964 326.917 930.464 326.862C929.963 326.807 929.457 326.877 928.991 327.067C928.892 327.112 928.798 327.167 928.71 327.23L920.891 331.813C921.369 331.568 921.905 331.46 922.441 331.5C922.977 331.54 923.491 331.726 923.928 332.039L959.881 352.831C961.365 353.802 962.541 355.175 963.271 356.791L971.118 351.963Z"
        fill="white" />
    <path
        d="M971.118 351.963C970.39 350.417 969.244 349.104 967.809 348.176L931.856 327.383C931.443 327.097 930.964 326.917 930.464 326.862C929.963 326.807 929.457 326.877 928.991 327.067C928.892 327.112 928.798 327.167 928.71 327.23L920.891 331.813C921.369 331.568 921.905 331.46 922.441 331.5C922.977 331.54 923.491 331.726 923.928 332.039L959.881 352.831C961.365 353.802 962.541 355.175 963.271 356.791L971.118 351.963Z"
        fill="url(#paint30_linear_1_1156)" />
    <path
        d="M964.478 401.586C964.478 403.394 963.899 404.65 962.986 405.202L970.752 400.682C971.764 400.139 972.406 398.82 972.406 396.93V356.955C972.368 355.215 971.929 353.507 971.122 351.964L963.276 356.792C964.029 358.289 964.44 359.935 964.478 361.61V401.586Z"
        fill="white" />
    <path
        d="M964.478 401.586C964.478 403.394 963.899 404.65 962.986 405.202L970.752 400.682C971.764 400.139 972.406 398.82 972.406 396.93V356.955C972.368 355.215 971.929 353.507 971.122 351.964L963.276 356.792C964.029 358.289 964.44 359.935 964.478 361.61V401.586Z"
        fill="url(#paint31_linear_1_1156)" />
    <path opacity="0.3"
        d="M971.118 351.963C970.39 350.417 969.244 349.104 967.809 348.176L931.856 327.383C931.443 327.097 930.964 326.917 930.464 326.862C929.963 326.807 929.457 326.877 928.991 327.067C928.892 327.112 928.798 327.167 928.71 327.23L920.891 331.813C921.369 331.568 921.905 331.46 922.441 331.5C922.977 331.54 923.491 331.726 923.928 332.039L959.881 352.831C961.365 353.802 962.541 355.175 963.271 356.791L971.118 351.963Z"
        fill="#111111" />
    <path opacity="0.6"
        d="M964.478 401.586C964.478 403.394 963.899 404.65 962.986 405.202L970.752 400.682C971.764 400.139 972.406 398.82 972.406 396.93V356.955C972.368 355.215 971.929 353.507 971.122 351.964L963.276 356.792C964.029 358.289 964.44 359.935 964.478 361.61V401.586Z"
        fill="#111111" />
    <path
        d="M953.931 373.064C953.931 378.244 951.879 380.007 948.805 378.226C947.957 377.743 947.216 377.094 946.626 376.317C946.035 375.54 945.608 374.652 945.37 373.706C944.466 374.818 943.065 374.89 941.094 373.751C937.858 371.88 935.308 367.423 935.308 363.093C935.308 358.763 937.83 357.271 941.094 359.151C942.75 360.127 944.088 361.562 944.945 363.283V361.574L948.353 363.545V372.91C948.302 373.403 948.388 373.901 948.6 374.348C948.812 374.796 949.142 375.177 949.556 375.451C950.704 376.12 951.409 374.99 951.409 371.636C951.409 365.769 947.648 359.549 942.088 356.34C936.529 353.13 932.777 355.363 932.777 361.402C932.85 364.607 933.733 367.74 935.344 370.511C936.954 373.282 939.241 375.601 941.989 377.25C943.481 378.169 945.176 378.709 946.925 378.823L947.729 381.941C945.693 381.777 943.725 381.129 941.989 380.052C934.757 375.866 929.975 367.441 929.975 359.811C929.975 352.181 934.802 349.415 942.088 353.628C949.131 357.687 953.931 365.814 953.931 373.064ZM944.999 368.716C945.017 367.569 944.737 366.438 944.187 365.432C943.638 364.426 942.837 363.58 941.862 362.975C940.054 361.918 938.762 362.659 938.762 365.118C938.738 366.266 939.012 367.401 939.555 368.413C940.098 369.424 940.893 370.279 941.862 370.894C943.67 371.916 944.999 371.256 944.999 368.716Z"
        fill="white" />
    <path
        d="M953.931 373.064C953.931 378.244 951.879 380.007 948.805 378.226C947.957 377.743 947.216 377.094 946.626 376.317C946.035 375.54 945.608 374.652 945.37 373.706C944.466 374.818 943.065 374.89 941.094 373.751C937.858 371.88 935.308 367.423 935.308 363.093C935.308 358.763 937.83 357.271 941.094 359.151C942.75 360.127 944.088 361.562 944.945 363.283V361.574L948.353 363.545V372.91C948.302 373.403 948.388 373.901 948.6 374.348C948.812 374.796 949.142 375.177 949.556 375.451C950.704 376.12 951.409 374.99 951.409 371.636C951.409 365.769 947.648 359.549 942.088 356.34C936.529 353.13 932.777 355.363 932.777 361.402C932.85 364.607 933.733 367.74 935.344 370.511C936.954 373.282 939.241 375.601 941.989 377.25C943.481 378.169 945.176 378.709 946.925 378.823L947.729 381.941C945.693 381.777 943.725 381.129 941.989 380.052C934.757 375.866 929.975 367.441 929.975 359.811C929.975 352.181 934.802 349.415 942.088 353.628C949.131 357.687 953.931 365.814 953.931 373.064ZM944.999 368.716C945.017 367.569 944.737 366.438 944.187 365.432C943.638 364.426 942.837 363.58 941.862 362.975C940.054 361.918 938.762 362.659 938.762 365.118C938.738 366.266 939.012 367.401 939.555 368.413C940.098 369.424 940.893 370.279 941.862 370.894C943.67 371.916 944.999 371.256 944.999 368.716Z"
        fill="url(#paint32_linear_1_1156)" />
    <g opacity="0.9">
        <path
            d="M953.935 373.064C953.935 378.244 951.883 380.007 948.809 378.226C947.961 377.743 947.22 377.094 946.629 376.317C946.039 375.54 945.612 374.652 945.374 373.706C944.47 374.818 943.069 374.89 941.098 373.751C937.862 371.88 935.312 367.423 935.312 363.092C935.312 358.762 937.834 357.271 941.098 359.151C942.754 360.127 944.092 361.562 944.949 363.282V361.574L948.357 363.545V372.91C948.306 373.403 948.392 373.9 948.604 374.348C948.816 374.796 949.146 375.177 949.559 375.45C950.708 376.119 951.413 374.989 951.413 371.635C951.413 365.768 947.652 359.549 942.092 356.339C936.533 353.13 932.781 355.363 932.781 361.402C932.854 364.606 933.737 367.74 935.348 370.511C936.958 373.282 939.244 375.6 941.993 377.249C943.485 378.169 945.18 378.709 946.929 378.822L947.733 381.941C945.697 381.777 943.729 381.129 941.993 380.052C934.761 375.866 929.979 367.441 929.979 359.811C929.979 352.181 934.806 349.415 942.092 353.627C949.135 357.686 953.935 365.814 953.935 373.064ZM945.003 368.715C945.021 367.569 944.741 366.438 944.191 365.432C943.642 364.426 942.841 363.579 941.866 362.975C940.058 361.917 938.766 362.659 938.766 365.117C938.742 366.266 939.015 367.4 939.559 368.412C940.102 369.424 940.897 370.279 941.866 370.894C943.674 371.916 945.003 371.256 945.003 368.715Z"
            fill="white" />
    </g>
    <path
        d="M967.812 419.394L931.859 398.602C931.446 398.313 930.967 398.134 930.466 398.08C929.965 398.027 929.459 398.1 928.994 398.294C928.895 398.34 928.802 398.394 928.714 398.457L920.894 403.04H920.948C919.963 403.601 919.339 404.903 919.339 406.756V446.732C919.339 450.122 921.391 454.045 923.931 455.509L959.884 476.302C960.339 476.634 960.882 476.824 961.445 476.848C962.008 476.872 962.566 476.729 963.048 476.437L962.985 476.492L970.75 471.926C971.763 471.393 972.405 470.118 972.405 468.175V428.163C972.405 424.782 970.389 420.859 967.812 419.394Z"
        fill="white" />
    <path
        d="M967.812 419.394L931.859 398.602C931.446 398.313 930.967 398.134 930.466 398.08C929.965 398.027 929.459 398.1 928.994 398.294C928.895 398.34 928.802 398.394 928.714 398.457L920.894 403.04H920.948C919.963 403.601 919.339 404.903 919.339 406.756V446.732C919.339 450.122 921.391 454.045 923.931 455.509L959.884 476.302C960.339 476.634 960.882 476.824 961.445 476.848C962.008 476.872 962.566 476.729 963.048 476.437L962.985 476.492L970.75 471.926C971.763 471.393 972.405 470.118 972.405 468.175V428.163C972.405 424.782 970.389 420.859 967.812 419.394Z"
        fill="url(#paint33_linear_1_1156)" />
    <path
        d="M971.118 423.182C970.393 421.633 969.246 420.32 967.809 419.394L931.856 398.602C931.443 398.313 930.964 398.134 930.463 398.08C929.962 398.026 929.456 398.1 928.991 398.294C928.892 398.34 928.798 398.394 928.71 398.457L920.891 403.04C921.368 402.794 921.904 402.683 922.44 402.721C922.976 402.76 923.491 402.945 923.928 403.257L959.881 424.05C961.367 425.021 962.544 426.398 963.271 428.018L971.118 423.182Z"
        fill="white" />
    <path
        d="M971.118 423.182C970.393 421.633 969.246 420.32 967.809 419.394L931.856 398.602C931.443 398.313 930.964 398.134 930.463 398.08C929.962 398.026 929.456 398.1 928.991 398.294C928.892 398.34 928.798 398.394 928.71 398.457L920.891 403.04C921.368 402.794 921.904 402.683 922.44 402.721C922.976 402.76 923.491 402.945 923.928 403.257L959.881 424.05C961.367 425.021 962.544 426.398 963.271 428.018L971.118 423.182Z"
        fill="url(#paint34_linear_1_1156)" />
    <path
        d="M964.478 472.795C964.478 474.603 963.899 475.859 962.986 476.456L970.752 471.891C971.764 471.357 972.406 470.083 972.406 468.139V428.163C972.368 426.426 971.929 424.722 971.122 423.182L963.276 428.01C964.029 429.504 964.44 431.147 964.478 432.819V472.795Z"
        fill="white" />
    <path
        d="M964.478 472.795C964.478 474.603 963.899 475.859 962.986 476.456L970.752 471.891C971.764 471.357 972.406 470.083 972.406 468.139V428.163C972.368 426.426 971.929 424.722 971.122 423.182L963.276 428.01C964.029 429.504 964.44 431.147 964.478 432.819V472.795Z"
        fill="url(#paint35_linear_1_1156)" />
    <path opacity="0.3"
        d="M971.118 423.182C970.393 421.633 969.246 420.32 967.809 419.394L931.856 398.602C931.443 398.313 930.964 398.134 930.463 398.08C929.962 398.026 929.456 398.1 928.991 398.294C928.892 398.34 928.798 398.394 928.71 398.457L920.891 403.04C921.368 402.794 921.904 402.683 922.44 402.721C922.976 402.76 923.491 402.945 923.928 403.257L959.881 424.05C961.367 425.021 962.544 426.398 963.271 428.018L971.118 423.182Z"
        fill="#111111" />
    <path opacity="0.6"
        d="M964.478 472.795C964.478 474.603 963.899 475.859 962.986 476.456L970.752 471.891C971.764 471.357 972.406 470.083 972.406 468.139V428.163C972.368 426.426 971.929 424.722 971.122 423.182L963.276 428.01C964.029 429.504 964.44 431.147 964.478 432.819V472.795Z"
        fill="#111111" />
    <path d="M937.893 437.267L929.224 423.182V442.266L937.893 437.267Z" fill="white" />
    <path d="M937.893 437.267L929.224 423.182V442.266L937.893 437.267Z"
        fill="url(#paint36_linear_1_1156)" />
    <path d="M945.944 441.326L954.596 456.306V437.249L945.944 441.326Z" fill="white" />
    <path d="M945.944 441.326L954.596 456.306V437.249L945.944 441.326Z"
        fill="url(#paint37_linear_1_1156)" />
    <path
        d="M930.534 422.541L939.439 437.006C939.476 437.037 939.51 437.074 939.538 437.114C939.546 437.15 939.546 437.187 939.538 437.222L942.187 441.526L944.429 440.468C944.464 440.43 944.503 440.397 944.546 440.368C944.635 440.317 944.734 440.286 944.836 440.278L953.876 436.038L930.534 422.541Z"
        fill="white" />
    <path
        d="M930.534 422.541L939.439 437.006C939.476 437.037 939.51 437.074 939.538 437.114C939.546 437.15 939.546 437.187 939.538 437.222L942.187 441.526L944.429 440.468C944.464 440.43 944.503 440.397 944.546 440.368C944.635 440.317 944.734 440.286 944.836 440.278L953.876 436.038L930.534 422.541Z"
        fill="url(#paint38_linear_1_1156)" />
    <path
        d="M944.629 441.94L942.206 443.079C942.113 443.123 942.011 443.144 941.908 443.143C941.783 443.144 941.66 443.113 941.551 443.053C941.441 442.993 941.349 442.905 941.284 442.799L938.635 438.496L929.938 443.522L953.343 457.028L944.629 441.94Z"
        fill="white" />
    <path
        d="M944.629 441.94L942.206 443.079C942.113 443.123 942.011 443.144 941.908 443.143C941.783 443.144 941.66 443.113 941.551 443.053C941.441 442.993 941.349 442.905 941.284 442.799L938.635 438.496L929.938 443.522L953.343 457.028L944.629 441.94Z"
        fill="url(#paint39_linear_1_1156)" />
    <g opacity="0.9">
        <path d="M937.891 437.268L929.222 423.184V442.267L937.891 437.268Z" fill="white" />
        <path d="M945.947 441.327L954.599 456.306V437.25L945.947 441.327Z" fill="white" />
        <path
            d="M930.534 422.541L939.439 437.006C939.476 437.037 939.51 437.074 939.538 437.114C939.546 437.15 939.546 437.187 939.538 437.222L942.187 441.526L944.429 440.468C944.464 440.43 944.503 440.397 944.546 440.368C944.635 440.317 944.734 440.286 944.836 440.278L953.876 436.038L930.534 422.541Z"
            fill="white" />
        <path
            d="M944.635 441.941L942.212 443.08C942.118 443.124 942.016 443.146 941.913 443.144C941.789 443.145 941.666 443.114 941.556 443.054C941.447 442.994 941.355 442.906 941.29 442.8L938.641 438.497L929.944 443.523L953.349 457.029L944.635 441.941Z"
            fill="white" />
    </g>
    <path
        d="M967.812 276.994L931.859 256.202C931.446 255.913 930.967 255.734 930.466 255.68C929.965 255.626 929.459 255.7 928.994 255.894C928.895 255.94 928.802 255.994 928.714 256.057L920.894 260.64H920.948C919.963 261.192 919.339 262.503 919.339 264.356V304.331C919.339 307.712 921.391 311.645 923.931 313.109L959.884 333.902C960.339 334.234 960.882 334.424 961.445 334.448C962.008 334.472 962.566 334.329 963.048 334.037L962.985 334.082L970.75 329.562C971.763 329.029 972.405 327.754 972.405 325.811V285.736C972.405 282.355 970.389 278.422 967.812 276.994Z"
        fill="white" />
    <path
        d="M967.812 276.994L931.859 256.202C931.446 255.913 930.967 255.734 930.466 255.68C929.965 255.626 929.459 255.7 928.994 255.894C928.895 255.94 928.802 255.994 928.714 256.057L920.894 260.64H920.948C919.963 261.192 919.339 262.503 919.339 264.356V304.331C919.339 307.712 921.391 311.645 923.931 313.109L959.884 333.902C960.339 334.234 960.882 334.424 961.445 334.448C962.008 334.472 962.566 334.329 963.048 334.037L962.985 334.082L970.75 329.562C971.763 329.029 972.405 327.754 972.405 325.811V285.736C972.405 282.355 970.389 278.422 967.812 276.994Z"
        fill="url(#paint40_linear_1_1156)" />
    <path
        d="M971.118 280.755C970.393 279.204 969.246 277.888 967.809 276.958L931.856 256.202C931.443 255.913 930.964 255.734 930.463 255.68C929.962 255.626 929.456 255.7 928.991 255.894C928.892 255.94 928.798 255.994 928.71 256.057L920.891 260.64C921.368 260.394 921.904 260.283 922.44 260.321C922.976 260.36 923.491 260.545 923.928 260.857L959.881 281.65C961.367 282.621 962.544 283.998 963.271 285.618L971.118 280.755Z"
        fill="white" />
    <path
        d="M971.118 280.755C970.393 279.204 969.246 277.888 967.809 276.958L931.856 256.202C931.443 255.913 930.964 255.734 930.463 255.68C929.962 255.626 929.456 255.7 928.991 255.894C928.892 255.94 928.798 255.994 928.71 256.057L920.891 260.64C921.368 260.394 921.904 260.283 922.44 260.321C922.976 260.36 923.491 260.545 923.928 260.857L959.881 281.65C961.367 282.621 962.544 283.998 963.271 285.618L971.118 280.755Z"
        fill="url(#paint41_linear_1_1156)" />
    <path
        d="M964.478 330.33C964.478 332.138 963.899 333.395 962.986 333.946L970.752 329.426C971.764 328.893 972.406 327.618 972.406 325.674V285.735C972.368 283.998 971.929 282.293 971.122 280.754L963.276 285.581C964.029 287.075 964.44 288.718 964.478 290.391V330.33Z"
        fill="white" />
    <path
        d="M964.478 330.33C964.478 332.138 963.899 333.395 962.986 333.946L970.752 329.426C971.764 328.893 972.406 327.618 972.406 325.674V285.735C972.368 283.998 971.929 282.293 971.122 280.754L963.276 285.581C964.029 287.075 964.44 288.718 964.478 290.391V330.33Z"
        fill="url(#paint42_linear_1_1156)" />
    <path opacity="0.3"
        d="M971.118 280.755C970.393 279.204 969.246 277.888 967.809 276.958L931.856 256.202C931.443 255.913 930.964 255.734 930.463 255.68C929.962 255.626 929.456 255.7 928.991 255.894C928.892 255.94 928.798 255.994 928.71 256.057L920.891 260.64C921.368 260.394 921.904 260.283 922.44 260.321C922.976 260.36 923.491 260.545 923.928 260.857L959.881 281.65C961.367 282.621 962.544 283.998 963.271 285.618L971.118 280.755Z"
        fill="#111111" />
    <path opacity="0.6"
        d="M964.478 330.33C964.478 332.138 963.899 333.395 962.986 333.946L970.752 329.426C971.764 328.893 972.406 327.618 972.406 325.674V285.735C972.368 283.998 971.929 282.293 971.122 280.754L963.276 285.581C964.029 287.075 964.44 288.718 964.478 290.391V330.33Z"
        fill="#111111" />
    <path
        d="M952.713 313.155C951.33 310.877 949.938 308.635 948.555 306.338C948.335 305.904 948.028 305.519 947.654 305.207C947.279 304.896 946.844 304.666 946.376 304.53C945.707 304.395 945.038 304.241 944.351 304.042C944.106 303.94 943.9 303.763 943.763 303.536C941.5 299.662 939.701 295.536 938.402 291.241C938.375 291.15 938.367 291.053 938.379 290.958C938.392 290.863 938.424 290.772 938.475 290.69C938.9 290.265 939.379 289.876 939.813 289.497C940.247 289.117 940.473 288.24 940.156 287.101C939.487 284.687 938.845 282.274 938.176 279.869C938.047 279.186 937.74 278.549 937.286 278.022C936.832 277.495 936.248 277.097 935.591 276.868C934.133 276.462 932.585 276.519 931.161 277.03C930.61 277.238 930.321 277.735 930.312 278.594C930.547 280.249 930.7 281.885 931.017 283.566C933.247 295.692 938.61 306.842 947.108 317.015C947.33 317.352 947.628 317.633 947.978 317.834C948.328 318.035 948.721 318.151 949.124 318.172C950.531 318.139 951.883 317.618 952.948 316.698C953.753 315.975 953.671 314.692 952.713 313.155Z"
        fill="white" />
    <path
        d="M952.713 313.155C951.33 310.877 949.938 308.635 948.555 306.338C948.335 305.904 948.028 305.519 947.654 305.207C947.279 304.896 946.844 304.666 946.376 304.53C945.707 304.395 945.038 304.241 944.351 304.042C944.106 303.94 943.9 303.763 943.763 303.536C941.5 299.662 939.701 295.536 938.402 291.241C938.375 291.15 938.367 291.053 938.379 290.958C938.392 290.863 938.424 290.772 938.475 290.69C938.9 290.265 939.379 289.876 939.813 289.497C940.247 289.117 940.473 288.24 940.156 287.101C939.487 284.687 938.845 282.274 938.176 279.869C938.047 279.186 937.74 278.549 937.286 278.022C936.832 277.495 936.248 277.097 935.591 276.868C934.133 276.462 932.585 276.519 931.161 277.03C930.61 277.238 930.321 277.735 930.312 278.594C930.547 280.249 930.7 281.885 931.017 283.566C933.247 295.692 938.61 306.842 947.108 317.015C947.33 317.352 947.628 317.633 947.978 317.834C948.328 318.035 948.721 318.151 949.124 318.172C950.531 318.139 951.883 317.618 952.948 316.698C953.753 315.975 953.671 314.692 952.713 313.155Z"
        fill="url(#paint43_linear_1_1156)" />
    <path
        d="M952.606 300.833C952.417 298.233 951.701 295.699 950.5 293.384C949.604 291.576 948.463 289.9 947.11 288.403C946.757 288.005 946.459 287.879 946.278 288.177C946.098 288.475 946.278 288.9 946.622 289.289L946.974 289.696C949.473 292.58 951.048 296.149 951.494 299.938C951.49 300.215 951.517 300.491 951.576 300.761C951.689 301.072 951.872 301.353 952.109 301.584C952.299 301.719 952.516 301.584 952.67 301.584C952.615 301.213 952.625 301.023 952.606 300.833Z"
        fill="white" />
    <path
        d="M952.606 300.833C952.417 298.233 951.701 295.699 950.5 293.384C949.604 291.576 948.463 289.9 947.11 288.403C946.757 288.005 946.459 287.879 946.278 288.177C946.098 288.475 946.278 288.9 946.622 289.289L946.974 289.696C949.473 292.58 951.048 296.149 951.494 299.938C951.49 300.215 951.517 300.491 951.576 300.761C951.689 301.072 951.872 301.353 952.109 301.584C952.299 301.719 952.516 301.584 952.67 301.584C952.615 301.213 952.625 301.023 952.606 300.833Z"
        fill="url(#paint44_linear_1_1156)" />
    <path
        d="M944.417 293.41C945.552 294.659 946.242 296.248 946.378 297.93C946.438 298.186 946.532 298.432 946.659 298.663C947.21 299.115 947.481 298.961 947.481 298.391C947.288 296.235 946.396 294.2 944.941 292.597C944.598 292.244 944.317 292.136 944.155 292.434C944.096 292.604 944.09 292.788 944.136 292.962C944.183 293.136 944.281 293.292 944.417 293.41Z"
        fill="white" />
    <path
        d="M944.417 293.41C945.552 294.659 946.242 296.248 946.378 297.93C946.438 298.186 946.532 298.432 946.659 298.663C947.21 299.115 947.481 298.961 947.481 298.391C947.288 296.235 946.396 294.2 944.941 292.597C944.598 292.244 944.317 292.136 944.155 292.434C944.096 292.604 944.09 292.788 944.136 292.962C944.183 293.136 944.281 293.292 944.417 293.41Z"
        fill="url(#paint45_linear_1_1156)" />
    <g opacity="0.9">
        <path
            d="M952.716 313.155C951.333 310.877 949.941 308.635 948.557 306.339C948.338 305.904 948.031 305.519 947.657 305.208C947.282 304.897 946.847 304.666 946.379 304.531C945.71 304.395 945.041 304.242 944.354 304.043C944.109 303.941 943.903 303.763 943.766 303.537C941.503 299.663 939.704 295.536 938.405 291.242C938.378 291.15 938.37 291.053 938.382 290.958C938.395 290.863 938.427 290.772 938.478 290.69C938.903 290.266 939.382 289.877 939.816 289.497C940.25 289.117 940.476 288.241 940.159 287.102C939.49 284.688 938.848 282.274 938.179 279.869C938.05 279.186 937.743 278.549 937.289 278.022C936.835 277.495 936.25 277.097 935.594 276.868C934.136 276.463 932.588 276.52 931.164 277.031C930.613 277.239 930.323 277.736 930.314 278.595C930.549 280.249 930.703 281.885 931.02 283.567C933.249 295.693 938.613 306.842 947.111 317.015C947.333 317.353 947.631 317.633 947.981 317.834C948.331 318.035 948.724 318.151 949.127 318.173C950.534 318.139 951.885 317.618 952.951 316.699C953.756 315.976 953.674 314.692 952.716 313.155Z"
            fill="white" />
        <path
            d="M952.609 300.834C952.42 298.234 951.704 295.699 950.503 293.385C949.607 291.577 948.466 289.901 947.113 288.404C946.76 288.006 946.462 287.879 946.281 288.178C946.1 288.476 946.281 288.901 946.625 289.29L946.977 289.696C949.476 292.581 951.051 296.149 951.497 299.939C951.493 300.215 951.52 300.491 951.579 300.762C951.692 301.072 951.875 301.354 952.112 301.584C952.302 301.72 952.519 301.584 952.673 301.584C952.618 301.214 952.627 301.024 952.609 300.834Z"
            fill="white" />
        <path
            d="M944.417 293.411C945.552 294.66 946.242 296.249 946.378 297.932C946.438 298.187 946.532 298.434 946.659 298.664C947.21 299.116 947.481 298.962 947.481 298.393C947.288 296.236 946.396 294.201 944.941 292.598C944.598 292.245 944.317 292.137 944.155 292.435C944.096 292.605 944.09 292.789 944.136 292.963C944.183 293.137 944.281 293.293 944.417 293.411Z"
            fill="white" />
    </g>
    <path
        d="M1170.92 229.633L1179.39 234.452V231.45C1179.39 231.242 1179.39 231.026 1179.39 230.818C1179.39 230.61 1179.39 230.411 1179.39 230.212V230.103C1179.7 226.135 1182.71 224.607 1186.38 226.731C1188.04 227.753 1189.47 229.119 1190.56 230.736C1191.38 225.312 1195.78 223.396 1201.11 226.46C1207.02 229.877 1211.81 238.212 1211.81 245.011V251.429C1211.8 251.943 1211.93 252.449 1212.18 252.898C1212.43 253.347 1212.79 253.723 1213.23 253.987L1218.22 256.907C1219.3 257.546 1220.19 258.453 1220.81 259.54C1221.43 260.627 1221.76 261.857 1221.77 263.109C1221.77 263.628 1221.63 264.139 1221.37 264.589C1221.11 265.038 1220.74 265.412 1220.29 265.671C1219.84 265.93 1219.32 266.067 1218.81 266.066C1218.29 266.065 1217.78 265.928 1217.33 265.667L1171.05 238.918C1169.82 238.205 1168.8 237.183 1168.09 235.954C1167.38 234.725 1167.01 233.331 1167 231.911C1167 231.452 1167.12 231 1167.35 230.602C1167.58 230.204 1167.91 229.873 1168.31 229.642C1168.7 229.411 1169.15 229.289 1169.61 229.287C1170.07 229.286 1170.52 229.405 1170.92 229.633Z"
        fill="white" />
    <path
        d="M1245.85 206.346L1252 209.881V207.675C1252 207.522 1252 207.368 1252 207.214C1252 207.061 1252 206.916 1252 206.771V206.717C1252.23 203.833 1254.42 202.721 1257.08 204.267C1258.29 205.007 1259.33 205.997 1260.12 207.169C1260.73 203.246 1263.93 201.826 1267.8 204.059C1272.1 206.545 1275.58 212.584 1275.58 217.547V222.221C1275.58 222.587 1275.68 222.947 1275.87 223.264C1276.05 223.58 1276.31 223.844 1276.63 224.029L1280.25 226.153C1281.03 226.616 1281.68 227.277 1282.14 228.07C1282.59 228.863 1282.82 229.761 1282.82 230.674C1282.82 231.047 1282.72 231.415 1282.54 231.739C1282.35 232.064 1282.08 232.334 1281.76 232.524C1281.44 232.714 1281.07 232.816 1280.7 232.821C1280.33 232.827 1279.96 232.735 1279.63 232.554L1245.94 213.099C1245.05 212.583 1244.3 211.841 1243.79 210.948C1243.27 210.054 1243 209.041 1243 208.01C1243 207.676 1243.09 207.348 1243.25 207.058C1243.42 206.769 1243.66 206.527 1243.95 206.359C1244.23 206.191 1244.56 206.101 1244.89 206.099C1245.23 206.096 1245.56 206.182 1245.85 206.346Z"
        fill="white" />
    <defs>
        <linearGradient id="paint0_linear_1_1156" x1="1467" y1="54.7083" x2="300.474" y2="312.542"
            gradientUnits="userSpaceOnUse">
            <stop stop-color="#FCFF68" stop-opacity="0.31" />
            <stop offset="0.359375" stop-color="#A5E06A" stop-opacity="0.79" />
            <stop offset="0.625" stop-color="#3EBB6C" stop-opacity="0.87" />
            <stop offset="1" stop-color="#0A8241" />
        </linearGradient>
        <linearGradient id="paint1_linear_1_1156" x1="1221.24" y1="483.202" x2="1195.5" y2="484.078"
            gradientUnits="userSpaceOnUse">
            <stop stop-color="#0A8241" />
            <stop offset="0.416667" stop-color="#3EBB6C" stop-opacity="0.87" />
            <stop offset="0.692708" stop-color="#A5E06A" stop-opacity="0.79" />
            <stop offset="1" stop-color="#FCFF68" stop-opacity="0.31" />
        </linearGradient>
        <linearGradient id="paint2_linear_1_1156" x1="1242.8" y1="503.943" x2="1199.84" y2="507.022"
            gradientUnits="userSpaceOnUse">
            <stop stop-color="#0A8241" />
            <stop offset="0.416667" stop-color="#3EBB6C" stop-opacity="0.87" />
            <stop offset="0.692708" stop-color="#A5E06A" stop-opacity="0.79" />
            <stop offset="1" stop-color="#FCFF68" stop-opacity="0.31" />
        </linearGradient>
        <linearGradient id="paint3_linear_1_1156" x1="1157.52" y1="291.152" x2="1019.6" y2="296.788"
            gradientUnits="userSpaceOnUse">
            <stop stop-color="#0A8241" />
            <stop offset="0.416667" stop-color="#3EBB6C" stop-opacity="0.87" />
            <stop offset="0.692708" stop-color="#A5E06A" stop-opacity="0.79" />
            <stop offset="1" stop-color="#FCFF68" stop-opacity="0.31" />
        </linearGradient>
        <linearGradient id="paint4_linear_1_1156" x1="1055.21" y1="300.588" x2="1045.2" y2="301.363"
            gradientUnits="userSpaceOnUse">
            <stop stop-color="#0A8241" />
            <stop offset="0.416667" stop-color="#3EBB6C" stop-opacity="0.87" />
            <stop offset="0.692708" stop-color="#A5E06A" stop-opacity="0.79" />
            <stop offset="1" stop-color="#FCFF68" stop-opacity="0.31" />
        </linearGradient>
        <linearGradient id="paint5_linear_1_1156" x1="1066.09" y1="306.069" x2="1054.69"
            y2="307.052" gradientUnits="userSpaceOnUse">
            <stop stop-color="#0A8241" />
            <stop offset="0.416667" stop-color="#3EBB6C" stop-opacity="0.87" />
            <stop offset="0.692708" stop-color="#A5E06A" stop-opacity="0.79" />
            <stop offset="1" stop-color="#FCFF68" stop-opacity="0.31" />
        </linearGradient>
        <linearGradient id="paint6_linear_1_1156" x1="1076.6" y1="311.216" x2="1066.5" y2="311.827"
            gradientUnits="userSpaceOnUse">
            <stop stop-color="#0A8241" />
            <stop offset="0.416667" stop-color="#3EBB6C" stop-opacity="0.87" />
            <stop offset="0.692708" stop-color="#A5E06A" stop-opacity="0.79" />
            <stop offset="1" stop-color="#FCFF68" stop-opacity="0.31" />
        </linearGradient>
        <linearGradient id="paint7_linear_1_1156" x1="1086.26" y1="316.957" x2="1076.89"
            y2="317.554" gradientUnits="userSpaceOnUse">
            <stop stop-color="#0A8241" />
            <stop offset="0.416667" stop-color="#3EBB6C" stop-opacity="0.87" />
            <stop offset="0.692708" stop-color="#A5E06A" stop-opacity="0.79" />
            <stop offset="1" stop-color="#FCFF68" stop-opacity="0.31" />
        </linearGradient>
        <linearGradient id="paint8_linear_1_1156" x1="1096.6" y1="323.89" x2="1084.47" y2="324.847"
            gradientUnits="userSpaceOnUse">
            <stop stop-color="#0A8241" />
            <stop offset="0.416667" stop-color="#3EBB6C" stop-opacity="0.87" />
            <stop offset="0.692708" stop-color="#A5E06A" stop-opacity="0.79" />
            <stop offset="1" stop-color="#FCFF68" stop-opacity="0.31" />
        </linearGradient>
        <linearGradient id="paint9_linear_1_1156" x1="1105.91" y1="329.851" x2="1095.89"
            y2="330.628" gradientUnits="userSpaceOnUse">
            <stop stop-color="#0A8241" />
            <stop offset="0.416667" stop-color="#3EBB6C" stop-opacity="0.87" />
            <stop offset="0.692708" stop-color="#A5E06A" stop-opacity="0.79" />
            <stop offset="1" stop-color="#FCFF68" stop-opacity="0.31" />
        </linearGradient>
        <linearGradient id="paint10_linear_1_1156" x1="1114.83" y1="333.473" x2="1105.46"
            y2="334.071" gradientUnits="userSpaceOnUse">
            <stop stop-color="#0A8241" />
            <stop offset="0.416667" stop-color="#3EBB6C" stop-opacity="0.87" />
            <stop offset="0.692708" stop-color="#A5E06A" stop-opacity="0.79" />
            <stop offset="1" stop-color="#FCFF68" stop-opacity="0.31" />
        </linearGradient>
        <linearGradient id="paint11_linear_1_1156" x1="1129.17" y1="341.41" x2="1119.17"
            y2="342.081" gradientUnits="userSpaceOnUse">
            <stop stop-color="#0A8241" />
            <stop offset="0.416667" stop-color="#3EBB6C" stop-opacity="0.87" />
            <stop offset="0.692708" stop-color="#A5E06A" stop-opacity="0.79" />
            <stop offset="1" stop-color="#FCFF68" stop-opacity="0.31" />
        </linearGradient>
        <linearGradient id="paint12_linear_1_1156" x1="1139" y1="348.883" x2="1129.35" y2="349.59"
            gradientUnits="userSpaceOnUse">
            <stop stop-color="#0A8241" />
            <stop offset="0.416667" stop-color="#3EBB6C" stop-opacity="0.87" />
            <stop offset="0.692708" stop-color="#A5E06A" stop-opacity="0.79" />
            <stop offset="1" stop-color="#FCFF68" stop-opacity="0.31" />
        </linearGradient>
        <linearGradient id="paint13_linear_1_1156" x1="1039.87" y1="327.045" x2="991.223"
            y2="332.079" gradientUnits="userSpaceOnUse">
            <stop stop-color="#0A8241" />
            <stop offset="0.416667" stop-color="#3EBB6C" stop-opacity="0.87" />
            <stop offset="0.692708" stop-color="#A5E06A" stop-opacity="0.79" />
            <stop offset="1" stop-color="#FCFF68" stop-opacity="0.31" />
        </linearGradient>
        <linearGradient id="paint14_linear_1_1156" x1="1140.74" y1="388.008" x2="1041.3" y2="393.5"
            gradientUnits="userSpaceOnUse">
            <stop stop-color="#0A8241" />
            <stop offset="0.416667" stop-color="#3EBB6C" stop-opacity="0.87" />
            <stop offset="0.692708" stop-color="#A5E06A" stop-opacity="0.79" />
            <stop offset="1" stop-color="#FCFF68" stop-opacity="0.31" />
        </linearGradient>
        <linearGradient id="paint15_linear_1_1156" x1="1028" y1="431.604" x2="1009.38" y2="434.227"
            gradientUnits="userSpaceOnUse">
            <stop stop-color="#0A8241" />
            <stop offset="0.416667" stop-color="#3EBB6C" stop-opacity="0.87" />
            <stop offset="0.692708" stop-color="#A5E06A" stop-opacity="0.79" />
            <stop offset="1" stop-color="#FCFF68" stop-opacity="0.31" />
        </linearGradient>
        <linearGradient id="paint16_linear_1_1156" x1="1073.67" y1="430.951" x2="1007.38"
            y2="439.455" gradientUnits="userSpaceOnUse">
            <stop stop-color="#0A8241" />
            <stop offset="0.416667" stop-color="#3EBB6C" stop-opacity="0.87" />
            <stop offset="0.692708" stop-color="#A5E06A" stop-opacity="0.79" />
            <stop offset="1" stop-color="#FCFF68" stop-opacity="0.31" />
        </linearGradient>
        <linearGradient id="paint17_linear_1_1156" x1="1114.41" y1="434.881" x2="1047.28"
            y2="439.945" gradientUnits="userSpaceOnUse">
            <stop stop-color="#0A8241" />
            <stop offset="0.416667" stop-color="#3EBB6C" stop-opacity="0.87" />
            <stop offset="0.692708" stop-color="#A5E06A" stop-opacity="0.79" />
            <stop offset="1" stop-color="#FCFF68" stop-opacity="0.31" />
        </linearGradient>
        <linearGradient id="paint18_linear_1_1156" x1="1100.66" y1="421.725" x2="1060.06"
            y2="427.46" gradientUnits="userSpaceOnUse">
            <stop stop-color="#0A8241" />
            <stop offset="0.416667" stop-color="#3EBB6C" stop-opacity="0.87" />
            <stop offset="0.692708" stop-color="#A5E06A" stop-opacity="0.79" />
            <stop offset="1" stop-color="#FCFF68" stop-opacity="0.31" />
        </linearGradient>
        <linearGradient id="paint19_linear_1_1156" x1="1110.8" y1="391.959" x2="1089.04"
            y2="393.979" gradientUnits="userSpaceOnUse">
            <stop stop-color="#0A8241" />
            <stop offset="0.416667" stop-color="#3EBB6C" stop-opacity="0.87" />
            <stop offset="0.692708" stop-color="#A5E06A" stop-opacity="0.79" />
            <stop offset="1" stop-color="#FCFF68" stop-opacity="0.31" />
        </linearGradient>
        <linearGradient id="paint20_linear_1_1156" x1="1103.83" y1="389.391" x2="1095.63"
            y2="412.555" gradientUnits="userSpaceOnUse">
            <stop stop-color="#0A8241" />
            <stop offset="0.416667" stop-color="#3EBB6C" stop-opacity="0.87" />
            <stop offset="0.692708" stop-color="#A5E06A" stop-opacity="0.79" />
            <stop offset="1" stop-color="#FCFF68" stop-opacity="0.31" />
        </linearGradient>
        <linearGradient id="paint21_linear_1_1156" x1="1111.69" y1="396.989" x2="1096.77"
            y2="398.38" gradientUnits="userSpaceOnUse">
            <stop stop-color="#0A8241" />
            <stop offset="0.416667" stop-color="#3EBB6C" stop-opacity="0.87" />
            <stop offset="0.692708" stop-color="#A5E06A" stop-opacity="0.79" />
            <stop offset="1" stop-color="#FCFF68" stop-opacity="0.31" />
        </linearGradient>
        <linearGradient id="paint22_linear_1_1156" x1="1111.62" y1="398.384" x2="1099.6"
            y2="399.382" gradientUnits="userSpaceOnUse">
            <stop stop-color="#0A8241" />
            <stop offset="0.416667" stop-color="#3EBB6C" stop-opacity="0.87" />
            <stop offset="0.692708" stop-color="#A5E06A" stop-opacity="0.79" />
            <stop offset="1" stop-color="#FCFF68" stop-opacity="0.31" />
        </linearGradient>
        <linearGradient id="paint23_linear_1_1156" x1="1105.26" y1="361.281" x2="1074.78"
            y2="364.063" gradientUnits="userSpaceOnUse">
            <stop stop-color="#0A8241" />
            <stop offset="0.416667" stop-color="#3EBB6C" stop-opacity="0.87" />
            <stop offset="0.692708" stop-color="#A5E06A" stop-opacity="0.79" />
            <stop offset="1" stop-color="#FCFF68" stop-opacity="0.31" />
        </linearGradient>
        <linearGradient id="paint24_linear_1_1156" x1="1093.89" y1="410.253" x2="1076.18"
            y2="414.265" gradientUnits="userSpaceOnUse">
            <stop stop-color="#0A8241" />
            <stop offset="0.416667" stop-color="#3EBB6C" stop-opacity="0.87" />
            <stop offset="0.692708" stop-color="#A5E06A" stop-opacity="0.79" />
            <stop offset="1" stop-color="#FCFF68" stop-opacity="0.31" />
        </linearGradient>
        <linearGradient id="paint25_linear_1_1156" x1="1078.23" y1="410.586" x2="1072.71"
            y2="411.178" gradientUnits="userSpaceOnUse">
            <stop stop-color="#0A8241" />
            <stop offset="0.416667" stop-color="#3EBB6C" stop-opacity="0.87" />
            <stop offset="0.692708" stop-color="#A5E06A" stop-opacity="0.79" />
            <stop offset="1" stop-color="#FCFF68" stop-opacity="0.31" />
        </linearGradient>
        <linearGradient id="paint26_linear_1_1156" x1="1105.24" y1="361.255" x2="1074.8"
            y2="364.074" gradientUnits="userSpaceOnUse">
            <stop stop-color="#0A8241" />
            <stop offset="0.416667" stop-color="#3EBB6C" stop-opacity="0.87" />
            <stop offset="0.692708" stop-color="#A5E06A" stop-opacity="0.79" />
            <stop offset="1" stop-color="#FCFF68" stop-opacity="0.31" />
        </linearGradient>
        <linearGradient id="paint27_linear_1_1156" x1="1108.61" y1="508.024" x2="1093.79"
            y2="509.274" gradientUnits="userSpaceOnUse">
            <stop stop-color="#0A8241" />
            <stop offset="0.416667" stop-color="#3EBB6C" stop-opacity="0.87" />
            <stop offset="0.692708" stop-color="#A5E06A" stop-opacity="0.79" />
            <stop offset="1" stop-color="#FCFF68" stop-opacity="0.31" />
        </linearGradient>
        <linearGradient id="paint28_linear_1_1156" x1="1133.97" y1="440.503" x2="1092.89"
            y2="442.312" gradientUnits="userSpaceOnUse">
            <stop stop-color="#0A8241" />
            <stop offset="0.416667" stop-color="#3EBB6C" stop-opacity="0.87" />
            <stop offset="0.692708" stop-color="#A5E06A" stop-opacity="0.79" />
            <stop offset="1" stop-color="#FCFF68" stop-opacity="0.31" />
        </linearGradient>
        <linearGradient id="paint29_linear_1_1156" x1="972.405" y1="336.231" x2="916.53" y2="340.26"
            gradientUnits="userSpaceOnUse">
            <stop stop-color="#0A8241" />
            <stop offset="0.416667" stop-color="#3EBB6C" stop-opacity="0.87" />
            <stop offset="0.692708" stop-color="#A5E06A" stop-opacity="0.79" />
            <stop offset="1" stop-color="#FCFF68" stop-opacity="0.31" />
        </linearGradient>
        <linearGradient id="paint30_linear_1_1156" x1="971.118" y1="330.411" x2="919.618"
            y2="339.66" gradientUnits="userSpaceOnUse">
            <stop stop-color="#0A8241" />
            <stop offset="0.416667" stop-color="#3EBB6C" stop-opacity="0.87" />
            <stop offset="0.692708" stop-color="#A5E06A" stop-opacity="0.79" />
            <stop offset="1" stop-color="#FCFF68" stop-opacity="0.31" />
        </linearGradient>
        <linearGradient id="paint31_linear_1_1156" x1="972.406" y1="358.306" x2="962.44"
            y2="358.495" gradientUnits="userSpaceOnUse">
            <stop stop-color="#0A8241" />
            <stop offset="0.416667" stop-color="#3EBB6C" stop-opacity="0.87" />
            <stop offset="0.692708" stop-color="#A5E06A" stop-opacity="0.79" />
            <stop offset="1" stop-color="#FCFF68" stop-opacity="0.31" />
        </linearGradient>
        <linearGradient id="paint32_linear_1_1156" x1="953.931" y1="355.265" x2="928.756"
            y2="357.398" gradientUnits="userSpaceOnUse">
            <stop stop-color="#0A8241" />
            <stop offset="0.416667" stop-color="#3EBB6C" stop-opacity="0.87" />
            <stop offset="0.692708" stop-color="#A5E06A" stop-opacity="0.79" />
            <stop offset="1" stop-color="#FCFF68" stop-opacity="0.31" />
        </linearGradient>
        <linearGradient id="paint33_linear_1_1156" x1="972.405" y1="407.449" x2="916.53"
            y2="411.478" gradientUnits="userSpaceOnUse">
            <stop stop-color="#0A8241" />
            <stop offset="0.416667" stop-color="#3EBB6C" stop-opacity="0.87" />
            <stop offset="0.692708" stop-color="#A5E06A" stop-opacity="0.79" />
            <stop offset="1" stop-color="#FCFF68" stop-opacity="0.31" />
        </linearGradient>
        <linearGradient id="paint34_linear_1_1156" x1="971.118" y1="401.631" x2="919.617"
            y2="410.877" gradientUnits="userSpaceOnUse">
            <stop stop-color="#0A8241" />
            <stop offset="0.416667" stop-color="#3EBB6C" stop-opacity="0.87" />
            <stop offset="0.692708" stop-color="#A5E06A" stop-opacity="0.79" />
            <stop offset="1" stop-color="#FCFF68" stop-opacity="0.31" />
        </linearGradient>
        <linearGradient id="paint35_linear_1_1156" x1="972.406" y1="429.528" x2="962.44"
            y2="429.717" gradientUnits="userSpaceOnUse">
            <stop stop-color="#0A8241" />
            <stop offset="0.416667" stop-color="#3EBB6C" stop-opacity="0.87" />
            <stop offset="0.692708" stop-color="#A5E06A" stop-opacity="0.79" />
            <stop offset="1" stop-color="#FCFF68" stop-opacity="0.31" />
        </linearGradient>
        <linearGradient id="paint36_linear_1_1156" x1="937.893" y1="425.456" x2="928.739"
            y2="425.901" gradientUnits="userSpaceOnUse">
            <stop stop-color="#0A8241" />
            <stop offset="0.416667" stop-color="#3EBB6C" stop-opacity="0.87" />
            <stop offset="0.692708" stop-color="#A5E06A" stop-opacity="0.79" />
            <stop offset="1" stop-color="#FCFF68" stop-opacity="0.31" />
        </linearGradient>
        <linearGradient id="paint37_linear_1_1156" x1="954.596" y1="439.519" x2="945.461"
            y2="439.963" gradientUnits="userSpaceOnUse">
            <stop stop-color="#0A8241" />
            <stop offset="0.416667" stop-color="#3EBB6C" stop-opacity="0.87" />
            <stop offset="0.692708" stop-color="#A5E06A" stop-opacity="0.79" />
            <stop offset="1" stop-color="#FCFF68" stop-opacity="0.31" />
        </linearGradient>
        <linearGradient id="paint38_linear_1_1156" x1="953.876" y1="424.803" x2="929.592" y2="428"
            gradientUnits="userSpaceOnUse">
            <stop stop-color="#0A8241" />
            <stop offset="0.416667" stop-color="#3EBB6C" stop-opacity="0.87" />
            <stop offset="0.692708" stop-color="#A5E06A" stop-opacity="0.79" />
            <stop offset="1" stop-color="#FCFF68" stop-opacity="0.31" />
        </linearGradient>
        <linearGradient id="paint39_linear_1_1156" x1="953.343" y1="440.703" x2="929.016"
            y2="443.993" gradientUnits="userSpaceOnUse">
            <stop stop-color="#0A8241" />
            <stop offset="0.416667" stop-color="#3EBB6C" stop-opacity="0.87" />
            <stop offset="0.692708" stop-color="#A5E06A" stop-opacity="0.79" />
            <stop offset="1" stop-color="#FCFF68" stop-opacity="0.31" />
        </linearGradient>
        <linearGradient id="paint40_linear_1_1156" x1="972.405" y1="265.048" x2="916.53"
            y2="269.078" gradientUnits="userSpaceOnUse">
            <stop stop-color="#0A8241" />
            <stop offset="0.416667" stop-color="#3EBB6C" stop-opacity="0.87" />
            <stop offset="0.692708" stop-color="#A5E06A" stop-opacity="0.79" />
            <stop offset="1" stop-color="#FCFF68" stop-opacity="0.31" />
        </linearGradient>
        <linearGradient id="paint41_linear_1_1156" x1="971.118" y1="259.231" x2="919.617"
            y2="268.477" gradientUnits="userSpaceOnUse">
            <stop stop-color="#0A8241" />
            <stop offset="0.416667" stop-color="#3EBB6C" stop-opacity="0.87" />
            <stop offset="0.692708" stop-color="#A5E06A" stop-opacity="0.79" />
            <stop offset="1" stop-color="#FCFF68" stop-opacity="0.31" />
        </linearGradient>
        <linearGradient id="paint42_linear_1_1156" x1="972.406" y1="287.09" x2="962.44" y2="287.279"
            gradientUnits="userSpaceOnUse">
            <stop stop-color="#0A8241" />
            <stop offset="0.416667" stop-color="#3EBB6C" stop-opacity="0.87" />
            <stop offset="0.692708" stop-color="#A5E06A" stop-opacity="0.79" />
            <stop offset="1" stop-color="#FCFF68" stop-opacity="0.31" />
        </linearGradient>
        <linearGradient id="paint43_linear_1_1156" x1="953.497" y1="281.552" x2="929.045"
            y2="283.013" gradientUnits="userSpaceOnUse">
            <stop stop-color="#0A8241" />
            <stop offset="0.416667" stop-color="#3EBB6C" stop-opacity="0.87" />
            <stop offset="0.692708" stop-color="#A5E06A" stop-opacity="0.79" />
            <stop offset="1" stop-color="#FCFF68" stop-opacity="0.31" />
        </linearGradient>
        <linearGradient id="paint44_linear_1_1156" x1="952.67" y1="289.636" x2="945.847"
            y2="289.983" gradientUnits="userSpaceOnUse">
            <stop stop-color="#0A8241" />
            <stop offset="0.416667" stop-color="#3EBB6C" stop-opacity="0.87" />
            <stop offset="0.692708" stop-color="#A5E06A" stop-opacity="0.79" />
            <stop offset="1" stop-color="#FCFF68" stop-opacity="0.31" />
        </linearGradient>
        <linearGradient id="paint45_linear_1_1156" x1="947.481" y1="293.055" x2="943.919"
            y2="293.248" gradientUnits="userSpaceOnUse">
            <stop stop-color="#0A8241" />
            <stop offset="0.416667" stop-color="#3EBB6C" stop-opacity="0.87" />
            <stop offset="0.692708" stop-color="#A5E06A" stop-opacity="0.79" />
            <stop offset="1" stop-color="#FCFF68" stop-opacity="0.31" />
        </linearGradient>
    </defs>
</svg>