<svg xmlns="http://www.w3.org/2000/svg" width="48" height="48" viewBox="0 0 48 48" fill="none">
    <g clip-path="url(#clip0_1_2088)">
        <mask id="mask0_1_2088" style="mask-type:luminance" maskUnits="userSpaceOnUse" x="0" y="-1"
            width="48" height="49">
            <path d="M0 -0.00390244H48V47.9961H0V-0.00390244Z" fill="white" />
        </mask>
        <g mask="url(#mask0_1_2088)">
            <path
                d="M38.8719 43.1943C31.8943 47.7381 22.4576 46.9486 16.3346 40.8256C9.30513 33.7961 9.30513 22.3991 16.3346 15.3697C23.3641 8.34025 34.761 8.34025 41.7904 15.3697C47.9077 21.487 48.7015 30.9118 44.1719 37.8874"
                stroke="#008345" stroke-width="1.875" stroke-miterlimit="10" stroke-linecap="round"
                stroke-linejoin="round" />
            <path
                d="M29.0629 41.7031C21.5485 41.7031 15.457 35.6116 15.457 28.0973C15.457 20.5829 21.5485 14.4914 29.0629 14.4914C36.5772 14.4914 42.6687 20.5829 42.6687 28.0973C42.6687 35.6116 36.5772 41.7031 29.0629 41.7031Z"
                stroke="#008345" stroke-width="1.875" stroke-miterlimit="10" stroke-linecap="round"
                stroke-linejoin="round" />
            <path
                d="M25.6731 6.39722H32.4231C33.6658 6.39722 34.6731 5.38987 34.6731 4.14722C34.6731 2.90456 33.6658 1.89722 32.4231 1.89722H25.6731C24.4304 1.89722 23.4231 2.90456 23.4231 4.14722C23.4231 5.38987 24.4304 6.39722 25.6731 6.39722Z"
                stroke="#008345" stroke-width="1.875" stroke-miterlimit="10" stroke-linecap="round"
                stroke-linejoin="round" />
            <path d="M32.2537 10.0977V6.39678H25.8398V10.0977" stroke="#008345" stroke-width="1.875"
                stroke-miterlimit="10" stroke-linecap="round" stroke-linejoin="round" />
            <path d="M30.8384 26.3223L35.6546 21.506" stroke="#008345" stroke-width="1.875"
                stroke-miterlimit="10" stroke-linecap="round" stroke-linejoin="round" />
            <path
                d="M27.0874 28.0985C27.0874 29.1897 27.9719 30.0742 29.0631 30.0742C30.1542 30.0742 31.0388 29.1897 31.0388 28.0985C31.0388 27.0074 30.1542 26.1228 29.0631 26.1228C27.9719 26.1228 27.0874 27.0074 27.0874 28.0985Z"
                stroke="#008345" stroke-width="1.875" stroke-miterlimit="10" stroke-linecap="round"
                stroke-linejoin="round" />
            <path d="M39.086 28.1094H38.2175" stroke="#008345" stroke-width="1.875"
                stroke-miterlimit="10" stroke-linecap="round" stroke-linejoin="round" />
            <path d="M19.0376 28.0859H19.9061" stroke="#008345" stroke-width="1.875"
                stroke-miterlimit="10" stroke-linecap="round" stroke-linejoin="round" />
            <path d="M29.0742 18.0741V18.9426" stroke="#008345" stroke-width="1.875"
                stroke-miterlimit="10" stroke-linecap="round" stroke-linejoin="round" />
            <path d="M29.0508 38.123V37.2545" stroke="#008345" stroke-width="1.875"
                stroke-miterlimit="10" stroke-linecap="round" stroke-linejoin="round" />
            <path d="M27.5818 26.6152L25.0366 24.07" stroke="#008345" stroke-width="1.875"
                stroke-miterlimit="10" stroke-linecap="round" stroke-linejoin="round" />
            <path d="M30.4597 26.7004L35.5197 21.6406" stroke="#008345" stroke-width="1.875"
                stroke-miterlimit="10" stroke-linecap="round" stroke-linejoin="round" />
            <path d="M11.8838 33.8828H4.6875" stroke="#008345" stroke-width="1.875"
                stroke-miterlimit="10" stroke-linecap="round" stroke-linejoin="round" />
            <path d="M11.0626 28.405H6" stroke="#008345" stroke-width="1.875" stroke-miterlimit="10"
                stroke-linecap="round" stroke-linejoin="round" />
            <path d="M11.6338 22.9258H0.9375" stroke="#008345" stroke-width="1.875"
                stroke-miterlimit="10" stroke-linecap="round" stroke-linejoin="round" />
            <path d="M14.0076 17.448H7.3269" stroke="#008345" stroke-width="1.875"
                stroke-miterlimit="10" stroke-linecap="round" stroke-linejoin="round" />
        </g>
    </g>
    <defs>
        <clipPath id="clip0_1_2088">
            <rect width="48" height="48" fill="white" />
        </clipPath>
    </defs>
</svg>