<svg xmlns="http://www.w3.org/2000/svg" width="59" height="58" viewBox="0 0 59 58" fill="none">
    <g clip-path="url(#clip0_1_2832)">
        <mask id="mask0_1_2832" style="mask-type:luminance" maskUnits="userSpaceOnUse" x="-1" y="0"
            width="60" height="59">
            <path d="M-0.00585938 0.00196075H58.9608V58.002H-0.00585938V0.00196075Z" fill="white" />
        </mask>
        <g mask="url(#mask0_1_2832)">
            <path
                d="M6.2544 34.8743C6.62179 35.7556 6.98261 36.6075 7.32628 37.3982C8.93692 41.1034 9.59569 42.0664 12.4998 44.8603L16.9147 49.1076C16.402 51.1548 15.8892 53.2023 15.3766 55.2495C15.1591 56.048 15.7464 56.868 16.5301 56.868H25.5479C26.7814 56.868 27.4652 56.4252 27.8582 55.3786C32.114 44.0413 21.4931 40.2354 18.4806 36.4319C17.8525 35.6387 14.1363 30.7431 13.5081 29.9499C12.8526 29.1223 11.6297 28.9698 10.7907 29.6116C9.95167 30.2532 10.0861 31.3001 10.4572 32.2832C11.4302 34.8609 12.6584 37.5092 13.8748 39.5599M10.2999 30.2324L5.09096 21.327C3.45993 18.6481 0.290817 20.4707 1.3665 22.8682C1.57242 23.3148 1.94384 24.2183 2.42018 25.3994"
                stroke="#008345" stroke-width="1.91403" stroke-miterlimit="2.613"
                stroke-linecap="round" stroke-linejoin="round" />
            <path
                d="M41.2607 35.421C42.574 33.7086 44.96 30.5713 45.4521 29.95C46.1076 29.1224 47.3305 28.9701 48.1694 29.6117C49.0084 30.2533 48.874 31.3004 48.503 32.2833C47.53 34.861 46.3018 37.5094 45.0854 39.56M48.6601 30.2326L53.8692 21.3271C55.5003 18.6483 58.6693 20.4708 57.5936 22.8683C56.8398 24.503 53.873 32.2471 51.6338 37.3983C50.0233 41.1035 49.3644 42.0665 46.4603 44.8604L42.0455 49.1077C42.5582 51.1551 43.071 53.2024 43.5836 55.2497C43.8011 56.0481 43.2137 56.8682 42.4299 56.8682H33.4123C32.1788 56.8682 31.4948 56.4253 31.102 55.3787C28.7974 49.2394 30.8557 45.3091 33.7055 42.3912"
                stroke="#008345" stroke-width="1.91403" stroke-miterlimit="2.613"
                stroke-linecap="round" stroke-linejoin="round" />
            <path d="M4.32422 30.1426H4.32889" stroke="#008345" stroke-width="1.91403"
                stroke-miterlimit="2.613" stroke-linecap="round" stroke-linejoin="round" />
            <path d="M37.6074 39.0372H37.6121" stroke="#008345" stroke-width="1.91403"
                stroke-miterlimit="2.613" stroke-linecap="round" stroke-linejoin="round" />
            <path
                d="M29.4799 5.66521C31.6517 5.66521 33.4286 7.41292 33.4286 9.54917V11.4912C33.4286 13.6273 31.6517 15.375 29.4799 15.375C27.3082 15.375 25.5312 13.6273 25.5312 11.4912V9.54917C25.5312 7.41292 27.3082 5.66521 29.4799 5.66521Z"
                stroke="#008345" stroke-width="1.91403" stroke-miterlimit="22.926"
                stroke-linecap="round" stroke-linejoin="round" />
            <path
                d="M32.5574 14.1493C34.8248 15.2675 36.3905 17.5776 36.3905 20.2301V22.1719H22.5703V20.2301C22.5703 17.5739 24.1404 15.2613 26.4126 14.1448"
                stroke="#008345" stroke-width="1.91403" stroke-miterlimit="22.926"
                stroke-linecap="round" stroke-linejoin="round" />
            <path
                d="M17.9643 1.13396C20.1361 1.13396 21.913 2.88167 21.913 5.01792V6.9599C21.913 9.09605 20.1361 10.8438 17.9643 10.8438C15.7926 10.8438 14.0156 9.09605 14.0156 6.9599V5.01792C14.0156 2.88167 15.7926 1.13396 17.9643 1.13396Z"
                stroke="#008345" stroke-width="1.91403" stroke-miterlimit="22.926"
                stroke-linecap="round" stroke-linejoin="round" />
            <path
                d="M23.0938 17.6406H11.0527V15.6988C11.0527 13.0427 12.623 10.73 14.895 9.61352M21.0399 9.61794C23.1616 10.6644 24.669 12.7547 24.8538 15.1925"
                stroke="#008345" stroke-width="1.91403" stroke-miterlimit="22.926"
                stroke-linecap="round" stroke-linejoin="round" />
            <path
                d="M40.9973 1.13408C43.1689 1.13408 44.9459 2.88179 44.9459 5.01804V6.96003C44.9459 9.09617 43.1689 10.8439 40.9973 10.8439C38.8255 10.8439 37.0486 9.09617 37.0486 6.96003V5.01804C37.0486 2.88179 38.8255 1.13408 40.9973 1.13408Z"
                stroke="#008345" stroke-width="1.91403" stroke-miterlimit="22.926"
                stroke-linecap="round" stroke-linejoin="round" />
            <path
                d="M34.1055 15.1915C34.2904 12.7502 35.802 10.6576 37.9284 9.61254M44.0734 9.61707C46.3406 10.7353 47.9065 13.0454 47.9065 15.6979V17.6396H35.8654"
                stroke="#008345" stroke-width="1.91403" stroke-miterlimit="22.926"
                stroke-linecap="round" stroke-linejoin="round" />
        </g>
    </g>
    <defs>
        <clipPath id="clip0_1_2832">
            <rect width="58.9667" height="58" fill="white" />
        </clipPath>
    </defs>
</svg>