<svg xmlns="http://www.w3.org/2000/svg" width="100%" height="100%" viewBox="0 0 150 55" fill="none">
    <g clip-path="url(#clip0_1_2495)">
        <path d="M49.7661 36.8086V41.976H49.1939V36.8086H47.8887V36.29H51.0714V36.8086H49.7661Z"
            fill="#F28424" />
        <path
            d="M57.4009 39.3297C57.079 39.6516 56.6857 39.8304 56.2029 39.8482L57.8121 41.976H57.0969L55.1658 39.4012H55.7738C56.0241 39.4012 56.2387 39.3655 56.3817 39.3118C57.0075 39.1152 57.3115 38.7218 57.3115 38.1138C57.3115 37.6132 57.0969 37.2556 56.6857 37.0231C56.5247 36.9337 56.3459 36.8801 56.1493 36.8443C56.0062 36.8265 55.8095 36.8086 55.5771 36.8086H54.5937V41.976H54.0215V36.29H55.4698C55.595 36.29 55.7201 36.29 55.8095 36.29C55.9347 36.29 56.0599 36.3079 56.1671 36.3258C56.4532 36.3616 56.6857 36.4152 56.8645 36.5046C57.5439 36.8265 57.8837 37.3629 57.8837 38.1317C57.8837 38.6145 57.7227 39.0079 57.4009 39.3297Z"
            fill="#F28424" />
        <path
            d="M64.981 39.8304C64.981 40.0449 64.9631 40.2416 64.9453 40.4383C64.9095 40.6529 64.8559 40.8496 64.7843 41.0105C64.4625 41.7257 63.8724 42.0654 63.0678 42.0654C62.2632 42.0654 61.6731 41.7078 61.3513 41.0105C61.2798 40.8496 61.2261 40.6529 61.1904 40.4383C61.1546 40.2416 61.1367 40.0449 61.1367 39.8304V36.29H61.7089V39.8304C61.7089 40.0092 61.7268 40.188 61.7447 40.3489C61.7804 40.5635 61.8341 40.7244 61.9056 40.8496C62.1559 41.3144 62.5493 41.5469 63.0857 41.5469C63.6221 41.5469 63.9976 41.3144 64.2658 40.8496C64.3373 40.7244 64.391 40.5635 64.4267 40.3489C64.4625 40.188 64.4625 40.0092 64.4625 39.8304V36.29H65.0347V39.8304H64.981Z"
            fill="#F28424" />
        <path
            d="M68.4863 41.976V36.29H71.5975V36.8086H69.0585V38.8469H71.5081V39.3655H69.0585V41.4575H71.5975V41.976H68.4863Z"
            fill="#F28424" />
        <path
            d="M83.0397 41.976V39.3118H80.1073V41.976H79.5352V36.29H80.1073V38.7933H83.0397V36.29H83.6119V41.976H83.0397Z"
            fill="#F28424" />
        <path
            d="M91.5513 41.976L90.7288 40.0628H88.0825L87.26 41.976H86.6699L89.1017 36.29H89.7454L92.195 41.976H91.5513ZM89.4235 36.9337L88.3149 39.5443H90.5142L89.4235 36.9337Z"
            fill="#F28424" />
        <path
            d="M98.276 39.3654C98.0793 39.4906 97.8469 39.5979 97.5787 39.6336C97.4714 39.6515 97.3462 39.6694 97.2032 39.6873C97.0959 39.6873 96.9707 39.7051 96.8277 39.7051H95.8085V41.9938H95.2363V36.3079H96.8277C96.9707 36.3079 97.0959 36.3079 97.2032 36.3257C97.3462 36.3436 97.4714 36.3436 97.5787 36.3794C97.8469 36.433 98.0972 36.5224 98.276 36.6476C98.7409 36.9694 98.9733 37.4165 98.9733 38.0065C98.9733 38.5787 98.7409 39.0436 98.276 39.3654ZM97.7575 36.9516C97.6144 36.88 97.4535 36.8443 97.2747 36.8264L97.0244 36.8085H95.7906V39.1687H97.0244L97.2747 39.1509C97.4535 39.133 97.6144 39.0972 97.7575 39.0257C98.2045 38.8111 98.4191 38.4714 98.4191 37.9886C98.4191 37.5059 98.1866 37.1661 97.7575 36.9516Z"
            fill="#F28424" />
        <path
            d="M105.196 39.3652C104.999 39.4903 104.767 39.5976 104.499 39.6334C104.391 39.6513 104.266 39.6691 104.123 39.687C104.016 39.687 103.891 39.7049 103.748 39.7049H102.728V41.9936H102.156V36.3076H103.748C103.891 36.3076 104.016 36.3076 104.123 36.3255C104.266 36.3434 104.391 36.3434 104.499 36.3791C104.767 36.4328 105.017 36.5222 105.196 36.6473C105.661 36.9692 105.893 37.4162 105.893 38.0063C105.911 38.5784 105.679 39.0433 105.196 39.3652ZM104.677 36.9513C104.534 36.8798 104.373 36.844 104.195 36.8262L103.944 36.8083H102.711V39.1685H103.944L104.195 39.1506C104.373 39.1327 104.534 39.097 104.677 39.0254C105.124 38.8109 105.339 38.4712 105.339 37.9884C105.339 37.5056 105.124 37.1659 104.677 36.9513Z"
            fill="#F28424" />
        <path d="M109.092 41.976V36.29H109.664V41.976H109.092Z" fill="#F28424" />
        <path
            d="M117.157 41.976L113.778 36.9695H113.76V41.976H113.188V36.29H113.956L117.139 41.0105H117.157V36.29H117.729V41.976H117.157Z"
            fill="#F28424" />
        <path
            d="M121.215 41.976V36.29H124.326V36.8086H121.787V38.8469H124.237V39.3655H121.787V41.4575H124.326V41.976H121.215Z"
            fill="#F28424" />
        <path
            d="M130.318 41.6004C129.978 41.9222 129.585 42.0832 129.102 42.0832C128.601 42.0832 128.172 41.9222 127.85 41.6183C127.528 41.3143 127.35 40.9031 127.35 40.3845H127.922C127.958 41.1713 128.351 41.5646 129.102 41.5646C129.424 41.5646 129.692 41.4574 129.907 41.2428C130.139 41.0282 130.246 40.76 130.246 40.4382C130.246 40.0984 130.121 39.8124 129.853 39.6157C129.746 39.5263 129.603 39.4547 129.442 39.3832C129.316 39.3296 129.173 39.2759 128.977 39.2223C128.744 39.1508 128.548 39.0793 128.405 39.0256C128.208 38.9541 128.065 38.8647 127.94 38.7574C127.654 38.525 127.511 38.1673 127.511 37.7203C127.511 37.2733 127.671 36.9157 127.975 36.6117C128.279 36.3257 128.655 36.1826 129.102 36.1826C129.549 36.1826 129.907 36.3257 130.21 36.6296C130.514 36.9336 130.675 37.2912 130.675 37.7382H130.103C130.103 37.4521 130.014 37.2197 129.817 37.0051C129.62 36.8084 129.388 36.7011 129.102 36.7011C128.816 36.7011 128.565 36.7906 128.369 36.9872C128.172 37.1839 128.065 37.4164 128.065 37.7025C128.065 38.0243 128.226 38.2925 128.53 38.4534C128.637 38.5071 128.78 38.5786 128.977 38.6322L129.424 38.7753C129.853 38.9004 130.193 39.0971 130.425 39.3653C130.693 39.6514 130.818 40.009 130.818 40.4203C130.818 40.8852 130.657 41.2785 130.318 41.6004Z"
            fill="#F28424" />
        <path
            d="M136.521 41.6004C136.181 41.9222 135.788 42.0832 135.305 42.0832C134.804 42.0832 134.375 41.9222 134.053 41.6183C133.732 41.3143 133.553 40.9031 133.553 40.3845H134.125C134.161 41.1713 134.554 41.5646 135.305 41.5646C135.627 41.5646 135.895 41.4574 136.11 41.2428C136.342 41.0282 136.449 40.76 136.449 40.4382C136.449 40.0984 136.324 39.8124 136.056 39.6157C135.949 39.5263 135.806 39.4547 135.645 39.3832C135.52 39.3296 135.377 39.2759 135.18 39.2223C134.947 39.1508 134.751 39.0793 134.608 39.0256C134.411 38.9541 134.268 38.8647 134.143 38.7574C133.857 38.525 133.714 38.1673 133.714 37.7203C133.714 37.2733 133.875 36.9157 134.179 36.6117C134.483 36.3257 134.858 36.1826 135.305 36.1826C135.752 36.1826 136.11 36.3257 136.414 36.6296C136.718 36.9336 136.878 37.2912 136.878 37.7382H136.306C136.306 37.4521 136.217 37.2197 136.02 37.0051C135.824 36.8084 135.591 36.7011 135.305 36.7011C135.019 36.7011 134.769 36.7906 134.572 36.9872C134.375 37.1839 134.268 37.4164 134.268 37.7025C134.268 38.0243 134.429 38.2925 134.733 38.4534C134.84 38.5071 134.983 38.5786 135.18 38.6322L135.627 38.7753C136.056 38.9004 136.396 39.0971 136.628 39.3653C136.896 39.6514 137.022 40.009 137.022 40.4203C137.022 40.8852 136.861 41.2785 136.521 41.6004Z"
            fill="#F28424" />
        <path
            d="M73.9033 33.9128C73.5099 33.0367 69.0398 22.523 68.1637 20.3594C68.0206 20.0197 67.7703 19.8945 67.4127 19.8945H67.3948C66.1789 19.9124 64.9631 19.8945 63.7472 19.9124C63.6757 19.8945 63.622 19.8945 63.5505 19.8945C63.1929 19.8945 62.9604 20.1091 62.8174 20.4846C61.6194 23.3991 60.4035 26.3136 59.1877 29.2281C59.0267 29.6215 59.0089 29.9791 59.2055 30.3367C59.2055 30.3367 59.2055 30.3367 59.1877 30.3367C59.7956 31.4632 60.3857 32.5897 60.9936 33.6982C61.2082 34.1095 61.5658 34.2525 62.0128 34.1631C62.5134 34.0201 68.0206 30.8016 68.2709 30.5155C67.3054 30.5155 64.8021 30.587 62.6386 30.5692C63.0498 29.3712 63.6041 28.2447 64.0869 27.0646C64.5339 25.956 65.0167 24.8653 65.4995 23.7925C66.8405 26.9573 68.861 31.6599 69.7729 33.8413C69.8981 34.1274 70.0053 34.2883 70.363 34.2704C71.4537 34.2525 72.5622 34.2525 73.653 34.2704C73.9927 34.2704 74.0284 34.1989 73.9033 33.9128Z"
            fill="#008345" />
        <path
            d="M57.0044 32.929C56.3428 33.4833 55.6276 33.8588 54.823 34.0019C54.4833 34.0734 54.1078 34.1091 53.6608 34.127C53.482 34.127 53.2674 34.1449 53.0349 34.1449H47.8496V19.9299H52.2124C52.7667 19.9299 53.178 19.9478 53.4641 19.9657C53.929 19.9836 54.3223 20.0372 54.6621 20.1266C55.5203 20.3233 56.2177 20.7167 56.7541 21.3246C57.3084 21.9504 57.5945 22.7193 57.5945 23.6669C57.5945 24.9543 57.0402 25.902 55.9495 26.5278C57.5051 27.0642 58.2918 28.1728 58.2918 29.8357C58.3097 31.1589 57.8627 32.1781 57.0044 32.929ZM53.7144 23.3272C53.482 23.1842 53.1601 23.1127 52.7131 23.1127H51.3184V25.3298H52.6952C53.6608 25.3298 54.1435 24.9543 54.1435 24.2034C54.1435 23.7921 54.0005 23.4881 53.7144 23.3272ZM54.3045 28.602C54.0363 28.4589 53.6429 28.3695 53.1422 28.3695H51.3184V30.9622H53.1243C53.6429 30.9622 54.0362 30.8728 54.3223 30.6761C54.6621 30.4436 54.8409 30.086 54.8409 29.6033C54.823 29.1384 54.6442 28.7986 54.3045 28.602Z"
            fill="#008345" />
        <path
            d="M79.5502 23.1124V34.1447H75.9205V23.1124H73.1133L74.0609 19.9297H82.3396V23.1124H79.5502Z"
            fill="#008345" />
        <path
            d="M92.7126 23.1305V34.1448H89.0829V23.1305H85.2207L86.2935 19.9478H95.502V23.1305H92.7126Z"
            fill="#008345" />
        <path
            d="M97.7891 34.1447V19.9297H105.674V23.1303H101.258V25.3475H105.531V28.5302H101.258V30.9619H105.674V34.1447H97.7891Z"
            fill="#008345" />
        <path
            d="M122.305 28.8343C121.893 30.4972 121.017 31.8561 119.694 32.8753C118.371 33.8945 116.851 34.413 115.134 34.413C113.06 34.413 111.29 33.6978 109.842 32.2673C108.376 30.8369 107.643 29.0846 107.643 27.0105C107.643 24.9364 108.376 23.202 109.824 21.7715C111.272 20.359 113.025 19.6616 115.099 19.6616C117.799 19.6616 119.873 20.7702 121.357 23.0053C121.875 23.7741 122.197 24.543 122.322 25.3297H118.514C117.888 23.6847 116.744 22.8622 115.081 22.8622C113.954 22.8622 113.042 23.2735 112.309 24.1139C111.612 24.9185 111.272 25.884 111.272 27.0105C111.272 28.1548 111.612 29.1383 112.309 29.9429C113.042 30.8012 113.972 31.2303 115.099 31.2303C116.654 31.2303 117.781 30.4257 118.514 28.8343H122.305Z"
            fill="#008345" />
        <path
            d="M132.802 19.9478V25.294H129.387C128.976 25.294 128.564 25.2583 128.153 25.2046V19.9656H124.523V23.7563V24.7576V34.1806H128.153V28.4946H132.051C132.301 28.4946 132.552 28.5304 132.802 28.5661V34.1806H136.432V30.2469V29.2456V19.9656H132.802V19.9478Z"
            fill="#008345" />
        <path
            d="M18.5472 34.9318C18.5472 34.9318 18.5472 27.1895 18.5472 25.6161C18.5472 24.0426 19.0479 22.7016 20.4605 21.9506C21.873 21.1996 25.1988 21.1102 25.9498 24.7757C25.9498 24.7757 27.3623 24.0247 28.9537 24.8651C30.5272 25.6161 30.9563 26.9392 31.1172 28.0299C31.2066 29.1206 30.7775 30.5332 28.7928 31.6954C26.7901 32.8577 24.4657 34.1987 23.1246 34.9497C21.8015 35.7007 20.2101 36.7735 19.1373 37.2741C18.0466 37.7748 16.634 38.4364 14.8996 37.0238C13.1473 35.7007 12.8255 32.6967 14.989 31.1948C14.989 31.1948 13.1652 29.9431 13.5765 27.5293C13.9162 25.1154 16.2407 24.275 17.993 24.6148L17.9035 26.1167C17.9035 26.1167 16.9916 25.777 15.9903 26.3671C14.989 26.9571 14.7387 28.1909 15.15 29.1922C15.5612 30.1935 16.7234 30.3544 17.0632 30.855C17.4029 31.3557 17.0632 31.6954 16.4731 32.0173C15.8115 32.357 14.8996 33.0186 15.0606 34.5205C15.2215 36.0225 17.0632 36.9344 18.4757 36.094C19.8883 35.2536 27.0583 31.1769 28.2921 30.4259C29.5437 29.6749 29.7941 28.924 29.7941 28.3518C29.7941 27.7796 29.6331 26.9392 28.7928 26.3492C27.9524 25.7591 26.9689 25.9379 26.3789 26.3492C25.7888 26.6889 25.467 26.9392 25.0557 26.6889C24.6445 26.4386 24.716 25.8485 24.716 25.4373C24.716 25.026 24.716 24.275 23.8756 23.5241C23.1246 22.7731 21.7121 22.7731 20.8002 23.685C20.2995 24.1856 20.2101 24.8472 20.2101 25.8485V34.0914L18.5472 34.9318Z"
            fill="#008345" />
        <path d="M20.7816 25.9561L27.4331 29.7825L25.9311 30.6229L20.7637 27.6189V25.9561H20.7816Z"
            fill="#008345" />
        <path
            d="M30.116 31.606C30.116 31.606 31.5285 32.9291 30.867 35.1105C30.2769 37.2741 27.863 38.3648 25.8783 37.5244C25.8783 37.5244 25.7174 39.2767 24.126 40.1886C22.6241 41.1005 19.9599 41.1005 18.6367 38.2754L19.9599 37.5244C19.9599 37.5244 20.3711 39.3482 22.2843 39.2767C24.1975 39.2052 24.4479 37.5244 24.3585 37.0237C24.3585 36.5231 24.2691 35.933 24.6982 35.7006C25.1094 35.4503 25.4492 35.7006 26.2002 36.1118C26.8617 36.5231 28.4531 36.5231 29.2041 35.3609C29.8657 34.1986 29.4544 33.0364 28.7928 32.4463L30.116 31.606Z"
            fill="#008345" />
        <path d="M20.7832 28.5303L25.1997 31.1051L20.7832 33.6798V28.5303Z" fill="#F28424" />
        <path fill-rule="evenodd" clip-rule="evenodd"
            d="M15.542 42.3697C7.6031 37.7745 8.80109 39.8665 8.80109 30.6938C8.80109 28.7091 8.74745 27.2607 8.72957 26.1343C6.22631 28.0654 1.36282 32.2315 0.00390625 36.3619C0.0754281 38.5791 0.468798 40.6174 1.61315 42.6022C2.86478 44.7478 4.58131 46.1604 6.67332 47.412C8.13952 48.2882 9.67724 49.0749 11.1434 49.9153C12.6275 50.7736 14.0758 51.7033 15.5599 52.5437C17.6877 53.7417 19.7618 54.5285 22.2472 54.5285C24.7326 54.5285 26.8067 53.7417 28.9345 52.5437C30.4186 51.7033 31.8669 50.7736 33.351 49.9153C34.2986 49.3789 35.2463 48.8603 36.194 48.3239C31.0086 49.9153 22.4796 46.1962 20.8346 45.4452C20.7452 45.4094 20.6558 45.3558 20.5486 45.32C19.4936 44.7836 18.0274 43.8002 15.542 42.3697Z"
            fill="#008345" />
        <path fill-rule="evenodd" clip-rule="evenodd"
            d="M35.7999 24.8291C35.8893 26.045 35.7642 27.8151 35.7642 30.6939C35.7642 39.8666 36.9622 37.7745 29.0232 42.3698C27.3067 43.3533 26.073 44.14 25.1074 44.6943C28.0398 45.8923 34.0655 48.0201 38.3211 47.126C40.2164 45.9459 41.772 44.6049 42.9164 42.6023C44.168 40.4566 44.5256 38.2573 44.5435 35.8077C44.5614 34.1091 44.472 32.3925 44.472 30.676C44.472 28.9595 44.5435 27.243 44.5435 25.5443C44.5256 23.1126 44.168 20.9133 42.9164 18.7497C41.6647 16.6041 39.9482 15.1915 37.8562 13.9399C36.39 13.0637 34.8523 12.277 33.3861 11.4366C32.4384 10.9002 31.5265 10.328 30.5967 9.75586C34.5841 13.4571 35.6211 22.7371 35.7821 24.5072C35.7821 24.6324 35.7999 24.7218 35.7999 24.8291Z"
            fill="#008345" />
        <path fill-rule="evenodd" clip-rule="evenodd"
            d="M28.4882 8.57583C26.5213 7.52089 24.5724 6.85931 22.2658 6.85931C19.7804 6.85931 17.7063 7.64605 15.5785 8.84404C14.0944 9.68442 12.6461 10.6142 11.162 11.4725C10.3753 11.9195 9.58855 12.3486 8.80181 12.7956V10.7215C8.80181 3.5693 9.32034 -0.47168 0.0403807 -0.47168V24.2034C0.00461982 24.6504 -0.0132606 25.0974 -0.0132606 25.5444C-0.0311411 27.243 0.0582612 28.9596 0.0582612 30.6761C0.0582612 31.7668 0.0225003 32.8575 0.00461982 33.9303C1.22049 28.6198 8.74817 23.0948 10.1965 22.0577C10.268 22.0041 10.3574 21.9504 10.4468 21.8968C11.466 21.2173 13.0574 20.4306 15.5427 19.0001C23.4817 14.4049 21.0857 14.4049 29.0246 19.0001C30.7411 19.9836 32.0285 20.663 32.9941 21.2173C32.5828 18.1061 31.4027 11.8122 28.4882 8.57583Z"
            fill="#008345" />
    </g>
    <defs>
        <clipPath id="clip0_1_2495">
            <rect width="150" height="55" fill="white" />
        </clipPath>
    </defs>
</svg>