<svg xmlns="http://www.w3.org/2000/svg" width="500" height="500" viewBox="0 0 500 500" fill="none">
    <path
        d="M292.77 263.86C292.77 248.62 287.42 237.86 278.77 232.92C270.12 227.98 258.17 228.65 244.97 236.27C218.57 251.51 197.17 288.58 197.17 319.06C197.17 334.31 202.52 345.06 211.17 350.01C219.82 354.96 231.77 354.28 244.97 346.66C271.37 331.42 292.77 294.35 292.77 263.86Z"
        fill="#263238" />
    <path
        d="M308.83 279.39C308.83 265.86 304.08 256.39 296.4 251.92C288.72 247.45 278.12 248.13 266.4 254.92C243 268.43 224 301.33 224 328.39C224 341.92 228.75 351.39 236.43 355.86C244.11 360.33 254.71 359.65 266.43 352.86C289.84 339.35 308.83 306.45 308.83 279.39Z"
        fill="#E0E0E0" />
    <path
        d="M382.59 425C392.8 431.48 399.25 435.63 407.71 440.76C431.71 455.32 439.55 459.67 448.09 462.65C455.6 465.26 463.82 466.3 469.19 462.25C474.56 458.2 472.03 447.82 465.92 443.14C459.81 438.46 455.39 434.78 444.33 426.35C434.1 418.55 421.26 408.54 406.93 397.25C409.8 392.39 407.1 387.31 405.16 385.12C411.98 381.17 412.89 373.99 411.36 365.4C423.41 357.81 411.19 324.06 399.88 301.68C389.27 280.68 382 281.57 356.99 276.25C344.86 273.68 323.09 268.07 311.99 264.12C301.51 260.41 291.16 253.67 277.65 245.35C257.73 233.08 211.9 206.13 205.19 201.67L145.5 300.22C145.5 300.22 189.36 324.55 207.6 335.08C225.84 345.61 229.85 348.08 241.67 354.18C256.79 362.02 266.74 367.18 276.67 380.84C279.55 384.84 286.76 394.42 289.52 398.45C296.16 408.16 301.87 415.99 308.77 423.54C317.69 433.3 330.06 439 341.16 446.2C351.16 452.66 360.16 460.42 369.93 467.2C371.256 468.282 372.818 469.036 374.49 469.4C378.62 469.98 381.99 465.91 383.17 461.91C385.43 454.28 382.36 445.48 377.85 439.2C374.62 435.008 370.985 431.142 367 427.66L361.66 422.66L351.77 413.45C350.89 412.63 349.94 411.45 350.46 410.37C350.98 409.29 352.92 408.49 355.66 409.5C364.7 412.85 372.37 418.49 382.59 425Z"
        fill="#FFD1A7" />
    <path
        d="M354.352 455.55C356.132 447.36 364.912 443.02 364.912 443.02C364.912 443.02 372.812 450.44 376.312 455.67C380.592 462.06 378.422 471.81 372.782 469.82C367.632 467.35 362.622 464.42 354.352 455.55Z"
        fill="#FFD1A7" />
    <path opacity="0.3"
        d="M354.352 455.55C356.132 447.36 364.912 443.02 364.912 443.02C364.912 443.02 372.812 450.44 376.312 455.67C380.592 462.06 378.422 471.81 372.782 469.82C367.632 467.35 362.622 464.42 354.352 455.55Z"
        fill="white" />
    <path opacity="0.3"
        d="M364.912 443C364.912 443 356.132 447.34 354.352 455.53C354.852 456.07 355.352 456.6 355.862 457.11C356.789 456.553 357.643 455.881 358.402 455.11C361.529 451.824 364.011 447.981 365.722 443.78L364.912 443Z"
        fill="white" />
    <path
        d="M352.61 446.481C353.571 445.468 354.428 444.363 355.17 443.18C356.015 441.98 356.688 440.667 357.17 439.28C357.24 439.01 356.81 438.531 356.57 438.821C355.718 439.982 354.927 441.187 354.2 442.43C353.44 443.596 352.576 444.69 351.62 445.701C350.1 447.274 348.346 448.603 346.42 449.641L347.53 450.44C349.408 449.376 351.119 448.042 352.61 446.481Z"
        fill="#F2C48F" />
    <path
        d="M344.329 448.18C345.179 447.18 346.049 446.18 346.979 445.18C348.599 443.51 350.329 441.96 351.979 440.37C352.209 440.15 351.819 439.69 351.559 439.86C349.489 441.217 347.565 442.786 345.819 444.54C344.899 445.45 343.989 446.41 343.129 447.4L344.329 448.18Z"
        fill="#F2C48F" />
    <path
        d="M408.181 392.58C401.511 389.78 387.041 376.03 379.061 366.33C381.501 371.77 392.331 388.04 406.931 397.21C407.742 395.801 408.173 394.206 408.181 392.58Z"
        fill="#F2C48F" />
    <path
        d="M405.2 385.05C399.37 375.41 394.01 364.79 393.48 353.34C397.11 362.65 403.22 375.34 405.2 385.05Z"
        fill="#F2C48F" />
    <path
        d="M411.471 365.36C409.561 360.97 408.161 356.59 406.651 352.08C405.083 347.57 404.2 342.851 404.031 338.08C405.075 340.211 406.01 342.394 406.831 344.62C409.371 351.25 411.701 358.11 411.471 365.35V365.36Z"
        fill="#F2C48F" />
    <path
        d="M387.859 305.34C387.389 303.05 386.509 300.87 384.409 299.64C381.942 298.117 379.065 297.39 376.169 297.56C375.94 297.543 375.71 297.587 375.503 297.687C375.296 297.787 375.119 297.94 374.989 298.13C374.699 298.78 375.459 299.37 376.099 299.69C379.259 301.25 382.309 303.28 384.249 306.22C385.069 307.66 385.985 309.043 386.989 310.36C387.1 310.516 387.254 310.636 387.431 310.707C387.608 310.777 387.802 310.796 387.989 310.76C388.509 310.59 388.549 309.88 388.479 309.34C388.279 308.08 388.139 306.69 387.859 305.34Z"
        fill="#F2C48F" />
    <path
        d="M380.08 326.64C379.6 324.34 378.73 322.17 376.63 320.93C374.161 319.408 371.285 318.682 368.39 318.85C367.93 318.85 367.39 319 367.21 319.42C366.92 320.07 367.68 320.67 368.32 320.98C371.48 322.54 374.53 324.57 376.47 327.51C377.288 328.951 378.203 330.334 379.21 331.65C379.321 331.805 379.474 331.925 379.652 331.996C379.829 332.067 380.023 332.085 380.21 332.05C380.73 331.88 380.77 331.17 380.69 330.63C380.5 329.37 380.36 328 380.08 326.64Z"
        fill="#F2C48F" />
    <path
        d="M371.18 352.69C370.7 350.39 369.83 348.22 367.73 346.99C365.264 345.461 362.386 344.731 359.49 344.9C359.03 344.9 358.49 345.06 358.31 345.48C358.02 346.12 358.78 346.72 359.42 347.03C362.58 348.59 365.63 350.62 367.57 353.56C368.389 355.003 369.305 356.389 370.31 357.71C370.422 357.863 370.576 357.981 370.753 358.05C370.93 358.119 371.123 358.137 371.31 358.1C371.83 357.93 371.87 357.22 371.79 356.68C371.6 355.42 371.46 354 371.18 352.69Z"
        fill="#F2C48F" />
    <path
        d="M457.171 436.53C452.841 437.1 447.171 440.05 443.311 445.41C448.022 450.052 453.389 453.977 459.241 457.06C466.791 460.66 472.451 459.72 474.731 457.21C478.001 453.64 470.621 445.2 457.171 436.53Z"
        fill="#FFD1A7" />
    <path opacity="0.3"
        d="M457.171 436.53C452.841 437.1 447.171 440.05 443.311 445.41C448.022 450.052 453.389 453.977 459.241 457.06C466.791 460.66 472.451 459.72 474.731 457.21C478.001 453.64 470.621 445.2 457.171 436.53Z"
        fill="white" />
    <path opacity="0.3"
        d="M457.171 436.53C452.841 437.1 447.171 440.05 443.311 445.41L444.041 446.11C451.711 444.72 456.941 439.3 458.541 437.43L457.171 436.53Z"
        fill="white" />
    <path
        d="M404.19 414.71C406.616 412.786 409.245 411.133 412.03 409.78C413.385 409.161 414.782 408.636 416.21 408.21C416.9 408.01 417.59 407.83 418.29 407.67C418.786 407.575 419.276 407.455 419.76 407.31L418.09 406L417.25 406.19C416.45 406.38 415.66 406.63 414.87 406.9C413.455 407.38 412.081 407.972 410.76 408.67C408.122 410.003 405.75 411.805 403.76 413.99C403.52 414.27 403.88 415 404.19 414.71Z"
        fill="#F2C48F" />
    <path
        d="M447.39 428.85L446.47 428.98C444.802 429.259 443.164 429.698 441.58 430.29C440.027 430.864 438.562 431.656 437.23 432.64C435.964 433.512 434.986 434.741 434.42 436.17C434.42 436.25 434.42 436.53 434.56 436.45C435.196 436.062 435.795 435.617 436.35 435.12C436.94 434.67 437.56 434.25 438.17 433.83C439.385 433.019 440.699 432.367 442.08 431.89C443.513 431.408 444.985 431.05 446.48 430.82C447.2 430.71 447.92 430.61 448.65 430.53L449.47 430.46L447.39 428.85Z"
        fill="#F2C48F" />
    <path
        d="M419.48 413.48C420.476 413.014 421.354 412.33 422.05 411.48C422.35 411.01 421.78 410.43 421.28 410.61C420.29 411.061 419.337 411.59 418.43 412.19C417.645 412.64 416.813 413.006 415.95 413.28C415.132 413.514 414.301 413.697 413.46 413.83C412.3 414.02 411.12 414.18 409.95 414.34C409.36 414.42 409.71 415.28 410.16 415.34C412.414 415.575 414.692 415.358 416.86 414.7C417.776 414.391 418.655 413.982 419.48 413.48Z"
        fill="#F2C48F" />
    <path
        d="M349.811 411.29L350.331 411.37C350.233 411.018 350.261 410.643 350.411 410.31C351.001 409.1 352.891 408.44 355.621 409.46C357.86 410.303 360.047 411.278 362.171 412.38C359.281 410.68 356.221 409.33 353.171 407.84C348.991 405.77 344.911 403.52 340.831 401.27C333.326 397.098 326.137 392.382 319.321 387.16C318.731 386.7 318.651 387.81 319.021 388.16C324.691 393.16 330.481 398.5 337.021 402.31C338.934 403.394 340.778 404.596 342.541 405.91C342.704 406.001 342.826 406.151 342.881 406.33C342.89 406.435 342.866 406.541 342.813 406.633C342.759 406.724 342.678 406.796 342.581 406.84C342.387 406.917 342.18 406.955 341.971 406.95C340.098 406.901 338.238 406.626 336.431 406.13L334.431 405.66C334.374 405.764 334.35 405.883 334.362 406.001C334.375 406.119 334.423 406.23 334.501 406.32C334.657 406.501 334.852 406.644 335.071 406.74C337.427 407.858 339.889 408.736 342.421 409.36C344.871 410 347.291 410.82 349.811 411.29Z"
        fill="#F2C48F" />
    <path
        d="M296.37 251.89C288.69 247.49 278.11 248.14 266.37 254.89C243 268.43 224 301.33 224 328.39C224 341.92 228.75 351.39 236.43 355.86L205.58 339.81C197.01 334.17 192.58 321.81 194.53 304.98C198 275.36 220.05 243.06 243.77 232.85C255.19 227.93 262.32 228.47 271.54 234.85L296.37 251.89Z"
        fill="#F5F5F5" />
    <path
        d="M204.331 317.26C203.811 321.73 205.921 327.26 209.051 329.58C212.181 331.9 215.141 330.18 215.661 325.7C216.181 321.22 214.081 315.7 210.951 313.38C207.821 311.06 204.861 312.78 204.331 317.26Z"
        fill="#E0E0E0" />
    <path
        d="M207.729 316.2C207.691 316.571 207.741 316.945 207.874 317.293C208.008 317.64 208.222 317.951 208.5 318.2C209 318.58 209.5 318.3 209.57 317.57C209.607 317.2 209.557 316.826 209.423 316.478C209.29 316.131 209.076 315.82 208.8 315.57C208.3 315.19 207.809 315.47 207.729 316.2Z"
        fill="#F5F5F5" />
    <path
        d="M211.802 319.72C211.763 320.09 211.812 320.463 211.944 320.811C212.076 321.158 212.288 321.47 212.562 321.72C213.072 322.1 213.562 321.82 213.642 321.09C213.679 320.72 213.629 320.346 213.496 319.998C213.362 319.651 213.148 319.34 212.872 319.09C212.362 318.71 211.882 319 211.802 319.72Z"
        fill="#F5F5F5" />
    <path
        d="M206.121 321.66C206.084 322.03 206.135 322.404 206.268 322.752C206.402 323.099 206.615 323.41 206.891 323.66C207.401 324.04 207.891 323.76 207.961 323.03C208.001 322.66 207.953 322.287 207.821 321.939C207.689 321.591 207.476 321.28 207.201 321.03C206.691 320.65 206.211 320.93 206.121 321.66Z"
        fill="#F5F5F5" />
    <path
        d="M210.45 325.75C210.409 326.119 210.456 326.494 210.588 326.842C210.72 327.189 210.934 327.501 211.21 327.75C211.72 328.13 212.21 327.85 212.29 327.12C212.326 326.749 212.274 326.376 212.141 326.029C212.007 325.682 211.795 325.371 211.52 325.12C211 324.74 210.53 325 210.45 325.75Z"
        fill="#F5F5F5" />
    <path
        d="M278.63 232.83C269.99 227.93 258.1 228.68 244.97 236.26C218.58 251.51 197.17 288.59 197.17 319.06C197.17 334.06 202.37 344.73 210.82 349.81L44.8203 253.86C36.1703 248.86 30.8203 238.16 30.8203 222.92C30.8203 192.44 52.2303 155.37 78.6303 140.13C91.8203 132.51 103.78 131.79 112.43 136.78L278.63 232.83Z"
        fill="#455A64" />
    <path
        d="M62.46 307.44L233.22 406.08L250.07 396.35L255.68 432.01L193.92 428.77L210.76 419.04L40 320.41L62.46 307.44Z"
        fill="white" />
    <path
        d="M62.46 307.44L233.22 406.08L250.07 396.35L255.68 432.01L193.92 428.77L210.76 419.04L40 320.41L62.46 307.44Z"
        fill="url(#paint0_linear_1_2940)" />
    <g opacity="0.4">
        <path
            d="M62.46 307.44L233.22 406.08L250.07 396.35L255.68 432.01L193.92 428.77L210.76 419.04L40 320.41L62.46 307.44Z"
            fill="white" />
        <path
            d="M62.46 307.44L233.22 406.08L250.07 396.35L255.68 432.01L193.92 428.77L210.76 419.04L40 320.41L62.46 307.44Z"
            fill="url(#paint1_linear_1_2940)" fill-opacity="0.6" />
    </g>
    <path
        d="M74.61 384.58L135 419.42L149.34 411.14L154.12 441.49L101.56 438.73L115.89 430.45L55.5 395.62L74.61 384.58Z"
        fill="white" />
    <path
        d="M74.61 384.58L135 419.42L149.34 411.14L154.12 441.49L101.56 438.73L115.89 430.45L55.5 395.62L74.61 384.58Z"
        fill="url(#paint2_linear_1_2940)" />
    <path
        d="M398.579 241.65L451.929 272.42L464.589 265.11L468.809 291.92L422.379 289.48L435.039 282.17L381.699 251.4L398.579 241.65Z"
        fill="white" />
    <path
        d="M398.579 241.65L451.929 272.42L464.589 265.11L468.809 291.92L422.379 289.48L435.039 282.17L381.699 251.4L398.579 241.65Z"
        fill="url(#paint3_linear_1_2940)" />
    <g opacity="0.7">
        <path
            d="M398.579 241.65L451.929 272.42L464.589 265.11L468.809 291.92L422.379 289.48L435.039 282.17L381.699 251.4L398.579 241.65Z"
            fill="white" />
        <path
            d="M398.579 241.65L451.929 272.42L464.589 265.11L468.809 291.92L422.379 289.48L435.039 282.17L381.699 251.4L398.579 241.65Z"
            fill="url(#paint4_linear_1_2940)" fill-opacity="0.4" />
    </g>
    <path
        d="M288.55 75.6497C285.94 75.2597 284.2 74.4197 283.86 73.0397C283.766 72.2716 283.927 71.494 284.317 70.8258C284.707 70.1576 285.305 69.6356 286.02 69.3397C287.808 68.6494 289.739 68.4123 291.64 68.6497C291.4 66.2597 293.64 63.4297 295.77 62.2297C297.9 61.0297 301.9 60.7397 304.12 62.5797C304.76 58.2897 307.52 56.1897 311.84 54.6797C313.711 54.0367 315.717 53.895 317.659 54.2687C319.601 54.6424 321.412 55.5185 322.91 56.8097C325.41 52.1297 332.91 49.3197 340.54 52.3897C343.557 53.6243 346.015 55.9229 347.45 58.8497C348.155 60.5249 348.551 62.3136 348.62 64.1297C349.653 63.4149 350.866 63.0042 352.121 62.9441C353.376 62.884 354.623 63.1769 355.72 63.7897C356.56 64.3144 357.242 65.0557 357.696 65.9355C358.15 66.8154 358.359 67.8013 358.3 68.7897C359.882 68.8831 361.437 69.2414 362.9 69.8497C364.56 70.5497 366.29 72.1097 365.69 73.7497C365.23 74.9897 363.69 75.4797 362.33 75.6697C359.627 76.0447 356.876 75.8747 354.24 75.1697C351.773 76.7882 348.872 77.617 345.923 77.5455C342.973 77.474 340.116 76.5058 337.73 74.7697C336.651 75.5885 335.511 76.3239 334.32 76.9697C333.05 77.5302 331.701 77.8878 330.32 78.0297C328.01 78.2797 324.75 77.8497 322.94 76.3297C322.717 76.0755 322.413 75.906 322.08 75.8497C321.819 75.8688 321.568 75.9549 321.35 76.0997C319.58 77.036 317.583 77.4574 315.586 77.316C313.588 77.1746 311.671 76.476 310.05 75.2997C307.969 77.1635 305.245 78.1433 302.453 78.0313C299.662 77.9192 297.025 76.7242 295.1 74.6997C293.051 75.6309 290.779 75.9604 288.55 75.6497Z"
        fill="white" />
    <path
        d="M467.77 119.929C470.16 119.569 471.77 118.799 472.09 117.529C472.174 116.82 472.024 116.103 471.663 115.488C471.302 114.872 470.75 114.391 470.09 114.119C468.444 113.49 466.669 113.273 464.92 113.489C465.14 111.289 463.11 108.689 461.11 107.579C459.11 106.469 455.48 106.219 453.43 107.899C452.84 103.899 450.3 102.019 446.33 100.639C444.605 100.05 442.756 99.9253 440.967 100.276C439.179 100.627 437.514 101.442 436.14 102.639C433.83 98.3292 426.97 95.7492 419.92 98.5692C417.13 99.7123 414.863 101.85 413.56 104.569C412.904 106.106 412.538 107.75 412.48 109.419C411.546 108.753 410.444 108.36 409.3 108.286C408.155 108.212 407.012 108.459 406 108.999C405.232 109.477 404.606 110.152 404.187 110.954C403.768 111.756 403.573 112.656 403.62 113.559C402.164 113.653 400.734 113.991 399.39 114.559C397.86 115.199 396.27 116.639 396.83 118.149C397.25 119.289 398.67 119.739 399.92 119.909C402.405 120.257 404.936 120.101 407.36 119.449C409.628 120.941 412.298 121.704 415.013 121.638C417.727 121.572 420.356 120.679 422.55 119.079C423.544 119.824 424.594 120.493 425.69 121.079C426.848 121.597 428.079 121.934 429.34 122.079C431.47 122.309 434.47 121.909 436.13 120.509C436.336 120.277 436.614 120.122 436.92 120.069C437.162 120.086 437.396 120.166 437.6 120.299C439.227 121.158 441.063 121.545 442.899 121.416C444.735 121.287 446.498 120.647 447.99 119.569C449.908 121.278 452.416 122.174 454.983 122.07C457.55 121.965 459.976 120.868 461.75 119.009C463.628 119.882 465.716 120.201 467.77 119.929Z"
        fill="white" />
    <path opacity="0.15"
        d="M296.858 290.92C302.372 292.872 307.633 295.477 312.528 298.68C318.028 302.27 323.048 306.62 328.898 309.6C336.616 313.346 345.178 315.018 353.738 314.45C358.568 314.21 363.818 313.17 366.888 309.45C367.733 308.529 368.238 307.347 368.318 306.1C368.318 304.28 367.058 302.73 365.738 301.48C358.688 294.82 348.878 292.1 339.418 289.97C329.958 287.84 324.288 285.17 314.988 280.36C310.988 278.3 307.088 276.08 303.088 274.14L302.988 274.09C301.009 273.042 298.976 272.097 296.898 271.26C293.504 269.963 289.97 269.063 286.368 268.58C282.751 268.092 279.069 268.532 275.668 269.86C274.775 270.156 273.992 270.714 273.418 271.46C273.006 272.145 272.818 272.942 272.878 273.74C272.978 275.359 273.56 276.912 274.548 278.2C275.534 279.477 276.691 280.611 277.988 281.57C283.528 285.89 290.278 288.6 296.858 290.92Z"
        fill="#111111" />
    <path opacity="0.15"
        d="M186.14 270C191.655 271.945 196.917 274.547 201.81 277.75C207.31 281.35 212.33 285.7 218.18 288.68C225.891 292.427 234.445 294.102 243 293.54C247.83 293.3 253.08 292.25 256.15 288.54C256.992 287.617 257.496 286.436 257.58 285.19C257.58 283.37 256.32 281.81 255 280.56C248 273.9 238.16 271.17 228.7 269C219.24 266.83 213.57 264.21 204.27 259.39C200.27 257.33 196.37 255.12 192.37 253.17H192.27C190.292 252.118 188.259 251.173 186.18 250.34C182.785 249.04 179.252 248.137 175.65 247.65C172.029 247.167 168.345 247.608 164.94 248.93C164.05 249.233 163.271 249.794 162.7 250.54C162.287 251.222 162.099 252.016 162.16 252.81C162.258 254.43 162.84 255.984 163.83 257.27C164.815 258.547 165.973 259.681 167.27 260.64C172.81 265 179.56 267.68 186.14 270Z"
        fill="#111111" />
    <path opacity="0.15"
        d="M96.4188 187.21C101.859 189.133 107.049 191.702 111.879 194.86C117.299 198.41 122.259 202.7 128.019 205.64C135.634 209.328 144.076 210.976 152.519 210.42C157.289 210.19 162.459 209.16 165.519 205.48C166.353 204.57 166.851 203.402 166.929 202.17C166.929 200.38 165.689 198.85 164.379 197.62C157.439 191.05 147.759 188.36 138.429 186.26C129.099 184.16 123.509 181.53 114.339 176.78C110.409 174.78 106.549 172.57 102.589 170.65H102.499C100.55 169.61 98.5473 168.675 96.4988 167.85C93.1485 166.571 89.6623 165.682 86.1088 165.2C82.5413 164.729 78.9126 165.165 75.5588 166.47C74.6705 166.744 73.8838 167.277 73.2988 168C72.9065 168.678 72.7222 169.457 72.7688 170.24C72.8743 171.837 73.4482 173.367 74.4188 174.64C75.3904 175.904 76.5349 177.025 77.8188 177.97C83.2688 182.25 89.9388 184.92 96.4188 187.21Z"
        fill="#111111" />
    <path
        d="M88.4205 143.17C86.8505 142.85 85.1405 144.25 84.1005 146.98C83.0605 149.71 84.2305 152.13 83.6005 155.61C83.0705 158.5 81.6005 161.45 82.2405 164.46C82.4298 165.796 82.9289 167.07 83.6981 168.18C84.4672 169.289 85.4851 170.204 86.6705 170.85C89.2405 172.36 92.6705 172.11 93.1505 170.23C93.6305 168.35 88.4205 143.17 88.4205 143.17Z"
        fill="#263238" />
    <path
        d="M83.1106 162.66C83.0256 162.1 83.0256 161.53 83.1106 160.97C83.3706 159.21 83.9207 157.49 84.1907 155.73C84.359 154.112 84.4324 152.486 84.4107 150.86C84.4056 149.224 84.7463 147.605 85.4107 146.11C85.7361 145.383 86.2326 144.746 86.8578 144.253C87.483 143.761 88.2182 143.427 89.0006 143.28C89.759 143.248 90.5178 143.332 91.2506 143.53C93.0509 143.858 94.8832 143.975 96.7106 143.88C98.2027 143.741 99.662 143.36 101.031 142.75C102.621 142.12 105.891 140.31 105.891 140.31L105.491 151.53C105.491 151.53 102.491 152.03 101.081 152.37C99.6707 152.71 96.0006 154.26 94.8606 155.37C93.7206 156.48 93.4007 158.83 93.1907 160.46C93.064 161.277 92.9971 162.103 92.9906 162.93C92.9906 164.6 93.5007 166.27 93.1907 167.93C93.1297 168.338 92.9643 168.724 92.7106 169.05C92.3114 169.47 91.7766 169.735 91.2006 169.8C90.2234 169.925 89.2305 169.834 88.2923 169.533C87.354 169.233 86.4932 168.73 85.7706 168.06C84.2331 166.661 83.2826 164.731 83.1106 162.66Z"
        fill="#C8856A" />
    <path
        d="M83.5913 158.609C84.3913 159.959 87.0213 162.939 90.5913 162.919C91.2007 162.96 91.8044 162.78 92.2925 162.413C92.7807 162.046 93.1209 161.516 93.2513 160.919C93.2709 162.449 93.3945 163.976 93.6213 165.489C93.9613 167.359 94.1913 170.489 92.0713 170.989C89.9513 171.489 86.3413 170.119 84.5113 167.409C82.6813 164.699 82.3313 162.589 83.5913 158.609Z"
        fill="#37474F" />
    <path
        d="M93.4103 143.67C92.6703 146.67 87.1603 147.56 84.4103 152.37C84.2003 149.37 84.4703 146.8 85.9603 144.94C86.4439 144.247 87.114 143.706 87.8927 143.379C88.6714 143.051 89.527 142.951 90.3603 143.09C92.3503 143.46 93.4103 143.67 93.4103 143.67Z"
        fill="#37474F" />
    <path
        d="M142.52 107.85C142.52 107.85 143.71 126.69 140.11 139.36C137.87 147.25 129 148 127.11 148.36C118.7 150.17 103.11 152.05 103.11 152.05C103.11 152.05 99.0003 147.16 101.11 142.53C108.11 138.94 116.11 133.44 122.25 133.65L133.45 107L142.52 107.85Z"
        fill="#37474F" />
    <path
        d="M137.001 123.619C137.001 123.619 140.581 121.199 141.001 115.229L128.511 118.579L122.191 133.699C121.935 133.684 121.677 133.684 121.421 133.699H121.221L120.441 133.769L119.601 133.899H119.441L118.601 134.079C117.037 134.482 115.511 135.021 114.041 135.689L121.851 149.349L123.141 149.119H123.291L124.561 148.879L125.651 148.659L125.921 148.609L126.991 148.389C128.891 147.979 137.761 147.229 139.991 139.389C140.241 138.499 140.471 137.579 140.681 136.639L137.001 123.619Z"
        fill="#263238" />
    <path
        d="M148.241 187.519C147.501 187.519 147.411 186.519 146.961 184.169C146.511 181.819 145.371 171.689 145.371 171.689L132.631 175.939C132.631 175.939 136.721 184.939 137.631 187.399C138.631 190.119 140.101 193.239 140.301 195.339C140.501 197.439 140.521 203.289 143.041 204.399C145.561 205.509 147.951 204.399 149.651 203.279C151.351 202.159 153.371 198.279 155.271 196.279C157.171 194.279 158.751 193.279 160.221 191.199C161.691 189.119 161.681 184.029 159.761 182.909C157.841 181.789 155.061 182.909 153.421 183.909C151.781 184.909 149.621 187.459 148.241 187.519Z"
        fill="#C8856A" />
    <path
        d="M141.14 202.72C140.529 200.666 140.192 198.541 140.14 196.4C140.14 195.87 140.07 195.35 140.06 194.82C140.04 194.724 140.04 194.625 140.06 194.53C140.108 194.467 140.17 194.416 140.24 194.38C140.834 194.02 141.498 193.791 142.188 193.706C142.877 193.622 143.577 193.684 144.24 193.89C145.24 194.21 146.79 195.09 147.12 196.28C147.45 197.47 145.77 198.33 145.03 199.04L141.14 202.72Z"
        fill="#455A64" />
    <path
        d="M160.051 182.689C158.941 181.549 157.131 181.519 154.711 182.689C153.092 183.432 151.629 184.478 150.401 185.769C150.401 185.769 149.091 188.119 150.971 189.769C152.851 191.419 160.051 182.689 160.051 182.689Z"
        fill="#455A64" />
    <path
        d="M161.741 184.89C161.682 184.23 161.366 183.62 160.861 183.19C160.701 183.08 160.161 182.77 160.051 182.69C158.661 181.69 156.051 183.69 153.921 185.63C151.401 187.89 149.021 192.5 146.921 195.63C144.821 198.76 142.341 199.89 141.491 201.27C141.209 201.697 141.074 202.204 141.106 202.715C141.139 203.226 141.337 203.712 141.671 204.1C141.801 204.25 142.261 204.71 142.351 204.81C142.788 205.177 143.307 205.434 143.864 205.559C144.42 205.685 144.999 205.675 145.551 205.53C148.341 205.05 150.361 204.18 152.721 200.86C155.081 197.54 156.331 195.81 159.061 193.7C161.791 191.59 162.271 187.63 161.741 184.89Z"
        fill="#37474F" />
    <path
        d="M161.742 184.89C161.012 181.05 157.542 183.61 154.742 186.13C152.222 188.39 149.832 193 147.742 196.13C145.652 199.26 143.092 200.36 142.302 201.77C140.872 204.33 142.762 206.01 145.562 205.53C148.362 205.05 150.372 204.18 152.732 200.86C155.092 197.54 156.342 195.81 159.072 193.7C161.802 191.59 162.272 187.63 161.742 184.89Z"
        fill="#263238" />
    <path
        d="M115.921 102.8C111.521 107.87 109.511 112.24 109.311 116.69C109.244 121.113 110.37 125.473 112.571 129.31C116.221 136.12 119.161 140.18 127.251 155.63C127.157 160.239 128.05 164.815 129.871 169.05C133.021 177.14 136.781 185.83 136.781 185.83C136.781 185.83 139.591 180.74 146.781 181.49C146.401 177.49 144.021 158.49 142.861 152.93C141.411 145.93 135.191 122.98 135.191 122.98C137.52 121.213 139.4 118.923 140.679 116.294C141.958 113.665 142.599 110.772 142.551 107.85L115.921 102.8Z"
        fill="#37474F" />
    <path
        d="M146.001 48.5497C143.241 44.3897 138.681 41.7797 133.621 42.3597C126.441 43.1797 121.621 47.6797 118.501 54.0097C117.789 55.6863 116.912 57.2876 115.881 58.7897C112.721 62.8897 106.731 64.0297 101.771 62.5497C103.088 64.0323 104.786 65.1252 106.681 65.7097C104.493 65.647 102.341 65.133 100.361 64.1997C101.76 69.0408 104.988 73.1474 109.361 75.6497C113.901 78.2997 119.361 78.9097 124.471 79.2597C129.221 79.5797 134.711 77.0997 137.271 73.0697C138.306 71.2323 139.164 69.3001 139.831 67.2997C140.88 64.3133 142.429 61.527 144.411 59.0597C145.024 58.4216 145.42 57.6062 145.542 56.7299C145.664 55.8535 145.506 54.961 145.091 54.1797C146.841 52.9997 147.001 50.3397 146.001 48.5497Z"
        fill="#263238" />
    <path
        d="M182.231 82.7896C182.073 82.5575 181.992 82.2808 182.001 81.9996C182.04 81.7234 182.107 81.4519 182.201 81.1897C182.296 80.7424 182.262 80.2775 182.103 79.849C181.943 79.4205 181.666 79.0461 181.301 78.7696C181.441 77.9096 181.521 77.4796 181.671 76.6296C181.701 76.4935 181.68 76.3512 181.611 76.2297C181.583 76.1956 181.548 76.168 181.509 76.149C181.469 76.13 181.425 76.12 181.381 76.1197C180.969 76.0706 180.554 76.1815 180.221 76.4296C179.603 76.8797 179.116 77.4875 178.811 78.1897C178.044 79.5037 177.206 80.7755 176.301 81.9996C176.051 82.3096 174.511 84.5296 174.111 83.2197H170.881C170.287 84.1537 169.82 85.1625 169.491 86.2197C169.383 86.5384 169.253 86.8491 169.101 87.1497C168.47 88.2755 167.52 89.1903 166.371 89.7796C164.561 90.7796 157.101 95.0097 157.101 95.0097C157.101 95.0097 156.231 93.5396 152.781 85.8896C150.321 80.4596 146.781 73.1396 141.571 73.1396C141.571 73.1396 141.151 82.1396 140.941 88.5296C143.681 93.3196 148.061 101.06 150.291 103.96C152.911 107.36 154.771 108.67 157.561 107.27C162.441 104.82 166.661 100.13 169.671 97.4797C171.422 95.9098 173.321 94.5132 175.341 93.3096C176.577 92.6148 177.748 91.8117 178.841 90.9097C179.791 90.0897 181.841 87.7397 182.181 86.5797C182.301 86.1697 182.181 85.8096 182.311 85.4196C182.441 85.0296 182.701 84.7196 182.791 84.3196C182.931 83.6896 182.631 83.3897 182.231 82.7896Z"
        fill="#C8856A" />
    <path
        d="M157.101 94.9999C155.383 96.1564 154.055 97.8052 153.291 99.7299C153.323 98.4588 153.719 97.2234 154.431 96.1699C154.97 95.3129 155.735 94.6209 156.641 94.1699L157.101 94.9999Z"
        fill="#AF6152" />
    <path
        d="M155.571 90.9404C153.621 86.9404 150.461 80.5204 148.971 78.0504C146.721 74.3304 145.411 73.6404 141.581 72.9004L140.941 90.4704C140.941 90.4704 143.011 93.6804 145.281 97.1104C149.103 95.7916 152.608 93.6902 155.571 90.9404Z"
        fill="#E0E0E0" />
    <path
        d="M175.001 87.0897C175.091 86.7623 175.151 86.4277 175.181 86.0897C175.257 85.7607 175.257 85.4187 175.181 85.0897C175.181 84.9997 174.971 84.8697 174.911 85.0197C174.832 85.3207 174.781 85.6289 174.761 85.9397C174.717 86.2327 174.657 86.5231 174.581 86.8097C174.428 87.3839 174.192 87.9329 173.881 88.4397C173.582 88.9227 173.199 89.3492 172.751 89.6997C172.327 90.0134 171.879 90.2943 171.411 90.5397C171.411 90.5397 171.351 90.6897 171.411 90.6897C171.998 90.6027 172.559 90.3861 173.052 90.0558C173.545 89.7254 173.958 89.2895 174.261 88.7797C174.602 88.2624 174.852 87.6909 175.001 87.0897Z"
        fill="#AF6152" />
    <path
        d="M174.111 83.1997C174.059 82.9417 174.084 82.6742 174.181 82.4297C174.399 81.6632 174.484 80.8649 174.431 80.0697C174.428 79.7483 174.356 79.4312 174.221 79.1397C174.051 78.7997 173.551 78.3597 173.151 78.6097C172.751 78.8597 172.631 79.6797 172.471 80.0297C172.009 81.1259 171.478 82.1914 170.881 83.2197"
        fill="#C8856A" />
    <path
        d="M116.842 98C116.982 99.58 117.242 101.23 115.922 102.83C117.022 107.14 126.402 109.64 132.572 109.72C141.042 109.82 142.572 107.88 142.572 107.88L143.082 102.51L116.842 98Z"
        fill="#C8856A" />
    <path
        d="M149.38 86.8696C147.15 79.4096 141.58 72.8696 141.58 72.8696C140.28 72.6296 130.81 71.3796 130.81 71.3796L121.27 72.0196C119.48 73.0896 118.08 74.7796 116.6 77.9096C115.97 79.2496 114.68 84.3396 115.01 86.4896C115.719 90.1948 116.213 93.9376 116.49 97.6996C116.64 100.7 114.58 101.76 115.38 103.4C119.96 111.23 138.7 113.06 142.5 108.5C143.84 106.59 144.12 102.76 144.84 97.7396C150.33 96.2496 150.47 90.5196 149.38 86.8696Z"
        fill="#F0F0F0" />
    <path
        d="M135.832 97.0697C134.461 97.7424 132.954 98.0922 131.427 98.0922C129.9 98.0922 128.393 97.7424 127.022 97.0697C122.552 94.7797 122.272 90.5297 122.822 88.9397C122.822 88.9397 120.232 95.6397 125.822 98.5597C132.752 102.21 135.832 97.0697 135.832 97.0697Z"
        fill="#E0E0E0" />
    <path
        d="M127.332 69.5904C127.332 68.5904 127.332 63.6604 127.332 63.6604C127.332 64.0504 125.052 65.0804 123.392 63.0404C122.694 62.3251 122.281 61.3795 122.232 60.3814C122.182 59.3834 122.498 58.4015 123.122 57.6204C124.272 56.1304 126.772 56.2604 127.722 58.7404C128.472 58.7404 129.722 58.6504 129.392 54.7404C129.532 50.0504 134.172 46.2904 137.922 49.6304C139.482 47.0404 142.622 48.1504 143.722 50.7404C144.332 52.3504 144.532 52.9004 144.142 55.9204C144.409 57.1965 144.547 58.4965 144.552 59.8004C144.282 65.4204 142.762 67.0604 141.082 68.1504C139.821 68.9065 138.326 69.1734 136.882 68.9004V70.2604C136.882 71.1304 136.802 71.8304 137.612 72.1504C138.203 72.3338 138.809 72.4709 139.422 72.5604C139.422 72.5604 143.362 78.5604 135.672 79.3904C128.262 80.1604 125.062 71.7904 125.062 71.7904C125.573 71.8018 126.082 71.717 126.562 71.5404C127.082 71.1904 127.302 70.6304 127.332 69.5904Z"
        fill="#C8856A" />
    <path
        d="M134.852 62.2002L137.752 63.2002C137.695 63.3931 137.6 63.5727 137.473 63.7281C137.345 63.8835 137.187 64.0117 137.009 64.105C136.831 64.1983 136.636 64.2548 136.435 64.2712C136.235 64.2875 136.033 64.2634 135.842 64.2002C135.451 64.0593 135.129 63.7724 134.944 63.3995C134.76 63.0267 134.727 62.5969 134.852 62.2002Z"
        fill="#AF6152" />
    <path
        d="M135.003 62.8799C135.392 62.8765 135.77 63.0083 136.072 63.2526C136.375 63.497 136.584 63.8389 136.663 64.2199C136.385 64.3043 136.09 64.3043 135.812 64.2199C135.544 64.1163 135.309 63.9414 135.133 63.7141C134.957 63.4867 134.846 63.2156 134.812 62.9299L135.003 62.8799Z"
        fill="#F2C48F" />
    <path
        d="M143.212 54.1205L141.152 53.0005C141.221 52.863 141.317 52.7408 141.433 52.6412C141.55 52.5416 141.686 52.4667 141.833 52.4209C141.98 52.3751 142.134 52.3595 142.287 52.3749C142.44 52.3903 142.588 52.4364 142.722 52.5105C142.993 52.6663 143.195 52.9195 143.286 53.2186C143.377 53.5176 143.351 53.8401 143.212 54.1205Z"
        fill="#263238" />
    <path
        d="M132.691 54.2405L134.751 53.0005C134.679 52.8623 134.58 52.7404 134.459 52.6421C134.338 52.5439 134.198 52.4715 134.048 52.4293C133.898 52.3871 133.742 52.3761 133.587 52.397C133.433 52.4178 133.284 52.4701 133.151 52.5505C132.87 52.7175 132.665 52.9872 132.579 53.3025C132.494 53.6178 132.534 53.9541 132.691 54.2405Z"
        fill="#263238" />
    <path
        d="M140.821 56.49C140.796 56.7523 140.875 57.0139 141.042 57.218C141.208 57.4221 141.449 57.5522 141.711 57.58C141.962 57.5979 142.211 57.5202 142.408 57.3627C142.604 57.2051 142.734 56.9791 142.771 56.73C142.796 56.4693 142.718 56.209 142.554 56.0052C142.389 55.8013 142.151 55.6702 141.891 55.64C141.638 55.6195 141.387 55.6959 141.188 55.8537C140.989 56.0115 140.858 56.239 140.821 56.49Z"
        fill="#263238" />
    <path
        d="M133.723 56.54C133.7 56.7991 133.779 57.0568 133.944 57.2585C134.108 57.4601 134.344 57.5898 134.603 57.62C134.728 57.6382 134.857 57.6306 134.979 57.5978C135.102 57.565 135.217 57.5076 135.317 57.4291C135.417 57.3505 135.5 57.2525 135.561 57.141C135.623 57.0294 135.66 56.9066 135.673 56.78C135.698 56.5177 135.618 56.2561 135.452 56.052C135.285 55.8479 135.045 55.7178 134.783 55.69C134.531 55.6722 134.283 55.7498 134.086 55.9074C133.889 56.0649 133.76 56.2909 133.723 56.54Z"
        fill="#263238" />
    <path d="M141.422 59.7204L138.292 61.1404L137.772 55.1604L141.422 59.7204Z" fill="#AF6152" />
    <path
        d="M136.873 68.9108C133.153 68.4708 129.593 67.3808 128.723 65.0908C128.756 65.7617 128.965 66.4121 129.328 66.9771C129.691 67.5422 130.196 68.002 130.793 68.3108C132.654 69.3475 134.734 69.93 136.863 70.0108L136.873 68.9108Z"
        fill="#AF6152" />
    <path
        d="M107.591 118.92C106.915 118.009 106.388 116.996 106.031 115.92C106.031 115.06 107.681 116.92 108.341 117.27C108.597 117.427 108.882 117.531 109.179 117.577C109.476 117.624 109.779 117.611 110.071 117.54C110.451 117.48 111.001 116.99 110.891 116.61C110.891 116.53 110.801 116.49 110.741 116.44C109.838 115.58 109.011 114.643 108.271 113.64C107.546 112.654 106.75 111.721 105.891 110.85C104.849 110.062 104.111 108.938 103.801 107.67C103.071 102.57 103.091 99.8397 102.671 94.8497C106.671 92.5597 112.671 89.0297 114.401 88.0297C116.665 86.8567 118.507 85.0077 119.671 82.7397C121.081 79.7397 121.971 74.2597 121.221 72.4697C113.711 72.9697 111.751 74.7797 107.881 77.5297C105.691 79.0797 104.271 80.0597 100.811 82.7697C99.071 84.1197 97.341 85.1697 94.221 87.8897C93.4234 88.4687 92.8185 89.2743 92.485 90.2017C92.1515 91.1291 92.1048 92.1354 92.351 93.0897C92.8403 95.8849 93.4779 98.6522 94.261 101.38C94.881 103.55 97.261 112.81 97.451 114.11C97.6932 115.509 98.0579 116.884 98.541 118.22C99.2528 119.869 100.271 121.369 101.541 122.64C101.861 122.87 102.221 122.89 102.541 123.13C102.861 123.37 103.031 123.71 103.371 123.92C103.871 124.25 104.241 124.08 104.911 123.92C105.167 123.834 105.445 123.834 105.701 123.92C105.935 124.048 106.156 124.198 106.361 124.37C106.729 124.601 107.156 124.724 107.591 124.724C108.026 124.724 108.453 124.601 108.821 124.37L110.621 125.37C110.73 125.441 110.862 125.47 110.991 125.45C111.032 125.439 111.069 125.417 111.099 125.388C111.129 125.358 111.15 125.321 111.161 125.28C111.342 124.928 111.381 124.52 111.271 124.14C111.074 123.44 110.69 122.808 110.161 122.31C109.248 121.224 108.39 120.092 107.591 118.92Z"
        fill="#C8856A" />
    <path
        d="M121.272 72.0496C115.152 72.4996 114.992 71.9896 108.132 76.8696C105.272 78.8696 102.572 80.8696 100.262 82.6396C101.285 86.7527 103.751 90.3616 107.212 92.8096C110.692 90.8096 115.292 88.2096 116.862 87.1396C119.522 85.3496 122.942 77.7796 121.272 72.0496Z"
        fill="#E0E0E0" />
    <path
        d="M174.001 249.411C173.866 248.875 173.815 248.322 173.851 247.771C173.908 246.285 174.301 244.832 175.001 243.521C175.92 242.234 176.729 240.872 177.421 239.451C178.067 237.923 178.517 236.321 178.761 234.681C178.838 233.323 179.08 231.98 179.481 230.681C181.071 226.941 185.221 227.511 187.611 227.201L196.371 221.431L199.001 233.001C199.001 233.001 194.331 234.481 193.001 235.131C191.191 235.991 189.441 238.131 188.301 239.731C186.861 241.731 185.081 243.731 184.961 246.311C184.951 247.698 185.091 249.083 185.381 250.441C185.461 250.829 185.481 251.227 185.441 251.621C185.281 252.701 184.291 253.421 183.381 254.021C181.911 255.021 180.141 256.021 178.481 255.411C177.564 254.989 176.781 254.321 176.221 253.481C175.2 252.297 174.443 250.91 174.001 249.411Z"
        fill="#FFD1A7" />
    <path
        d="M184.54 256.211C184.262 256.558 183.913 256.841 183.516 257.041C183.12 257.241 182.684 257.354 182.24 257.371C181.641 257.378 181.043 257.311 180.46 257.171C179.404 256.914 178.393 256.499 177.46 255.941C174.55 254.261 172.58 251.401 172.4 248.941C172.24 246.711 174.11 242.091 174.61 240.791C175.123 239.363 175.328 237.843 175.21 236.331C175.127 234.787 175.204 233.239 175.44 231.711C175.499 231.11 175.665 230.524 175.93 229.981C176.325 229.321 176.959 228.837 177.7 228.631C177.97 228.551 178.84 228.571 178.98 228.291C178.284 229.608 177.868 231.055 177.76 232.541C177.87 234.211 177.48 241.451 176.76 243.321C176.428 244.592 176.356 245.916 176.549 247.215C176.741 248.514 177.194 249.761 177.88 250.881C179.37 253.141 185.06 255.491 185.06 255.491L184.54 256.211Z"
        fill="#263238" />
    <path
        d="M176.37 238.79C176.212 240.029 175.875 241.238 175.37 242.38C174.19 245.17 173.37 248.48 174.81 251.38C175.414 252.527 176.307 253.495 177.4 254.19C178.47 254.909 179.625 255.49 180.84 255.92C182.024 256.381 183.316 256.489 184.56 256.23C185 255.943 185.362 255.552 185.615 255.092C185.868 254.631 186.003 254.116 186.01 253.59C186.01 251.74 185.69 249.9 185.72 248.05C185.654 247.12 185.715 246.185 185.9 245.27C186.64 242.74 188.42 240.35 189.72 238.05C189.884 237.878 190.006 237.671 190.077 237.444C190.148 237.217 190.166 236.977 190.129 236.742C190.092 236.507 190.002 236.283 189.865 236.089C189.728 235.895 189.549 235.734 189.34 235.62C188.631 235.019 187.887 234.461 187.11 233.95C186.975 233.832 186.815 233.745 186.642 233.697C186.469 233.648 186.287 233.639 186.11 233.67C185.76 233.77 185.58 234.13 185.39 234.43C185.2 234.73 184.89 235.06 184.54 234.98C184.742 234.503 184.844 233.989 184.84 233.47C184.74 232.08 182.84 231.41 183.44 229.78C183.722 229.197 184.195 228.728 184.78 228.45C185.675 227.965 186.608 227.554 187.57 227.22C187.58 227.154 187.576 227.087 187.557 227.023C187.539 226.959 187.506 226.899 187.463 226.849C187.419 226.798 187.365 226.758 187.304 226.731C187.243 226.703 187.177 226.69 187.11 226.69C186.65 226.69 186.19 226.74 185.73 226.79L182.61 227.08C181.655 227.184 180.709 227.358 179.78 227.6C179.336 227.685 178.91 227.844 178.52 228.07C177.947 228.503 177.524 229.105 177.31 229.79C176.727 231.272 176.389 232.84 176.31 234.43C176.3 235.87 176.53 237.34 176.37 238.79Z"
        fill="#37474F" />
    <path
        d="M233.321 184.081C234.136 193.963 233.581 203.911 231.671 213.641C230.031 222.111 220.951 224.921 219.081 225.721C210.761 229.261 195.031 234.311 195.031 234.311C195.031 234.311 189.811 230.071 191.121 224.881C197.621 219.771 204.771 212.511 211.121 211.501L216.601 183.501L233.321 184.081Z"
        fill="#37474F" />
    <path
        d="M231.39 214.791L226.74 198.891C228.092 197.585 229.17 196.023 229.912 194.296C230.654 192.568 231.044 190.711 231.06 188.831L215 193.281L214.61 194.111L211.2 211.501C208.33 211.951 205.32 213.661 202.27 215.871L209.14 229.531C212.71 228.261 216.32 226.901 219.14 225.721C220.86 225.001 229.19 222.361 231.39 214.791Z"
        fill="#263238" />
    <path
        d="M238.36 266.17C237.56 266.23 237.52 265.17 237.18 262.71C236.81 259.99 235.38 249.36 235.38 249.36L222.58 254.36C222.58 254.36 225.9 263.12 226.94 265.64C228.1 268.45 229.72 272.29 229.99 274.48C230.26 276.67 230.38 282.75 233.11 283.84C235.84 284.93 238.39 283.69 240.2 282.5C242.01 281.31 244.1 277.19 246.1 275.1C248.1 273.01 249.79 271.84 251.33 269.68C252.87 267.52 252.76 262.17 250.67 261.06C248.58 259.95 245.61 261.22 243.86 262.27C242.11 263.32 239.84 266.07 238.36 266.17Z"
        fill="#FFD1A7" />
    <path
        d="M201.39 182.141C201.17 183.271 199.56 188.351 199.28 193.021C198.93 199.101 199.93 203.221 201.91 206.911C205.74 214.071 207.7 215.911 216.2 232.141C216.111 236.99 217.066 241.802 219 246.251C222.31 254.751 226.26 263.881 226.26 263.881C226.26 263.881 229.26 258.531 236.74 259.321C236.34 255.131 233.84 235.201 232.62 229.321C231.1 221.991 224.56 197.851 224.56 197.851C224.56 197.851 232.86 195.451 232.66 182.161L201.39 182.141Z"
        fill="#37474F" />
    <path
        d="M251.002 260.84C249.782 259.68 247.842 259.7 245.262 260.98C243.54 261.794 241.987 262.924 240.682 264.31C240.292 264.78 239.892 265.14 239.232 264.92C239.018 264.834 238.811 264.734 238.612 264.62C237.172 263.88 235.422 264.51 233.992 265.26C233.839 265.326 233.705 265.429 233.602 265.56C233.352 265.96 233.782 266.43 234.172 266.69C234.563 266.96 234.902 267.299 235.172 267.69L234.082 267.42C233.867 267.346 233.637 267.325 233.412 267.36C233.012 267.44 232.752 267.83 232.562 268.19C232.31 268.67 232.102 269.172 231.942 269.69C231.854 270.198 231.633 270.674 231.302 271.07C231.12 271.24 230.896 271.357 230.652 271.408C230.409 271.459 230.156 271.442 229.922 271.36C229.677 271.284 229.453 271.155 229.264 270.982C229.076 270.81 228.928 270.597 228.832 270.36C228.832 270.36 228.762 270.43 228.722 270.64C228.687 270.774 228.687 270.916 228.722 271.05C228.863 271.421 229.023 271.785 229.202 272.14C229.557 273.303 229.768 274.506 229.832 275.72C229.943 277.949 230.357 280.152 231.062 282.27L244.512 269.27L243.622 268.13C246.582 266.23 251.002 260.84 251.002 260.84Z"
        fill="#37474F" />
    <path
        d="M252.831 263.081C252.789 262.739 252.678 262.409 252.507 262.11C252.335 261.811 252.105 261.55 251.831 261.341C251.661 261.231 251.071 260.911 250.951 260.841C249.441 259.841 246.721 261.971 244.421 264.051C241.751 266.481 239.281 271.341 237.121 274.631C234.961 277.921 232.281 279.191 231.391 280.631C231.097 281.08 230.962 281.615 231.009 282.151C231.056 282.686 231.283 283.19 231.651 283.581C231.781 283.731 232.291 284.211 232.391 284.301C232.874 284.674 233.437 284.93 234.036 285.046C234.636 285.163 235.254 285.137 235.841 284.971C238.841 284.401 240.991 283.451 243.471 279.921C245.951 276.391 247.251 274.571 250.141 272.301C253.031 270.031 253.441 265.921 252.831 263.081Z"
        fill="#37474F" />
    <path
        d="M252.83 263.081C251.96 259.081 248.28 261.861 245.31 264.551C242.64 266.981 240.17 271.841 238.01 275.131C235.85 278.421 233.1 279.651 232.28 281.131C230.79 283.841 232.86 285.551 235.85 284.971C238.84 284.391 241 283.451 243.48 279.921C245.96 276.391 247.26 274.571 250.15 272.301C253.04 270.031 253.44 265.921 252.83 263.081Z"
        fill="#263238" />
    <path
        d="M268.671 137.361C268.551 136.931 268.251 136.671 268.151 136.251C268.051 135.831 268.151 135.411 268.001 134.991C267.791 134.361 267.361 134.251 266.671 133.931C266.395 133.813 266.162 133.614 266.001 133.361C265.891 133.09 265.807 132.808 265.751 132.521C265.596 132.067 265.316 131.666 264.943 131.365C264.569 131.064 264.118 130.875 263.641 130.821C263.301 129.961 263.131 129.541 262.811 128.691C262.791 128.621 262.756 128.555 262.71 128.498C262.663 128.441 262.606 128.395 262.541 128.361C262.501 128.338 262.456 128.326 262.411 128.326C262.365 128.326 262.32 128.338 262.281 128.361C261.88 128.533 261.564 128.857 261.401 129.261C261.08 129.997 260.97 130.806 261.081 131.601C261.095 133.187 261.028 134.772 260.881 136.351C260.831 136.771 260.631 139.601 259.561 138.641C259.383 138.433 259.265 138.181 259.221 137.911C258.999 137.101 258.644 136.334 258.171 135.641C257.992 135.354 257.757 135.106 257.481 134.911C257.141 134.701 256.481 134.571 256.231 135.011C255.981 135.451 256.331 136.251 256.381 136.661C256.554 137.897 256.648 139.143 256.661 140.391C256.621 141.552 256.742 142.713 257.021 143.841C257.089 144.191 257.136 144.545 257.161 144.901C257.195 146.253 256.83 147.585 256.111 148.731C255.041 150.651 250.561 158.451 250.561 158.451C250.561 158.451 248.981 157.581 241.751 152.541C236.611 148.961 236.241 147.261 230.041 146.301C230.041 146.301 229.241 155.411 232.481 161.301C237.541 164.141 245.661 168.781 249.241 170.191C253.431 171.851 255.811 172.031 257.571 169.271C260.661 164.421 261.941 157.921 263.241 153.901C263.977 151.548 264.939 149.271 266.111 147.101C266.855 145.807 267.481 144.448 267.981 143.041C268.401 141.821 269.001 138.591 268.671 137.361Z"
        fill="#FFD1A7" />
    <path
        d="M228.809 145.511C235.549 146.761 235.009 147.301 239.869 150.671C244.729 154.041 250.559 157.551 250.559 157.551L255.249 150.291C255.737 151.763 256.57 153.096 257.679 154.181C259.679 156.341 263.339 155.121 263.339 155.121C263.339 155.121 261.189 163.491 258.759 168.071C256.329 172.651 254.959 173.321 249.759 171.071C244.559 168.821 232.299 162.441 232.299 162.441L228.809 145.511Z"
        fill="#37474F" />
    <path
        d="M262.5 141.681C262.404 141.336 262.277 141.001 262.12 140.681C262.002 140.363 261.814 140.076 261.57 139.841C261.48 139.771 261.26 139.751 261.29 139.921C261.376 140.236 261.497 140.541 261.65 140.831C261.76 141.121 261.86 141.411 261.95 141.711C262.119 142.309 262.2 142.929 262.19 143.551C262.183 144.153 262.067 144.749 261.85 145.311C261.641 145.822 261.387 146.314 261.09 146.781C261.09 146.781 261.09 146.961 261.18 146.921C261.662 146.525 262.049 146.027 262.316 145.463C262.582 144.9 262.72 144.284 262.72 143.661C262.764 142.993 262.689 142.322 262.5 141.681Z"
        fill="#F2C48F" />
    <path
        d="M250.558 157.551C249.028 159.981 249.108 163.951 249.108 163.951C248.528 162.806 248.308 161.513 248.478 160.241C248.607 159.08 248.993 157.963 249.608 156.971L250.558 157.551Z"
        fill="#263238" />
    <path
        d="M235.64 162.001C235.98 151.321 231.86 147.201 230.04 146.321L219.14 144.631C216.81 144.751 208.34 146.191 205.59 146.691C203.81 147.021 201.03 150.791 200.83 157.631C200.69 162.241 201.49 166.771 201.5 174.131C201.51 181.491 200.7 182.811 199.69 188.501C206.23 193.991 228.41 194.651 233.75 188.821C233.75 183.121 234.12 178.451 234.41 174.821C234.7 171.191 235.54 164.901 235.64 162.001Z"
        fill="#F5F5F5" />
    <path
        d="M225.14 155.651C225.218 152.955 225.088 150.257 224.75 147.581L225.14 144.921L228.14 148.051L226.66 150.851L227.74 152.441L225.14 155.651Z"
        fill="#E0E0E0" />
    <path
        d="M224 144.641C227.635 147.955 230.344 152.16 231.86 156.841C234.2 164.401 234.57 173.611 234.63 173.061C234.69 172.511 237 162.001 235.66 154.511C234.32 147.021 229.37 145.511 229.37 145.511L224 143.061V144.641Z"
        fill="#455A64" />
    <path
        d="M215 140.471C214.71 137.861 212.3 135.021 211.27 132.701C210.24 130.381 209.72 128.701 209.96 126.701C210.11 125.491 210.96 123.901 211.88 123.601C211.715 122.857 211.703 122.088 211.844 121.34C211.985 120.591 212.276 119.879 212.701 119.247C213.126 118.615 213.674 118.076 214.314 117.662C214.953 117.248 215.67 116.969 216.42 116.841C217.269 116.717 218.108 116.533 218.93 116.291C219.93 115.941 220.2 115.171 221.02 114.551C222.44 113.481 224.72 113.551 225.48 115.381C226.48 114.271 227.67 114.381 229.06 114.811C229.646 114.979 230.146 115.365 230.458 115.888C230.77 116.412 230.871 117.035 230.74 117.631C231.082 117.439 231.463 117.329 231.854 117.309C232.245 117.289 232.636 117.36 232.995 117.515C233.354 117.671 233.672 117.908 233.925 118.207C234.177 118.507 234.357 118.86 234.45 119.241C234.53 120.061 234.31 120.741 234.81 121.511C234.902 121.696 235.038 121.856 235.206 121.976C235.375 122.095 235.57 122.172 235.776 122.197C235.981 122.223 236.189 122.198 236.382 122.123C236.575 122.049 236.746 121.928 236.88 121.771C237.01 122.941 236.51 123.771 235.25 123.671C235.446 124.005 235.565 124.378 235.6 124.763C235.634 125.149 235.583 125.537 235.45 125.901C235.273 126.357 234.961 126.747 234.555 127.021C234.149 127.294 233.67 127.437 233.18 127.431C233.109 128.084 232.864 128.706 232.472 129.233C232.08 129.76 231.555 130.173 230.95 130.431C228.956 131.103 226.888 131.533 224.79 131.711L222.32 132.071C222.18 132.071 221.44 132.071 221.32 132.221L215 140.471Z"
        fill="#263238" />
    <path
        d="M212.002 137C212.43 137.348 212.96 137.546 213.511 137.562C214.063 137.578 214.604 137.412 215.052 137.09L214.542 142.28L213.922 146.48C213.922 146.48 216.622 152.96 225.102 155.7C225.682 154.21 225.612 149.13 224.712 147.63L225.152 143.63C226.177 143.694 227.206 143.694 228.232 143.63C229.282 143.512 230.274 143.086 231.083 142.407C231.892 141.727 232.483 140.824 232.782 139.81C233.599 136.963 233.863 133.987 233.562 131.04C233.462 130.334 233.462 129.617 233.562 128.91C233.799 127.369 233.672 125.794 233.192 124.31C231.072 122.38 224.792 121.64 219.812 124.31C220.702 126.82 219.902 129.31 217.762 130.24C217.812 131.02 217.762 132.97 216.532 132.86C215.622 132.78 215.622 131.63 214.742 130.57C213.862 129.51 211.692 129.1 210.742 130.57C210.143 131.614 209.94 132.839 210.172 134.02C210.403 135.202 211.053 136.26 212.002 137Z"
        fill="#FFD1A7" />
    <path
        d="M214.36 144C215.272 146.438 216.542 148.727 218.13 150.79C220.41 153.5 225.13 155.7 225.13 155.7L217.38 154.82L216.5 151.53L210.59 147.7L214.36 144Z"
        fill="#E0E0E0" />
    <path
        d="M225.191 143.581C222.001 143.011 219.581 142.521 218.041 140.101C217.334 138.858 216.761 137.544 216.331 136.181C216.435 137.845 216.803 139.482 217.421 141.031C218.151 142.561 220.061 143.911 225.071 144.641L225.191 143.581Z"
        fill="#F2C48F" />
    <path
        d="M225.13 130.9C225.125 131.024 225.095 131.146 225.041 131.258C224.988 131.37 224.912 131.47 224.818 131.551C224.724 131.633 224.615 131.694 224.497 131.732C224.378 131.77 224.254 131.783 224.13 131.77C223.889 131.745 223.667 131.626 223.512 131.439C223.356 131.252 223.281 131.012 223.3 130.77C223.319 130.532 223.431 130.31 223.613 130.154C223.795 129.999 224.031 129.922 224.27 129.94C224.509 129.959 224.73 130.071 224.886 130.253C225.042 130.435 225.119 130.672 225.1 130.91L225.13 130.9Z"
        fill="#263238" />
    <path
        d="M224.381 128.25L222.381 129.13C222.269 128.853 222.269 128.542 222.381 128.265C222.493 127.987 222.708 127.763 222.981 127.64C223.113 127.587 223.254 127.561 223.396 127.563C223.538 127.565 223.678 127.595 223.809 127.652C223.939 127.708 224.057 127.791 224.155 127.893C224.253 127.996 224.33 128.118 224.381 128.25Z"
        fill="#263238" />
    <path
        d="M232.51 128.791L230.4 128.081C230.44 127.94 230.508 127.81 230.6 127.697C230.692 127.583 230.806 127.49 230.935 127.423C231.064 127.356 231.206 127.315 231.351 127.304C231.497 127.294 231.643 127.313 231.78 127.361C232.063 127.459 232.297 127.662 232.433 127.929C232.569 128.195 232.597 128.504 232.51 128.791Z"
        fill="#263238" />
    <path
        d="M232.251 130.811C232.245 130.934 232.213 131.055 232.159 131.167C232.105 131.278 232.029 131.377 231.936 131.458C231.843 131.54 231.734 131.601 231.616 131.639C231.498 131.678 231.374 131.692 231.251 131.681C231.065 131.668 230.887 131.601 230.74 131.487C230.592 131.374 230.482 131.219 230.422 131.043C230.363 130.866 230.357 130.676 230.406 130.497C230.455 130.317 230.556 130.156 230.696 130.034C230.837 129.911 231.01 129.834 231.195 129.81C231.38 129.787 231.567 129.819 231.734 129.902C231.9 129.985 232.038 130.116 232.13 130.278C232.222 130.44 232.264 130.625 232.251 130.811Z"
        fill="#263238" />
    <path
        d="M230.731 134.291L227.501 135.501L226.891 129.281C228.081 128.931 229.421 131.851 230.731 134.291Z"
        fill="#F2C48F" />
    <path
        d="M224.001 136.821L227.731 137.821C227.675 138.07 227.569 138.305 227.42 138.513C227.27 138.72 227.081 138.896 226.863 139.028C226.644 139.161 226.401 139.248 226.148 139.284C225.895 139.321 225.638 139.306 225.391 139.241C224.889 139.098 224.463 138.765 224.204 138.313C223.944 137.861 223.871 137.326 224.001 136.821Z"
        fill="#B16668" />
    <path
        d="M224.431 137.46C224.275 137.446 224.118 137.446 223.961 137.46C223.98 137.877 224.129 138.278 224.387 138.606C224.646 138.935 225 139.174 225.401 139.29C225.603 139.32 225.809 139.32 226.011 139.29C226.029 138.842 225.876 138.403 225.582 138.063C225.289 137.724 224.877 137.508 224.431 137.46Z"
        fill="#F2C48F" />
    <path
        d="M214.42 143.351C215.137 148.829 215.415 154.357 215.25 159.881C213.9 188.461 206.97 199.581 206.97 199.581C206.97 199.581 197.84 196.831 194.78 189.451C196.43 186.591 200.37 178.841 200.78 174.451C201.19 170.061 200.15 163.641 200.3 156.691C200.41 151.121 204.3 146.241 204.3 146.241L214.42 143.351Z"
        fill="#455A64" />
    <path
        d="M188.3 197.301C187.703 196.249 187.281 195.108 187.05 193.921C187.17 193.021 188.66 195.251 189.31 195.681C189.825 196.078 190.473 196.264 191.12 196.201C191.53 196.201 192.18 195.741 192.12 195.331C192.12 195.241 192.04 195.191 191.98 195.131C191.143 194.09 190.397 192.979 189.75 191.811C189.109 190.666 188.391 189.567 187.6 188.521C186.603 187.542 185.975 186.249 185.82 184.861C185.74 179.331 186.14 176.441 186.38 171.081C190.94 169.191 197.77 166.271 199.78 165.441C202.56 164.301 202.38 163.241 203.78 161.031C205.68 158.101 206.66 148.491 205.44 146.721C199.93 146.971 197.68 150.261 192.91 153.121C190.45 154.591 189.2 155.651 185.35 158.121C183.078 159.539 180.888 161.085 178.79 162.751C177.806 163.417 177.006 164.321 176.462 165.378C175.919 166.435 175.65 167.612 175.68 168.801C175.8 171.482 176.08 174.153 176.52 176.801C176.88 179.191 178.1 189.351 178.16 190.801C178.228 192.321 178.425 193.833 178.75 195.321C179.286 197.173 180.168 198.907 181.35 200.431C181.66 200.721 182.04 200.791 182.35 201.091C182.66 201.391 182.79 201.771 183.11 202.041C183.6 202.461 184.02 202.331 184.75 202.251C185.037 202.202 185.332 202.247 185.59 202.381C185.822 202.549 186.037 202.74 186.23 202.951C186.589 203.247 187.025 203.435 187.487 203.494C187.95 203.552 188.419 203.478 188.84 203.281C189.56 203.811 189.91 204.081 190.61 204.621C190.718 204.714 190.857 204.764 191 204.761C191.043 204.75 191.083 204.73 191.118 204.702C191.152 204.675 191.18 204.64 191.2 204.601C191.322 204.43 191.409 204.237 191.456 204.033C191.502 203.828 191.507 203.617 191.47 203.411C191.36 202.637 191.042 201.908 190.55 201.301C189.728 200.009 188.977 198.674 188.3 197.301Z"
        fill="#FFD1A7" />
    <path
        d="M205.61 145.881C202.51 146.501 201.2 146.511 195.86 150.291C190.52 154.071 180.53 160.421 177.51 163.291C174.49 166.161 175.08 167.651 175.69 173.131C176.3 178.611 177.42 183.861 177.42 183.861C177.42 183.861 178.82 185.071 181.84 184.471C183.434 184.236 184.935 183.573 186.18 182.551L186.88 171.481L202.24 164.791C204.392 162.201 205.833 159.096 206.424 155.781C207.015 152.466 206.734 149.055 205.61 145.881Z"
        fill="#37474F" />
    <path
        d="M288.74 246.26C287.15 245.94 285.42 247.36 284.36 250.13C283.3 252.9 284.5 255.35 283.86 258.87C283.33 261.81 281.86 264.8 282.48 267.87C282.671 269.227 283.178 270.52 283.959 271.645C284.741 272.771 285.775 273.697 286.98 274.35C289.58 275.89 293.08 275.63 293.54 273.72C294 271.81 288.74 246.26 288.74 246.26Z"
        fill="#263238" />
    <path
        d="M283.361 266C283.276 265.433 283.276 264.856 283.361 264.29C283.621 262.51 284.181 260.77 284.451 258.98C284.628 257.339 284.704 255.689 284.681 254.04C284.671 252.384 285.012 250.744 285.681 249.23C286.016 248.486 286.529 247.835 287.174 247.335C287.819 246.834 288.577 246.5 289.381 246.36C290.149 246.323 290.918 246.408 291.661 246.61C293.485 246.937 295.34 247.057 297.191 246.97C298.704 246.829 300.184 246.441 301.571 245.82C303.181 245.18 306.501 243.35 306.501 243.35L306.091 254.72C306.091 254.72 303.091 255.22 301.621 255.57C300.151 255.92 296.481 257.49 295.321 258.57C294.161 259.65 293.841 262.08 293.621 263.74C293.494 264.567 293.427 265.403 293.421 266.24C293.421 267.93 293.941 269.63 293.621 271.29C293.556 271.703 293.391 272.094 293.141 272.43C292.731 272.854 292.187 273.123 291.601 273.19C290.61 273.317 289.604 273.224 288.653 272.918C287.703 272.612 286.831 272.1 286.101 271.42C284.543 270.019 283.565 268.085 283.361 266Z"
        fill="#FFC1A7" />
    <path
        d="M283.84 261.92C284.66 263.29 287.33 266.31 290.9 266.29C291.525 266.333 292.144 266.147 292.641 265.766C293.139 265.385 293.479 264.835 293.6 264.22C293.619 265.77 293.743 267.317 293.97 268.85C294.32 270.75 294.56 273.91 292.41 274.43C290.26 274.95 286.6 273.55 284.74 270.8C282.88 268.05 282.57 266 283.84 261.92Z"
        fill="#37474F" />
    <path
        d="M293.81 246.77C293.05 249.77 287.47 250.71 284.65 255.59C284.44 252.59 284.71 249.94 286.22 248.06C286.711 247.357 287.39 246.808 288.179 246.476C288.968 246.143 289.835 246.04 290.68 246.18L293.81 246.77Z"
        fill="#37474F" />
    <path
        d="M343.59 210.46C343.59 210.46 344.8 229.55 341.16 242.4C338.88 250.4 329.89 251.16 327.96 251.57C319.44 253.41 303.62 255.32 303.62 255.32C303.62 255.32 299.45 250.32 301.62 245.67C308.72 242.03 316.81 236.45 323.06 236.67L334.39 209.57L343.59 210.46Z"
        fill="#37474F" />
    <path
        d="M338 226.45C338 226.45 341.63 223.99 342.1 217.94L329.44 221.33L323.03 236.66C322.77 236.66 322.51 236.66 322.24 236.66H322.05C321.782 236.669 321.515 236.693 321.25 236.73C320.97 236.73 320.69 236.81 320.4 236.86H320.23L319.39 237.04C317.802 237.447 316.252 237.993 314.76 238.67L322.68 252.52L323.99 252.29H324.14L325.43 252.06L326.54 251.84H326.81L327.89 251.62C329.82 251.21 338.81 250.45 341.09 242.45C341.343 241.55 341.573 240.62 341.78 239.66L338 226.45Z"
        fill="#263238" />
    <path
        d="M349.4 291.24C348.64 291.24 348.56 290.24 348.1 287.84C347.64 285.44 346.49 275.18 346.49 275.18L333.57 279.49C333.57 279.49 337.72 288.63 338.65 291.11C339.7 293.87 341.15 297.04 341.36 299.17C341.57 301.3 341.58 307.22 344.14 308.35C346.7 309.48 349.14 308.35 350.84 307.21C352.54 306.07 354.61 302.13 356.53 300.14C358.45 298.15 360.07 297.06 361.53 295C362.99 292.94 363.01 287.72 361.06 286.59C359.11 285.46 356.29 286.59 354.63 287.59C352.97 288.59 350.8 291.17 349.4 291.24Z"
        fill="#FFC1A7" />
    <path
        d="M342.199 306.65C341.569 304.569 341.216 302.414 341.149 300.24C341.149 299.7 341.079 299.17 341.069 298.63C341.06 298.531 341.077 298.431 341.119 298.34C341.165 298.28 341.223 298.229 341.289 298.19C341.884 297.834 342.547 297.605 343.236 297.519C343.925 297.433 344.624 297.491 345.289 297.69C346.349 298.01 347.879 298.91 348.209 300.11C348.539 301.31 346.839 302.19 346.089 302.91L342.199 306.65Z"
        fill="#455A64" />
    <path
        d="M361.369 286.34C360.239 285.18 358.369 285.15 355.959 286.34C354.316 287.1 352.83 288.162 351.579 289.47C351.579 289.47 350.259 291.85 352.169 293.53C354.079 295.21 361.369 286.34 361.369 286.34Z"
        fill="#455A64" />
    <path
        d="M363.09 288.56C363.026 287.891 362.703 287.274 362.19 286.84C362.03 286.73 361.48 286.41 361.37 286.34C359.96 285.34 357.37 287.34 355.16 289.34C352.6 291.64 350.16 296.34 348.09 299.47C346.02 302.6 343.44 303.79 342.58 305.18C342.296 305.614 342.16 306.129 342.195 306.647C342.229 307.165 342.431 307.657 342.77 308.05C342.9 308.2 343.37 308.68 343.46 308.77C343.901 309.143 344.427 309.404 344.991 309.531C345.554 309.658 346.141 309.648 346.7 309.5C349.53 309.01 351.58 308.14 353.97 304.77C356.36 301.4 357.64 299.65 360.4 297.51C363.16 295.37 363.62 291.34 363.09 288.56Z"
        fill="#37474F" />
    <path
        d="M363.09 288.56C362.34 284.67 358.82 287.27 355.98 289.82C353.42 292.11 350.98 296.82 348.91 299.94C346.84 303.06 344.2 304.23 343.4 305.66C341.95 308.26 343.87 309.96 346.7 309.47C349.53 308.98 351.58 308.11 353.97 304.74C356.36 301.37 357.64 299.62 360.4 297.48C363.16 295.34 363.62 291.34 363.09 288.56Z"
        fill="#263238" />
    <path
        d="M316.63 205.33C312.17 210.48 310.12 214.91 309.92 219.41C309.858 223.899 311.001 228.323 313.23 232.22C316.93 239.12 319.92 243.22 328.11 258.9C328.015 263.575 328.922 268.215 330.77 272.51C333.97 280.71 337.77 289.51 337.77 289.51C337.77 289.51 340.62 284.34 347.88 285.11C347.5 281.11 345.08 261.83 343.88 256.11C342.42 249.03 336.11 225.74 336.11 225.74C338.47 223.95 340.374 221.629 341.668 218.966C342.962 216.302 343.611 213.371 343.56 210.41L316.63 205.33Z"
        fill="#37474F" />
    <path
        d="M316.23 150.74C314.09 152.25 313.64 153.89 312.46 156.11C311.993 157.142 311.231 158.012 310.27 158.61C306.67 160.44 302.14 158.73 298.35 160.13C296.891 160.751 295.54 161.602 294.35 162.65C296.435 161.923 298.687 161.818 300.83 162.35C299.269 162.059 297.655 162.347 296.29 163.16C294.939 163.964 293.524 164.656 292.06 165.23C290.483 165.71 288.794 165.671 287.24 165.12C289.89 167.9 293.71 169.97 297.48 169.27C298.66 169.05 299.78 168.57 300.96 168.35C304.25 167.72 307.65 169.14 310.96 168.66C313.223 168.418 315.364 167.51 317.11 166.05C318.64 164.485 319.736 162.548 320.29 160.43C320.84 158.82 321.22 156.69 322.54 156.54C323.19 156.47 323.36 155.02 323.81 154.54C324.91 153.4 325.36 151.25 323.68 150.48C320.42 149 317.83 149.62 316.23 150.74Z"
        fill="#263238" />
    <path
        d="M383.86 185.05C383.689 184.814 383.591 184.532 383.58 184.24C383.625 183.965 383.696 183.693 383.79 183.43C383.889 182.976 383.855 182.504 383.694 182.068C383.533 181.632 383.25 181.251 382.88 180.97C383.02 180.09 383.1 179.66 383.25 178.8C383.28 178.661 383.258 178.516 383.19 178.39C383.163 178.356 383.128 178.328 383.088 178.311C383.048 178.293 383.004 178.286 382.96 178.29C382.543 178.232 382.119 178.34 381.78 178.59C381.157 179.051 380.667 179.669 380.36 180.38C379.59 181.703 378.752 182.984 377.85 184.22C377.6 184.54 376.04 186.79 375.62 185.46H372.35C371.751 186.393 371.28 187.402 370.95 188.46C370.839 188.784 370.702 189.099 370.54 189.4C369.899 190.537 368.94 191.461 367.78 192.06C365.94 193.12 358.38 197.37 358.38 197.37C358.38 197.37 357.5 195.87 354 188.12C351.51 182.61 347.87 175.19 342.64 175.19C342.64 175.19 342.21 184.31 341.99 190.79C344.77 195.65 349.21 203.5 351.48 206.44C354.13 209.88 356.02 211.22 358.84 209.8C363.84 207.31 368.07 202.55 371.13 199.87C372.903 198.279 374.826 196.863 376.87 195.64C378.124 194.938 379.312 194.125 380.42 193.21C381.42 192.38 383.48 189.99 383.81 188.82C383.93 188.4 383.81 188.04 383.94 187.64C384.07 187.24 384.34 186.93 384.43 186.52C384.57 186 384.27 185.66 383.86 185.05Z"
        fill="#FFC1A7" />
    <path
        d="M342.65 175C346.53 175.75 347.85 176.46 350.13 180.22C352.41 183.98 358.52 196.8 358.52 196.8L366.79 192.67C366.419 194.459 366.722 196.321 367.64 197.9C369.19 200.4 370.81 200.7 370.81 200.7C370.81 200.7 363.38 208.51 359.18 210.08C354.98 211.65 353.67 209.81 351.75 207.38C349.83 204.95 342 192.83 342 192.83L342.65 175Z"
        fill="#E0E0E0" />
    <path
        d="M376.57 189.41C376.661 189.083 376.725 188.748 376.76 188.41C376.824 188.08 376.824 187.741 376.76 187.41C376.76 187.31 376.54 187.19 376.48 187.34C376.4 187.645 376.349 187.956 376.33 188.27C376.28 188.57 376.22 188.86 376.15 189.15C375.99 189.73 375.751 190.286 375.44 190.8C375.13 191.291 374.742 191.727 374.29 192.09C373.858 192.404 373.403 192.685 372.93 192.93C372.93 192.93 372.86 193.09 372.93 193.09C373.524 192.997 374.09 192.776 374.589 192.44C375.089 192.105 375.509 191.665 375.82 191.15C376.169 190.618 376.423 190.03 376.57 189.41Z"
        fill="#F0AC7A" />
    <path
        d="M395 223.121L341.53 109.121L340.17 109.791L393.64 223.791C394 224.331 395.3 223.641 395 223.121Z"
        fill="#455A64" />
    <path
        d="M341 111C339.081 110.618 337.088 110.911 335.36 111.83C332.82 112.98 331.22 115.54 329.31 117.61C326.964 120.109 324.018 121.966 320.752 123.005C317.486 124.045 314.009 124.232 310.65 123.55C312.129 125.275 314.09 126.518 316.28 127.12C318.451 127.708 320.676 128.076 322.92 128.22C319.268 129.791 315.278 130.417 311.32 130.04C312.773 131.253 314.415 132.219 316.18 132.9C319.86 134.56 323.47 135.77 327.56 135.4C331.438 135.057 335.057 133.311 337.74 130.49C339.02 129.11 340.06 127.49 341.34 126.13C342.697 124.601 344.509 123.549 346.51 123.13L341 111Z"
        fill="white" />
    <path
        d="M341 111C339.081 110.618 337.088 110.911 335.36 111.83C332.82 112.98 331.22 115.54 329.31 117.61C326.964 120.109 324.018 121.966 320.752 123.005C317.486 124.045 314.009 124.232 310.65 123.55C312.129 125.275 314.09 126.518 316.28 127.12C318.451 127.708 320.676 128.076 322.92 128.22C319.268 129.791 315.278 130.417 311.32 130.04C312.773 131.253 314.415 132.219 316.18 132.9C319.86 134.56 323.47 135.77 327.56 135.4C331.438 135.057 335.057 133.311 337.74 130.49C339.02 129.11 340.06 127.49 341.34 126.13C342.697 124.601 344.509 123.549 346.51 123.13L341 111Z"
        fill="url(#paint5_linear_1_2940)" />
    <path
        d="M339.58 110.48C339.711 110.656 339.876 110.804 340.064 110.915C340.253 111.026 340.463 111.098 340.68 111.127C340.897 111.156 341.118 111.141 341.329 111.083C341.54 111.026 341.738 110.926 341.91 110.79C342.263 110.511 342.492 110.104 342.548 109.657C342.604 109.21 342.483 108.759 342.21 108.4C342.079 108.225 341.915 108.077 341.726 107.966C341.537 107.855 341.328 107.782 341.111 107.754C340.893 107.725 340.673 107.74 340.461 107.797C340.25 107.855 340.052 107.955 339.88 108.09C339.529 108.372 339.302 108.778 339.246 109.225C339.19 109.671 339.31 110.121 339.58 110.48Z"
        fill="#37474F" />
    <path opacity="0.1"
        d="M358.52 196.811C356.786 197.978 355.439 199.635 354.65 201.571C354.623 200.273 355.035 199.005 355.82 197.971C356.456 197.139 357.184 196.381 357.99 195.711L358.52 196.811Z"
        fill="#111111" />
    <path
        d="M375.622 185.46C375.579 185.197 375.607 184.928 375.702 184.68C375.923 183.904 376.011 183.096 375.962 182.29C375.955 181.961 375.88 181.638 375.742 181.34C375.572 181 375.062 180.55 374.662 180.81C374.262 181.07 374.132 181.89 373.972 182.25C373.5 183.36 372.959 184.438 372.352 185.48"
        fill="#FFC1A7" />
    <path
        d="M317.559 200.431C317.699 202.041 317.959 203.721 316.629 205.331C317.739 209.701 327.259 212.241 333.509 212.331C342.099 212.441 343.589 210.481 343.589 210.481L344.109 205.031L317.559 200.431Z"
        fill="#FFC1A7" />
    <path
        d="M350.55 189.181C348.29 181.621 342.65 175.011 342.65 175.011C341.32 174.781 331.72 173.511 331.72 173.511C331.72 173.511 325.58 173.931 322.05 174.151C320.23 175.241 318.82 176.951 317.31 180.151C316.67 181.501 315.37 186.671 315.71 188.851C316.426 192.606 316.927 196.399 317.21 200.211C317.36 203.301 315.27 204.321 316.08 205.991C320.72 213.931 339.72 215.791 343.58 211.161C344.94 209.221 345.22 205.351 345.95 200.261C351.51 198.691 351.66 192.881 350.55 189.181Z"
        fill="#F0F0F0" />
    <path
        d="M336.812 199.531C335.423 200.216 333.895 200.572 332.347 200.572C330.798 200.572 329.271 200.216 327.882 199.531C323.352 197.211 323.072 192.901 323.622 191.291C323.622 191.291 321.002 198.081 326.622 201.041C333.692 204.731 336.812 199.531 336.812 199.531Z"
        fill="#E0E0E0" />
    <path
        d="M323.69 150.49C321.05 151.44 320.77 156.94 323.2 157.12C326.86 157.4 327.71 148.78 323.69 150.49Z"
        fill="white" />
    <path
        d="M323.69 150.49C321.05 151.44 320.77 156.94 323.2 157.12C326.86 157.4 327.71 148.78 323.69 150.49Z"
        fill="url(#paint6_linear_1_2940)" />
    <path
        d="M347.111 150.331C336.371 134.161 311.391 152.051 328.321 167.881L330.321 168.021C331.091 166.351 332.781 166.791 334.381 166.501C336.041 165.161 337.381 163.871 339.751 163.791C343.471 163.471 348.341 160.121 346.171 156.041C348.001 154.791 348.091 152.151 347.111 150.331Z"
        fill="#263238" />
    <path
        d="M328.201 171.661C328.201 170.601 328.201 165.661 328.201 165.661C328.151 166.051 325.881 167.101 324.201 165.031C323.492 164.306 323.072 163.346 323.023 162.332C322.973 161.319 323.296 160.322 323.931 159.531C325.091 158.021 327.631 158.151 328.591 160.671C329.361 160.671 330.591 160.581 330.291 156.671C330.431 151.911 335.131 148.091 338.941 151.481C340.511 148.851 343.701 149.991 344.821 152.601C345.431 154.241 345.631 154.801 345.241 157.871C345.51 159.164 345.651 160.48 345.661 161.801C345.381 167.491 343.841 169.151 342.131 170.261C340.859 171.036 339.344 171.311 337.881 171.031V172.401C337.881 173.291 337.801 174.001 338.621 174.321C339.223 174.506 339.838 174.647 340.461 174.741C340.461 174.741 344.461 180.861 336.651 181.661C329.141 182.441 325.891 173.951 325.891 173.951C326.414 173.968 326.934 173.88 327.421 173.691C327.941 173.291 328.171 172.711 328.201 171.661Z"
        fill="#FFC1A7" />
    <path
        d="M335.83 164.171L338.76 165.171C338.7 165.365 338.602 165.545 338.471 165.701C338.341 165.856 338.181 165.985 338 166.078C337.819 166.171 337.622 166.227 337.419 166.243C337.217 166.259 337.013 166.234 336.82 166.171C336.43 166.028 336.11 165.741 335.926 165.369C335.742 164.996 335.707 164.568 335.83 164.171Z"
        fill="#B16668" />
    <path
        d="M336.001 164.851C336.395 164.849 336.778 164.984 337.084 165.232C337.39 165.479 337.601 165.825 337.681 166.211C337.402 166.3 337.101 166.3 336.822 166.211C336.542 166.111 336.296 165.936 336.111 165.705C335.925 165.473 335.808 165.195 335.771 164.901C335.847 164.879 335.924 164.862 336.001 164.851Z"
        fill="#F0AC7A" />
    <path
        d="M344.301 156.001L342.211 154.841C342.28 154.702 342.377 154.579 342.496 154.478C342.615 154.377 342.752 154.302 342.901 154.256C343.05 154.21 343.206 154.195 343.361 154.211C343.515 154.228 343.665 154.275 343.801 154.351C344.078 154.511 344.284 154.771 344.377 155.077C344.47 155.384 344.443 155.714 344.301 156.001Z"
        fill="#263238" />
    <path
        d="M333.641 156.091L335.721 154.871C335.648 154.731 335.547 154.608 335.425 154.508C335.302 154.409 335.161 154.335 335.01 154.292C334.858 154.249 334.699 154.237 334.543 154.258C334.387 154.278 334.236 154.33 334.101 154.411C333.824 154.579 333.623 154.847 333.537 155.159C333.452 155.471 333.489 155.805 333.641 156.091Z"
        fill="#263238" />
    <path
        d="M341.881 158.381C341.867 158.512 341.879 158.644 341.916 158.77C341.953 158.896 342.015 159.013 342.098 159.115C342.18 159.217 342.282 159.302 342.398 159.365C342.513 159.428 342.64 159.467 342.771 159.481C343.027 159.504 343.282 159.427 343.483 159.267C343.684 159.107 343.816 158.876 343.851 158.621C343.864 158.49 343.852 158.358 343.815 158.232C343.778 158.106 343.716 157.989 343.634 157.886C343.551 157.784 343.449 157.699 343.333 157.637C343.218 157.574 343.091 157.535 342.961 157.521C342.705 157.498 342.449 157.574 342.248 157.735C342.047 157.895 341.916 158.126 341.881 158.381Z"
        fill="#263238" />
    <path
        d="M334.671 158.43C334.658 158.562 334.67 158.695 334.708 158.821C334.746 158.948 334.808 159.066 334.892 159.168C334.976 159.27 335.079 159.355 335.196 159.417C335.312 159.479 335.44 159.518 335.571 159.53C335.828 159.553 336.083 159.477 336.284 159.317C336.485 159.157 336.617 158.925 336.651 158.67C336.665 158.539 336.653 158.406 336.615 158.279C336.577 158.153 336.515 158.035 336.431 157.933C336.347 157.83 336.244 157.746 336.127 157.684C336.011 157.621 335.883 157.583 335.751 157.57C335.495 157.547 335.24 157.624 335.039 157.784C334.838 157.944 334.706 158.176 334.671 158.43Z"
        fill="#263238" />
    <path d="M342.481 161.651L339.311 163.091L338.781 157.031L342.481 161.651Z" fill="#F0AC7A" />
    <path
        d="M337.871 171.001C334.101 170.551 330.491 169.451 329.611 167.121C329.644 167.8 329.854 168.458 330.221 169.03C330.587 169.603 331.098 170.068 331.701 170.381C333.59 171.435 335.7 172.028 337.861 172.111L337.871 171.001Z"
        fill="#F0AC7A" />
    <path
        d="M308.179 221.681C307.498 220.77 306.965 219.758 306.6 218.681C306.6 217.821 308.28 219.731 308.94 220.061C309.468 220.377 310.1 220.474 310.7 220.331C311.09 220.261 311.64 219.771 311.53 219.391C311.53 219.301 311.429 219.271 311.369 219.221C310.459 218.342 309.623 217.388 308.869 216.371C308.132 215.371 307.323 214.425 306.45 213.541C305.399 212.74 304.655 211.603 304.339 210.321C303.599 205.151 303.62 202.381 303.2 197.321C307.25 195.001 313.309 191.421 315.089 190.401C317.386 189.216 319.253 187.341 320.429 185.041C321.859 182.041 322.76 176.451 322.01 174.631C314.39 175.141 312.4 176.981 308.47 179.771C306.26 181.341 304.819 182.331 301.309 185.071C299.549 186.441 297.789 187.511 294.619 190.271C293.815 190.86 293.205 191.677 292.868 192.617C292.531 193.556 292.483 194.574 292.73 195.541C293.219 198.375 293.867 201.179 294.67 203.941C295.29 206.141 297.669 215.531 297.899 216.851C298.151 218.262 298.519 219.65 299 221.001C299.729 222.673 300.767 224.193 302.059 225.481C302.399 225.721 302.759 225.731 303.059 225.981C303.359 226.231 303.559 226.561 303.899 226.781C304.409 227.121 304.779 226.941 305.459 226.781C305.724 226.701 306.005 226.701 306.269 226.781C306.504 226.916 306.725 227.073 306.929 227.251C307.304 227.485 307.738 227.609 308.179 227.609C308.621 227.609 309.055 227.485 309.429 227.251L311.25 228.251C311.362 228.324 311.497 228.352 311.63 228.331C311.67 228.32 311.707 228.299 311.737 228.269C311.767 228.239 311.789 228.202 311.799 228.161C311.893 227.986 311.952 227.794 311.97 227.597C311.989 227.399 311.969 227.2 311.91 227.011C311.71 226.299 311.323 225.653 310.79 225.141C309.862 224.032 308.991 222.877 308.179 221.681Z"
        fill="#FFC1A7" />
    <path
        d="M322.049 174.15C315.849 174.61 315.69 174.09 308.72 179.05C301.75 184.01 295.67 188.76 294.01 190.18C292.35 191.6 291.74 193.25 292.6 196.81C293.46 200.37 295.46 206.88 295.46 206.88C296.19 207.309 297.005 207.572 297.849 207.651C298.692 207.731 299.542 207.625 300.34 207.34C303.42 206.47 304.06 205.12 304.06 205.12L303.5 197.61C303.5 197.61 314.9 191.28 317.59 189.46C320.28 187.64 323.749 180 322.049 174.15Z"
        fill="#E0E0E0" />
    <defs>
        <linearGradient id="paint0_linear_1_2940" x1="255.68" y1="322.279" x2="34.9882" y2="363.192"
            gradientUnits="userSpaceOnUse">
            <stop stop-color="#0A8241" />
            <stop offset="0.416667" stop-color="#3EBB6C" stop-opacity="0.87" />
            <stop offset="0.692708" stop-color="#A5E06A" stop-opacity="0.79" />
            <stop offset="1" stop-color="#FCFF68" stop-opacity="0.31" />
        </linearGradient>
        <linearGradient id="paint1_linear_1_2940" x1="255.68" y1="322.279" x2="34.9882" y2="363.192"
            gradientUnits="userSpaceOnUse">
            <stop stop-color="#FCFF68" stop-opacity="0.31" />
            <stop offset="0.359375" stop-color="#A5E06A" stop-opacity="0.79" />
            <stop offset="0.625" stop-color="#3EBB6C" stop-opacity="0.87" />
            <stop offset="1" stop-color="#0A8241" />
        </linearGradient>
        <linearGradient id="paint2_linear_1_2940" x1="154.12" y1="391.359" x2="53.2142" y2="410.082"
            gradientUnits="userSpaceOnUse">
            <stop stop-color="#0A8241" />
            <stop offset="0.416667" stop-color="#3EBB6C" stop-opacity="0.87" />
            <stop offset="0.692708" stop-color="#A5E06A" stop-opacity="0.79" />
            <stop offset="1" stop-color="#FCFF68" stop-opacity="0.31" />
        </linearGradient>
        <linearGradient id="paint3_linear_1_2940" x1="468.809" y1="247.639" x2="379.68" y2="264.176"
            gradientUnits="userSpaceOnUse">
            <stop stop-color="#0A8241" />
            <stop offset="0.416667" stop-color="#3EBB6C" stop-opacity="0.87" />
            <stop offset="0.692708" stop-color="#A5E06A" stop-opacity="0.79" />
            <stop offset="1" stop-color="#FCFF68" stop-opacity="0.31" />
        </linearGradient>
        <linearGradient id="paint4_linear_1_2940" x1="468.809" y1="247.639" x2="379.68" y2="264.176"
            gradientUnits="userSpaceOnUse">
            <stop stop-color="#FCFF68" stop-opacity="0.31" />
            <stop offset="0.359375" stop-color="#A5E06A" stop-opacity="0.79" />
            <stop offset="0.625" stop-color="#3EBB6C" stop-opacity="0.87" />
            <stop offset="1" stop-color="#0A8241" />
        </linearGradient>
        <linearGradient id="paint5_linear_1_2940" x1="346.51" y1="113.771" x2="309.456" y2="119.547"
            gradientUnits="userSpaceOnUse">
            <stop stop-color="#0A8241" />
            <stop offset="0.416667" stop-color="#3EBB6C" stop-opacity="0.87" />
            <stop offset="0.692708" stop-color="#A5E06A" stop-opacity="0.79" />
            <stop offset="1" stop-color="#FCFF68" stop-opacity="0.31" />
        </linearGradient>
        <linearGradient id="paint6_linear_1_2940" x1="326.347" y1="151.083" x2="321.28" y2="151.464"
            gradientUnits="userSpaceOnUse">
            <stop stop-color="#0A8241" />
            <stop offset="0.416667" stop-color="#3EBB6C" stop-opacity="0.87" />
            <stop offset="0.692708" stop-color="#A5E06A" stop-opacity="0.79" />
            <stop offset="1" stop-color="#FCFF68" stop-opacity="0.31" />
        </linearGradient>
    </defs>
</svg>